<svg width="49" height="48" viewBox="0 0 49 48" fill="none" xmlns="http://www.w3.org/2000/svg">
<g clip-path="url(#clip0_625_5367)">
<path d="M46.7357 17.8014C46.6478 17.697 46.5079 17.6526 46.3764 17.6863L42.8152 18.6075C42.6688 18.6452 42.5158 18.5861 42.432 18.461L40.8841 16.1401C40.8661 16.113 40.8447 16.0882 40.8192 16.0677L39.3586 14.8258C39.319 14.7921 39.2878 14.7501 39.2656 14.7024L37.4414 10.6741C37.4331 10.6535 37.4224 10.6347 37.4093 10.6173L36.3408 9.0909C36.3383 9.08677 36.3359 9.08349 36.3334 9.08021L34.8563 6.79046C34.807 6.71312 34.788 6.61937 34.807 6.5289L34.8505 6.31168C34.8711 6.20809 34.9369 6.11921 35.0297 6.06915C35.1236 6.01899 35.2337 6.01327 35.3316 6.05349L35.5578 6.14724C35.6845 6.19993 35.8308 6.17359 35.932 6.07984C36.0324 5.98684 36.0702 5.84377 36.0291 5.71299L35.775 4.91518C35.7372 4.79518 35.6385 4.70462 35.5151 4.67752L32.9902 4.11577C32.9368 4.10434 32.88 4.10509 32.8274 4.1183L30.8174 4.62071C30.7581 4.63552 30.6957 4.63468 30.6363 4.61743L28.878 4.12562C28.813 4.10762 28.7538 4.07143 28.7094 4.02034L28.2537 3.50715C28.1903 3.43637 28.1016 3.39362 28.007 3.38949L26.9157 3.33446C26.7346 3.32621 26.5752 3.4553 26.5488 3.6354L26.4173 4.51384C26.4025 4.60927 26.3506 4.69477 26.2725 4.7499C26.1935 4.80502 26.0957 4.8264 26.002 4.80915L23.6835 4.37077C23.5569 4.34612 23.454 4.2564 23.4138 4.13471L23.2453 3.62884C23.1984 3.48905 23.0692 3.39277 22.922 3.3879L21.0773 3.32452C20.9695 3.32124 20.87 3.26865 20.8059 3.18305L20.208 2.38524C20.1479 2.30546 20.1249 2.20346 20.1438 2.10568C20.1627 2.00696 20.2228 1.92221 20.3083 1.87046L20.4653 1.77587C20.6265 1.67959 20.6833 1.47399 20.5968 1.30787L20.0103 0.187836C19.9403 0.056211 19.7956 -0.0178515 19.6476 0.00352347L12.7686 0.974961C12.7398 0.978242 12.7118 0.986492 12.6847 0.99718L10.6755 1.81552C10.6393 1.83109 10.6005 1.83934 10.5611 1.84102L9.27314 1.90843C9.1868 1.9134 9.10627 1.94874 9.04533 2.00884L6.65199 4.32896C6.5978 4.38165 6.56152 4.4498 6.54924 4.52387L6.36005 5.65637C6.34449 5.75593 6.28608 5.84312 6.20142 5.8974L4.07367 7.24459C4.02342 7.2758 3.98152 7.32024 3.95358 7.37199L2.01999 10.8683C1.98792 10.9259 1.97236 10.99 1.97555 11.0558L2.12517 14.265C2.12602 14.2929 2.12433 14.3201 2.11861 14.3473L1.84645 15.7775C1.82667 15.882 1.85545 15.9905 1.9237 16.0728L7.12889 22.2445C7.21533 22.3465 7.35183 22.3908 7.48261 22.3605L9.78792 21.8004C9.82327 21.7921 9.85946 21.7889 9.89649 21.7913L13.1246 22.0167C13.169 22.0208 13.2142 22.0142 13.2578 22.0011L15.6585 21.2238C15.7728 21.1869 15.8978 21.2107 15.9908 21.2863L17.4457 22.4773C17.5164 22.534 17.6077 22.5628 17.699 22.5555L19.0438 22.4428C19.1425 22.4354 19.2395 22.4682 19.3118 22.5357C19.3851 22.6022 19.427 22.696 19.427 22.7956V24.0991C19.427 24.1171 19.4253 24.1345 19.4229 24.1518L19.2156 25.5311C19.2016 25.6281 19.2279 25.7284 19.2905 25.8049L20.7816 27.6505C20.8129 27.6899 20.8359 27.736 20.849 27.7846L22.0507 32.443C22.068 32.5079 22.0655 32.5762 22.045 32.6395L20.9487 36.0765C20.9224 36.1588 20.9273 36.2484 20.9618 36.3273L22.8345 40.5211C22.8485 40.5523 22.8584 40.5852 22.8625 40.6206L23.2317 43.5057C23.2399 43.5723 23.2687 43.6349 23.3107 43.6867L25.1118 45.8473C25.1645 45.9115 25.1932 45.9903 25.1932 46.0735V47.6476C25.1932 47.7488 25.2368 47.8458 25.3141 47.9132C25.3898 47.9807 25.4917 48.0104 25.593 47.9971L28.7783 47.5827L31.4529 47.2109C31.5368 47.1986 31.6141 47.1574 31.67 47.0925L35.7305 42.4316C35.7699 42.3857 35.7979 42.3288 35.8095 42.2688L35.997 41.3354C36.0151 41.2441 36.0694 41.1627 36.1475 41.1108L36.5744 40.8271C36.6698 40.7621 36.729 40.6561 36.7314 40.5409L36.8014 37.6558C36.8039 37.5744 36.8342 37.4955 36.8878 37.4338L37.7505 36.4385C37.7949 36.3875 37.8516 36.3513 37.9166 36.3316L39.6684 35.8118C39.819 35.7675 39.9217 35.6301 39.9217 35.4729V31.9627C39.9217 31.9331 39.9184 31.9042 39.911 31.8763L39.0573 28.5322C39.0162 28.371 39.0927 28.2032 39.2416 28.1283L39.5311 27.9837C39.5837 27.9573 39.6281 27.9195 39.661 27.8726L42.204 24.2826C42.2401 24.2309 42.2903 24.1906 42.347 24.1642L44.3974 23.2456C44.4756 23.2102 44.5389 23.1468 44.5742 23.0687L46.7866 18.1743C46.8427 18.0498 46.8238 17.9051 46.7357 17.8014Z" fill="#27861D"/>
<path d="M45.8554 33.3976C45.8003 33.2932 45.6976 33.2225 45.5807 33.2101C45.4639 33.197 45.348 33.243 45.2723 33.3335L43.56 35.3617C43.5254 35.4036 43.4818 35.4366 43.4316 35.4579L42.4719 35.8782C42.3428 35.9341 42.2605 36.0616 42.2605 36.2023V38.1868C42.2605 38.2164 42.2564 38.2451 42.249 38.2732L41.9726 39.3794C41.9569 39.4435 41.9595 39.5102 41.9792 39.5735L42.6166 41.549C42.6462 41.6403 42.7104 41.7143 42.7958 41.7571C42.8806 41.7991 42.9801 41.8057 43.069 41.7743L44.347 41.3293C44.4556 41.2914 44.5387 41.2043 44.5715 41.0949L46.0783 35.8929L46.4278 34.7045C46.4533 34.6173 46.4443 34.5227 46.4024 34.4412L45.8554 33.3976Z" fill="#27861D"/>
</g>
<defs>
<clipPath id="clip0_625_5367">
<rect width="48" height="48" fill="white" transform="translate(0.329346)"/>
</clipPath>
</defs>
</svg>
