<svg width="49" height="48" viewBox="0 0 49 48" fill="none" xmlns="http://www.w3.org/2000/svg">
<g clip-path="url(#clip0_289_807)">
<path d="M46.7353 17.8015C46.6473 17.6971 46.5074 17.6527 46.3759 17.6864L42.8147 18.6076C42.6683 18.6454 42.5153 18.5862 42.4315 18.4611L40.8837 16.1403C40.8656 16.1131 40.8442 16.0883 40.8187 16.0678L39.3581 14.8259C39.3185 14.7922 39.2873 14.7502 39.2651 14.7025L37.4409 10.6742C37.4326 10.6536 37.4219 10.6348 37.4088 10.6175L36.3403 9.09102C36.3378 9.0869 36.3354 9.08361 36.3329 9.08033L34.8558 6.79058C34.8065 6.71324 34.7875 6.61949 34.8065 6.52902L34.85 6.3118C34.8706 6.20821 34.9364 6.11933 35.0292 6.06927C35.1231 6.01911 35.2332 6.0134 35.3311 6.05361L35.5573 6.14736C35.684 6.20005 35.8303 6.17371 35.9315 6.07996C36.0319 5.98696 36.0697 5.8439 36.0286 5.71311L35.7745 4.9153C35.7367 4.7953 35.638 4.70474 35.5146 4.67765L32.9897 4.1159C32.9363 4.10446 32.8795 4.10521 32.8269 4.11843L30.8169 4.62083C30.7576 4.63565 30.6952 4.6348 30.6358 4.61755L28.8775 4.12574C28.8125 4.10774 28.7533 4.07155 28.7089 4.02046L28.2532 3.50727C28.1898 3.43649 28.1011 3.39374 28.0065 3.38961L26.9152 3.33458C26.7342 3.32633 26.5747 3.45543 26.5483 3.63552L26.4168 4.51396C26.402 4.6094 26.3502 4.6949 26.2721 4.75002C26.193 4.80515 26.0952 4.82652 26.0015 4.80927L23.6831 4.3709C23.5564 4.34624 23.4536 4.25652 23.4133 4.13483L23.2448 3.62896C23.1979 3.48918 23.0687 3.3929 22.9215 3.38802L21.0768 3.32465C20.969 3.32136 20.8695 3.26877 20.8054 3.18318L20.2075 2.38536C20.1474 2.30558 20.1244 2.20358 20.1433 2.1058C20.1622 2.00708 20.2223 1.92233 20.3078 1.87058L20.4648 1.77599C20.6261 1.67971 20.6828 1.47411 20.5963 1.30799L20.0098 0.187958C19.9398 0.056333 19.7952 -0.0177295 19.6471 0.00364554L12.7681 0.975083C12.7393 0.978364 12.7113 0.986614 12.6842 0.997302L10.675 1.81565C10.6388 1.83121 10.6001 1.83946 10.5606 1.84115L9.27265 1.90855C9.18631 1.91352 9.10578 1.94886 9.04484 2.00896L6.6515 4.32908C6.59731 4.38177 6.56103 4.44993 6.54875 4.52399L6.35956 5.65649C6.344 5.75605 6.28559 5.84324 6.20093 5.89752L4.07318 7.24471C4.02293 7.27593 3.98103 7.32036 3.95309 7.37211L2.0195 10.8684C1.98743 10.926 1.97187 10.9901 1.97506 11.0559L2.12468 14.2651C2.12553 14.293 2.12384 14.3202 2.11812 14.3474L1.84597 15.7776C1.82618 15.8821 1.85497 15.9906 1.92322 16.073L7.1284 22.2446C7.21484 22.3466 7.35134 22.391 7.48212 22.3606L9.78744 21.8005C9.82278 21.7923 9.85897 21.789 9.896 21.7914L13.1241 22.0168C13.1685 22.0209 13.2137 22.0144 13.2573 22.0012L15.6581 21.224C15.7723 21.187 15.8973 21.2108 15.9903 21.2864L17.4452 22.4774C17.5159 22.5341 17.6072 22.5629 17.6985 22.5556L19.0433 22.4429C19.142 22.4355 19.239 22.4683 19.3113 22.5358C19.3846 22.6024 19.4265 22.6961 19.4265 22.7957V24.0993C19.4265 24.1173 19.4248 24.1346 19.4224 24.152L19.2151 25.5312C19.2012 25.6282 19.2274 25.7285 19.29 25.805L20.7811 27.6506C20.8124 27.69 20.8354 27.7361 20.8485 27.7847L22.0502 32.4431C22.0675 32.508 22.065 32.5763 22.0445 32.6396L20.9482 36.0766C20.9219 36.1589 20.9268 36.2485 20.9613 36.3275L22.8341 40.5212C22.848 40.5524 22.8579 40.5853 22.862 40.6207L23.2312 43.5058C23.2394 43.5725 23.2682 43.635 23.3102 43.6868L25.1113 45.8474C25.164 45.9116 25.1927 45.9905 25.1927 46.0736V47.6478C25.1927 47.7489 25.2363 47.846 25.3137 47.9134C25.3893 47.9809 25.4912 48.0105 25.5925 47.9973L28.7778 47.5828L31.4524 47.211C31.5363 47.1987 31.6137 47.1576 31.6695 47.0926L35.73 42.4317C35.7694 42.3858 35.7974 42.329 35.809 42.269L35.9966 41.3355C36.0147 41.2442 36.0689 41.1628 36.147 41.111L36.5739 40.8273C36.6693 40.7622 36.7285 40.6562 36.7309 40.5411L36.8009 37.6559C36.8034 37.5745 36.8337 37.4956 36.8873 37.4339L37.75 36.4386C37.7944 36.3876 37.8511 36.3515 37.9161 36.3318L39.6679 35.8119C39.8185 35.7676 39.9212 35.6302 39.9212 35.473V31.9628C39.9212 31.9332 39.9179 31.9043 39.9105 31.8764L39.0568 28.5323C39.0157 28.3711 39.0922 28.2034 39.2411 28.1285L39.5306 27.9838C39.5832 27.9575 39.6276 27.9196 39.6605 27.8727L42.2035 24.2827C42.2397 24.231 42.2898 24.1907 42.3465 24.1643L44.3969 23.2457C44.4751 23.2103 44.5384 23.147 44.5737 23.0689L46.7862 18.1745C46.8422 18.05 46.8233 17.9052 46.7353 17.8015Z" fill="#040506"/>
<path d="M45.8549 33.3977C45.7998 33.2933 45.6971 33.2226 45.5803 33.2102C45.4634 33.1971 45.3475 33.2431 45.2718 33.3336L43.5595 35.3618C43.5249 35.4037 43.4813 35.4367 43.4311 35.4581L42.4714 35.8783C42.3423 35.9342 42.26 36.0617 42.26 36.2024V38.1869C42.26 38.2166 42.2559 38.2452 42.2485 38.2733L41.9721 39.3795C41.9564 39.4436 41.959 39.5103 41.9787 39.5736L42.6161 41.5491C42.6457 41.6404 42.7099 41.7145 42.7953 41.7572C42.8801 41.7992 42.9796 41.8058 43.0685 41.7745L44.3465 41.3294C44.4551 41.2916 44.5382 41.2045 44.571 41.0951L46.0778 35.8931L46.4273 34.7046C46.4528 34.6174 46.4438 34.5228 46.4019 34.4413L45.8549 33.3977Z" fill="#040506"/>
</g>
<defs>
<clipPath id="clip0_289_807">
<rect width="48" height="48" fill="white" transform="translate(0.329102)"/>
</clipPath>
</defs>
</svg>
