<svg width="49" height="48" viewBox="0 0 49 48" fill="none" xmlns="http://www.w3.org/2000/svg">
<g clip-path="url(#clip0_289_807)">
<path d="M46.736 17.8014C46.648 17.697 46.5082 17.6526 46.3766 17.6863L42.8155 18.6075C42.669 18.6452 42.516 18.5861 42.4322 18.461L40.8844 16.1401C40.8663 16.113 40.8449 16.0882 40.8194 16.0677L39.3588 14.8258C39.3192 14.7921 39.288 14.7501 39.2658 14.7024L37.4416 10.6741C37.4334 10.6535 37.4227 10.6347 37.4095 10.6173L36.3411 9.0909C36.3385 9.08677 36.3361 9.08349 36.3337 9.08021L34.8565 6.79046C34.8072 6.71312 34.7882 6.61937 34.8072 6.5289L34.8507 6.31168C34.8714 6.20809 34.9372 6.11921 35.03 6.06915C35.1238 6.01899 35.234 6.01327 35.3319 6.05349L35.5581 6.14724C35.6847 6.19993 35.8311 6.17359 35.9322 6.07984C36.0326 5.98684 36.0704 5.84377 36.0294 5.71299L35.7752 4.91518C35.7374 4.79518 35.6387 4.70462 35.5153 4.67752L32.9904 4.11577C32.937 4.10434 32.8802 4.10509 32.8276 4.1183L30.8176 4.62071C30.7584 4.63552 30.6959 4.63468 30.6366 4.61743L28.8782 4.12562C28.8132 4.10762 28.7541 4.07143 28.7096 4.02034L28.2539 3.50715C28.1905 3.43637 28.1019 3.39362 28.0073 3.38949L26.9159 3.33446C26.7349 3.32621 26.5754 3.4553 26.5491 3.6354L26.4175 4.51384C26.4027 4.60927 26.3509 4.69477 26.2728 4.7499C26.1938 4.80502 26.096 4.8264 26.0022 4.80915L23.6838 4.37077C23.5571 4.34612 23.4543 4.2564 23.4141 4.13471L23.2455 3.62884C23.1986 3.48905 23.0695 3.39277 22.9223 3.3879L21.0775 3.32452C20.9697 3.32124 20.8703 3.26865 20.8061 3.18305L20.2082 2.38524C20.1481 2.30546 20.1251 2.20346 20.1441 2.10568C20.1629 2.00696 20.223 1.92221 20.3085 1.87046L20.4655 1.77587C20.6268 1.67959 20.6835 1.47399 20.5971 1.30787L20.0106 0.187836C19.9405 0.056211 19.7959 -0.0178515 19.6479 0.00352347L12.7689 0.974961C12.7401 0.978242 12.712 0.986492 12.6849 0.99718L10.6757 1.81552C10.6395 1.83109 10.6008 1.83934 10.5613 1.84102L9.27339 1.90843C9.18704 1.9134 9.10651 1.94874 9.04557 2.00884L6.65223 4.32896C6.59804 4.38165 6.56176 4.4498 6.54948 4.52387L6.36029 5.65637C6.34473 5.75593 6.28632 5.84312 6.20167 5.8974L4.07392 7.24459C4.02367 7.2758 3.98176 7.32024 3.95382 7.37199L2.02023 10.8683C1.98817 10.9259 1.9726 10.99 1.97579 11.0558L2.12542 14.265C2.12626 14.2929 2.12457 14.3201 2.11885 14.3473L1.8467 15.7775C1.82692 15.882 1.8557 15.9905 1.92395 16.0728L7.12914 22.2445C7.21557 22.3465 7.35207 22.3908 7.48286 22.3605L9.78817 21.8004C9.82351 21.7921 9.8597 21.7889 9.89673 21.7913L13.1248 22.0167C13.1693 22.0208 13.2144 22.0142 13.258 22.0011L15.6588 21.2238C15.7731 21.1869 15.898 21.2107 15.991 21.2863L17.4459 22.4773C17.5166 22.534 17.6079 22.5628 17.6993 22.5555L19.044 22.4428C19.1427 22.4354 19.2398 22.4682 19.312 22.5357C19.3854 22.6022 19.4273 22.696 19.4273 22.7956V24.0991C19.4273 24.1171 19.4256 24.1345 19.4231 24.1518L19.2159 25.5311C19.2019 25.6281 19.2281 25.7284 19.2908 25.8049L20.7819 27.6505C20.8132 27.6899 20.8361 27.736 20.8493 27.7846L22.0509 32.443C22.0682 32.5079 22.0658 32.5762 22.0452 32.6395L20.9489 36.0765C20.9227 36.1588 20.9275 36.2484 20.962 36.3273L22.8348 40.5211C22.8488 40.5523 22.8586 40.5852 22.8627 40.6206L23.2319 43.5057C23.2402 43.5723 23.2689 43.6349 23.3109 43.6867L25.1121 45.8473C25.1648 45.9115 25.1934 45.9903 25.1934 46.0735V47.6476C25.1934 47.7488 25.237 47.8458 25.3144 47.9132C25.39 47.9807 25.4919 48.0104 25.5932 47.9971L28.7785 47.5827L31.4531 47.2109C31.537 47.1986 31.6144 47.1574 31.6703 47.0925L35.7308 42.4316C35.7701 42.3857 35.7982 42.3288 35.8097 42.2688L35.9973 41.3354C36.0154 41.2441 36.0697 41.1627 36.1478 41.1108L36.5746 40.8271C36.67 40.7621 36.7292 40.6561 36.7316 40.5409L36.8017 37.6558C36.8041 37.5744 36.8345 37.4955 36.888 37.4338L37.7507 36.4385C37.7951 36.3875 37.8519 36.3513 37.9168 36.3316L39.6686 35.8118C39.8192 35.7675 39.922 35.6301 39.922 35.4729V31.9627C39.922 31.9331 39.9187 31.9042 39.9113 31.8763L39.0576 28.5322C39.0164 28.371 39.0929 28.2032 39.2418 28.1283L39.5313 27.9837C39.584 27.9573 39.6283 27.9195 39.6612 27.8726L42.2042 24.2826C42.2404 24.2309 42.2905 24.1906 42.3473 24.1642L44.3977 23.2456C44.4759 23.2102 44.5391 23.1468 44.5745 23.0687L46.7869 18.1743C46.843 18.0498 46.824 17.9051 46.736 17.8014Z" fill="#454647"/>
<path d="M45.8557 33.3976C45.8006 33.2932 45.6978 33.2225 45.581 33.2101C45.4642 33.197 45.3482 33.243 45.2726 33.3335L43.5602 35.3617C43.5256 35.4036 43.482 35.4366 43.4319 35.4579L42.4722 35.8782C42.3431 35.9341 42.2607 36.0616 42.2607 36.2023V38.1868C42.2607 38.2164 42.2566 38.2451 42.2492 38.2732L41.9728 39.3794C41.9572 39.4435 41.9597 39.5102 41.9794 39.5735L42.6168 41.549C42.6464 41.6403 42.7107 41.7143 42.7961 41.7571C42.8808 41.7991 42.9804 41.8057 43.0692 41.7743L44.3472 41.3293C44.4558 41.2914 44.539 41.2043 44.5718 41.0949L46.0785 35.8929L46.428 34.7045C46.4535 34.6173 46.4445 34.5227 46.4026 34.4412L45.8557 33.3976Z" fill="#454647"/>
</g>
<defs>
<clipPath id="clip0_289_807">
<rect width="48" height="48" fill="white" transform="translate(0.32959)"/>
</clipPath>
</defs>
</svg>
