<svg width="65" height="48" viewBox="0 0 65 48" fill="none" xmlns="http://www.w3.org/2000/svg">
<path d="M47.4812 47.8651C47.0221 47.8014 46.3747 47.6602 46.0427 47.5513C45.7106 47.4423 45.3231 47.3899 45.1815 47.4349C44.8469 47.5411 43.8787 47.2499 43.789 47.0161C43.7508 46.9164 43.8001 46.7809 43.8987 46.7149C44.1294 46.5605 45.0219 46.6907 45.3915 46.9326C45.6213 47.083 45.7971 47.0932 46.2829 46.9843C46.8179 46.8644 46.9293 46.8792 47.2436 47.1116C47.4392 47.2562 47.6622 47.3745 47.7392 47.3745C48.0091 47.3745 48.6446 47.7719 48.5694 47.8936C48.5276 47.9613 48.4535 48.0085 48.4047 47.9987C48.3559 47.9889 47.9403 47.9287 47.4812 47.8651ZM42.266 45.6086C41.9443 45.2731 41.5361 44.6817 41.3589 44.2944C41.1817 43.9072 40.7819 43.2513 40.4704 42.8369C40.159 42.4226 39.9042 42.0301 39.9042 41.9647C39.9042 41.8993 39.5574 41.473 39.1336 41.0175C38.377 40.2042 38.2824 40.0493 38.4436 39.8881C38.6589 39.6728 40.215 40.6449 40.3535 41.0812C40.3943 41.2096 40.8588 41.6393 41.3859 42.036C41.9655 42.4722 42.3442 42.8501 42.3442 42.992C42.3442 43.1212 42.5031 43.4071 42.6974 43.6275C43.8576 44.9438 44.048 45.3733 43.7039 45.8985C43.3741 46.4019 42.9433 46.315 42.266 45.6086ZM48.4673 44.9788C48.4211 44.9325 48.0007 44.8773 47.5332 44.8561C46.2277 44.7967 46.0559 44.607 45.6152 42.7375C45.5139 42.308 45.8122 41.9918 46.2413 42.0738C46.4813 42.1197 46.578 42.0679 46.6448 41.8575C46.6931 41.7053 46.9308 41.4862 47.173 41.3707C47.4152 41.2552 47.7249 40.9717 47.8612 40.7406C47.9976 40.5096 48.306 40.2382 48.5466 40.1377C48.7872 40.0372 49.1122 39.775 49.2688 39.5551C49.6195 39.0625 49.778 39.0559 50.2183 39.5155C50.631 39.9463 50.6446 40.1031 50.3065 40.5329C49.9812 40.9466 49.9844 41.1154 50.3308 41.8091L50.6119 42.3719L50.3308 42.5689C50.1762 42.6771 50.0497 42.844 50.0497 42.9396C50.0497 43.1497 49.373 44.6023 49.15 44.8711C48.986 45.0687 48.6157 45.1271 48.4673 44.9788ZM41.9519 41.6544C41.4357 41.2735 41.0903 40.6556 40.8421 39.669C40.702 39.1118 40.5449 38.8542 40.0981 38.449L39.5316 37.9353L39.6586 36.8437C39.7731 35.8593 39.761 35.7079 39.5353 35.3026C39.3977 35.0554 39.1905 34.5256 39.0749 34.1254C38.7927 33.1479 38.6443 33.0434 38.1047 33.4416C37.7014 33.7391 37.6595 33.7457 37.439 33.5461C37.3019 33.4221 37.2337 33.2383 37.2757 33.1061C37.3878 32.7528 36.6444 31.4184 36.1978 31.1715C35.9848 31.0537 35.6939 30.7285 35.5512 30.4489C35.2835 29.9242 34.9813 29.7122 34.7259 29.87C34.6454 29.9198 34.2316 30.0512 33.8064 30.162C33.1177 30.3415 33.029 30.4019 32.9925 30.7168C32.9678 30.9307 32.8157 31.1569 32.6073 31.2899C32.4179 31.4108 31.9608 31.8285 31.5915 32.2182C31.2223 32.6079 30.8466 33.0035 30.7568 33.0973C30.6669 33.1911 30.3707 33.4517 30.0985 33.6763C29.6088 34.0806 29.6051 34.0904 29.7469 34.617C29.8459 34.9844 29.85 35.255 29.7602 35.4911C29.6887 35.6791 29.6302 36.0505 29.6302 36.3163C29.6302 36.8148 29.0269 37.9079 28.6777 38.0418C28.4019 38.1477 27.9891 37.7789 27.8928 37.3407C27.8443 37.1199 27.5862 36.4698 27.3192 35.8961C25.7028 32.4225 25.434 31.6841 25.5777 31.1115C25.682 30.6962 25.5323 30.1656 25.3109 30.1656C25.2109 30.1656 25.0741 30.3101 25.0069 30.4867C24.8642 30.862 24.4439 30.913 24.0081 30.6078C23.7181 30.4047 23.617 30.0372 23.8511 30.0372C23.9218 30.0372 23.9795 29.9505 23.9795 29.8445C23.9795 29.7386 23.8744 29.6519 23.7459 29.6519C23.6174 29.6519 23.1783 29.3362 22.7702 28.9503C21.9582 28.1824 21.6677 28.0352 21.3196 28.2155C21.0572 28.3514 18.2612 28.3161 17.7997 28.1711C17.6316 28.1183 17.3207 27.8767 17.1088 27.6342C16.7259 27.1959 16.72 27.1942 16.1457 27.349C15.6014 27.4957 15.5223 27.4819 14.7893 27.1118C14.1558 26.7921 13.966 26.6196 13.7705 26.186C13.4866 25.5563 12.8998 25.1768 12.5978 25.4274C12.1531 25.7964 12.166 25.9917 12.6856 26.7574C12.9641 27.1677 13.1919 27.6001 13.1919 27.7183C13.1919 27.8366 13.2751 28.0455 13.3767 28.1826C13.5359 28.3973 13.599 28.409 13.8314 28.267C14.1475 28.0739 14.3477 28.1596 14.3477 28.4879C14.3477 29.2118 15.3041 29.1306 16.1116 28.3381C16.5873 27.8712 16.6594 27.8364 16.6594 28.0736C16.6594 28.5285 16.7995 28.7524 17.2207 28.9702C17.7883 29.2636 18.5857 29.9239 18.5857 30.1005C18.5857 30.1823 18.4356 30.3894 18.2522 30.5606C18.0687 30.7318 17.8047 31.0942 17.6654 31.3658C17.3271 32.0257 16.3463 32.9909 16.0142 32.9909C15.6304 32.9909 15.0595 33.3151 14.8322 33.6619C14.7245 33.8263 14.4414 34.0581 14.2031 34.1771C12.9825 34.7864 11.5128 35.4042 11.0992 35.4818C10.657 35.5648 10.6212 35.5447 10.3869 35.0827C10.2512 34.8152 10.0973 34.2784 10.0449 33.8899C9.97666 33.3847 9.84437 33.0635 9.58013 32.7617C9.37697 32.5297 9.21075 32.2842 9.21075 32.2161C9.21075 32.148 8.979 31.8535 8.69575 31.5616C8.34298 31.1981 8.11503 30.8036 7.97213 30.3093C7.85739 29.9124 7.62305 29.4143 7.45138 29.2024C6.40878 27.9155 5.85711 27.1321 5.78732 26.8393C5.74356 26.6557 5.65089 26.3949 5.58137 26.2598C5.45938 26.0227 5.44737 26.0242 5.2373 26.3027L5.01964 26.5912L4.66683 26.1287C4.23231 25.559 4.24187 24.9861 4.68696 24.923C4.84762 24.9002 5.05682 24.7557 5.15183 24.6019C5.35028 24.2807 5.60553 23.0499 5.64924 22.2033C5.67846 21.6374 5.67108 21.6257 5.29381 21.6396C5.08191 21.6474 4.72093 21.7322 4.49164 21.8281C4.12591 21.981 4.02891 21.9753 3.70128 21.7818C3.28005 21.533 2.90355 21.4985 2.71088 21.6912C2.33122 22.0709 1.12002 21.2632 1.12002 20.6304C1.12002 20.4824 1.02767 20.2593 0.914803 20.1346C0.652855 19.8452 0.804187 19.5922 1.18248 19.6871C1.38714 19.7385 1.6182 19.6454 1.95942 19.3743C2.27292 19.1251 2.52957 19.0152 2.68346 19.064C2.82053 19.1075 3.1155 19.02 3.37748 18.8581C3.75723 18.6234 3.94179 18.5909 4.48577 18.6631C4.84474 18.7107 5.34677 18.8539 5.6014 18.9814C6.63755 19.5 7.56152 19.4587 7.84415 18.8812C8.1085 18.3411 7.9683 18.1348 6.95779 17.577C6.43446 17.2881 5.97442 17.0002 5.93549 16.9372C5.81316 16.7393 6.14244 15.6848 6.4617 15.252C6.7617 14.8454 6.7632 14.8298 6.53914 14.4462C6.40429 14.2153 6.15492 14.015 5.93066 13.9575C5.72166 13.9039 5.30641 13.7994 5.00789 13.7253C4.70062 13.6491 4.20656 13.3668 3.86919 13.0748C3.4052 12.6733 3.18577 12.5675 2.87809 12.5974C2.50538 12.6335 2.48188 12.6093 2.46486 12.1716C2.45494 11.9163 2.32165 11.5049 2.16867 11.2574C1.9404 10.8881 1.79287 10.7943 1.34605 10.7343C0.691794 10.6466 0.4169 10.3478 0.296249 9.59327C0.22007 9.11688 0.247224 9.00814 0.491826 8.81007C0.701258 8.64048 0.738133 8.54234 0.632211 8.43642C0.52629 8.3305 0.588355 8.16676 0.868501 7.81305C1.24516 7.33748 1.36416 6.92081 1.12332 6.92081C0.943078 6.92081 0.606323 6.21886 0.606323 5.84316C0.606323 5.66724 0.548532 5.48758 0.477899 5.44393C0.407265 5.40028 0.349474 5.1847 0.349474 4.96487C0.349474 4.74504 0.255779 4.46165 0.141263 4.33511C-0.12306 4.04304 -0.0100597 3.74289 0.426746 3.57681C0.697824 3.47375 0.856252 3.49967 1.202 3.70367C1.48076 3.86814 1.76266 3.93512 1.9883 3.89048C2.39524 3.80999 4.42376 4.40683 4.7159 4.69301C4.8869 4.86053 4.88054 4.90247 4.65925 5.06651C4.37207 5.27938 3.52704 5.31138 3.17453 5.12272C2.81884 4.93236 1.73586 4.90146 1.67262 5.07987C1.64345 5.16216 1.73898 5.26739 1.8849 5.31371C2.03083 5.36003 2.23747 5.56663 2.34411 5.77283C2.60349 6.27443 3.46923 6.72162 3.81876 6.53456C3.95902 6.45949 4.07378 6.34954 4.07378 6.29022C4.07378 6.2309 4.2327 6.15022 4.42695 6.11093C4.62755 6.07034 4.83559 5.91229 4.90854 5.74507C4.99453 5.54791 5.20667 5.4116 5.55066 5.33245C6.14698 5.19523 6.24019 5.09288 6.15841 4.66508C6.07814 4.24516 6.38112 4.25296 6.75276 4.68038C7.07339 5.04914 7.26419 5.02927 8.11914 4.53813C8.77586 4.16087 9.53722 4.01522 9.78362 4.21972C10.0105 4.408 11.7553 4.17948 12.3571 3.88267C12.7063 3.71048 12.8448 3.7183 13.834 3.96595C14.4344 4.11627 15.0557 4.27143 15.2146 4.31076C15.6829 4.42666 15.5963 3.90821 15.1139 3.7084C14.5474 3.47376 14.1895 2.97846 14.3584 2.66294C14.5237 2.35402 15.0795 2.13153 15.4522 2.22507C15.606 2.26368 16.0827 2.76553 16.5115 3.34028C17.2859 4.37845 17.2897 4.38779 17.0927 4.76883C16.8279 5.28091 17.0156 5.46772 17.5285 5.20249C18.2324 4.8385 18.1815 4.03465 17.4299 3.64599C16.7438 3.2912 16.6032 2.5764 17.2515 2.73911C17.5748 2.82025 18.2331 2.52603 18.8793 2.01158C19.1221 1.81829 19.4317 1.72065 19.8425 1.70781C20.6676 1.68203 20.6405 1.69462 20.6405 1.3368C20.6405 1.11025 20.724 1.00038 20.9295 0.956582C22.2203 0.681376 22.8037 0.615113 23.2916 0.68828C23.7951 0.763776 23.912 0.729794 24.3543 0.379505C24.9174 -0.0664997 25.349 -0.113308 25.9444 0.207058C26.2477 0.370293 26.6749 0.429832 27.5754 0.434379C29.3419 0.443299 29.87 0.84615 28.8597 1.414C28.0067 1.89339 28.2155 2.12032 29.2553 1.84387C29.8633 1.68219 30.0337 1.68259 30.6038 1.84702C31.0765 1.98338 31.3747 2.00126 31.6861 1.91194C31.9979 1.82252 32.3227 1.84221 32.8684 1.98362C33.4396 2.13163 33.7356 2.14669 34.0977 2.04614C34.9238 1.81668 35.9402 1.88149 36.5299 2.20122C36.823 2.36014 37.3635 2.6542 37.7311 2.85468C38.3825 3.21005 38.4109 3.21398 38.8628 3.0114C39.2393 2.84257 39.4528 2.82781 40.0014 2.93269C40.7149 3.06911 41.3168 2.92314 41.3168 2.61371C41.3168 2.21292 41.6853 2.12431 42.7029 2.28043C43.2473 2.36395 43.8949 2.44848 44.1422 2.46828C44.3894 2.48807 44.8724 2.63063 45.2155 2.78507C45.7388 3.02061 46.1336 3.07396 47.6647 3.11602C49.1175 3.15592 49.5799 3.21405 49.9304 3.40083C50.2861 3.59042 50.6916 3.63864 52.0402 3.65179C53.2621 3.6637 53.8389 3.72361 54.1914 3.87522C54.4562 3.98915 54.6818 4.04198 54.6925 3.9926C54.7033 3.94323 54.719 3.81615 54.7276 3.7102C54.7397 3.55994 54.8978 3.52473 55.4465 3.55015C56.5208 3.59992 58.6494 3.97189 59.2962 4.22288C59.6141 4.34622 60.2199 4.48943 60.6424 4.54113C61.065 4.59282 61.6816 4.77237 62.0127 4.94013C62.5151 5.19475 62.6784 5.22288 63.0011 5.1104C63.4423 4.95659 63.7286 5.06735 64.4024 5.65263L64.8211 6.01629L64.5049 6.09565C64.3289 6.13982 63.887 6.0736 63.5083 5.94628C63.1341 5.82048 62.7412 5.70494 62.6353 5.68953C62.5293 5.67412 62.2466 5.59978 62.007 5.52433C61.5344 5.37556 61.351 5.42452 61.351 5.69943C61.351 5.79629 61.221 5.89402 61.0621 5.91659C60.5515 5.98911 60.7802 6.20454 61.8139 6.62483C62.9078 7.06958 63.1492 7.30608 62.5091 7.30608C61.9918 7.30608 61.6293 7.49835 61.2039 7.99838C60.8839 8.37456 60.8402 8.38868 60.4493 8.24222C60.1167 8.11755 59.9677 8.12085 59.6974 8.25885C59.5121 8.35352 59.1687 8.47227 58.9344 8.52276C58.7 8.57324 58.4757 8.69968 58.4357 8.80374C58.311 9.12875 58.6728 9.60384 59.2623 9.88921C59.6173 10.0611 59.8738 10.289 59.9502 10.5005C60.0172 10.686 60.1346 10.9606 60.211 11.1107C60.3096 11.3045 60.3102 11.4577 60.2128 11.6396C60.1375 11.7804 60.0953 11.9176 60.119 11.9446C60.1428 11.9715 60.2022 12.2685 60.251 12.6045C60.4158 13.7403 60.0221 13.5357 57.8874 11.3767C57.0095 10.4888 56.9071 10.2553 57.1026 9.58694C57.5644 8.00789 57.5568 8.06409 57.3585 7.70975C57.1814 7.39319 56.6114 7.15875 56.5895 7.39347C56.5253 8.08049 56.4142 8.17441 55.9736 7.91412C55.7751 7.79685 55.3736 7.66268 55.0815 7.61597C54.5889 7.5372 54.5408 7.55613 54.419 7.8764C54.3468 8.06636 54.2877 8.39028 54.2877 8.59624C54.2877 9.0798 53.8924 9.19407 53.2084 8.90828C52.8885 8.77459 52.5902 8.73415 52.3752 8.79529C52.191 8.84766 51.5681 8.89521 50.9911 8.90095C49.7053 8.91374 49.4345 9.11135 49.0802 10.2955C48.9486 10.735 48.8217 11.157 48.798 11.2333C48.7418 11.4145 49.6866 11.8379 50.1433 11.8362C50.339 11.8355 50.6156 11.7952 50.7579 11.7466C51.1064 11.6277 52.1692 12.4569 52.5004 13.106C52.6362 13.3724 52.8609 13.651 52.9995 13.7252C53.524 14.0059 53.6306 15.8479 53.1919 17.0521C52.8957 17.8652 52.5454 18.1574 52.079 17.98C51.7054 17.838 51.5974 17.8996 51.3166 18.4148C51.1737 18.6769 51.1411 18.8909 51.2144 19.0843C51.2999 19.3097 51.2548 19.4216 50.9965 19.6247C50.8174 19.7656 50.69 19.9675 50.7134 20.0733C50.7369 20.1792 51.0722 20.486 51.4587 20.7552C52.0961 21.1991 52.7466 21.9411 52.7466 22.2242C52.7466 22.3635 51.9703 22.8443 51.7442 22.8449C51.6521 22.8452 51.4393 22.5349 51.2714 22.1553C50.9515 21.4319 50.4375 20.9191 50.0324 20.9191C49.9006 20.9191 49.7856 20.8613 49.7768 20.7906C49.7679 20.72 49.7463 20.6044 49.7286 20.5338C49.711 20.4632 49.6893 20.3491 49.6805 20.2802C49.6716 20.2114 49.4866 20.0632 49.2693 19.9508C48.9105 19.7652 48.8462 19.7649 48.5675 19.9475C48.1016 20.2528 47.8857 20.1946 47.7657 19.7313C47.6129 19.1416 47.2749 19.1263 46.7622 19.6859C46.5292 19.9403 46.2737 20.1485 46.1946 20.1485C46.1154 20.1485 46.0691 20.2777 46.0917 20.4355C46.1503 20.8451 47.1706 21.3997 47.4941 21.1977C47.7327 21.0486 48.4626 21.126 48.5779 21.3125C48.613 21.3695 48.4441 21.5668 48.2024 21.7512C47.5713 22.2325 47.4911 22.6819 47.9694 23.0563C48.1763 23.2182 48.4172 23.5237 48.5048 23.7352C48.5924 23.9468 48.8649 24.273 49.1103 24.4602C49.4684 24.7333 49.5413 24.8616 49.4791 25.1093C49.4169 25.3573 49.4654 25.4423 49.7257 25.5412C49.9039 25.609 50.0497 25.7136 50.0497 25.7736C50.0497 25.8337 49.8876 26.4601 49.6895 27.1657C49.2305 28.8009 48.7941 29.3849 47.7461 29.7671C47.3387 29.9156 46.8495 30.0372 46.659 30.0372C46.2417 30.0372 45.7065 30.2989 45.3753 30.6648L45.1322 30.9334L44.8243 30.6012C44.5831 30.3409 44.4411 30.2868 44.1688 30.3515C43.6794 30.4677 43.2096 30.8326 43.001 31.2585C42.8435 31.58 42.8504 31.6728 43.061 32.0638C43.1919 32.3069 43.5511 32.7123 43.8592 32.9648C44.5039 33.4931 45.1034 34.5808 45.2355 35.4621C45.3182 36.0136 45.296 36.0879 44.9585 36.3898C44.7567 36.5703 44.3408 36.9515 44.0341 37.2371C43.4085 37.8197 43.179 37.8317 43.179 37.2819C43.179 36.98 43.1171 36.8996 42.8579 36.865C42.6813 36.8414 42.3013 36.5814 42.0135 36.2871C40.8134 35.0603 40.0595 34.7854 40.2184 35.6325C40.262 35.8649 40.2302 36.3232 40.1476 36.651C40.0121 37.1893 40.0235 37.282 40.2662 37.6103C40.414 37.8102 40.5714 38.119 40.6159 38.2965C40.661 38.4762 41.0305 38.8869 41.4495 39.2229C42.0919 39.7382 42.2406 39.9408 42.4658 40.6075C42.9284 41.9773 42.7851 42.2691 41.9519 41.6544ZM14.0817 21.7586C14.2815 21.6552 14.4809 21.4773 14.5247 21.3631C14.643 21.0548 14.4764 20.517 14.1356 20.1066C13.7546 19.6479 13.7574 19.5535 14.1551 19.4537C14.3317 19.4093 14.4761 19.3144 14.4761 19.2426C14.4761 18.9806 14.0553 18.479 13.8354 18.479C13.5042 18.479 12.4386 17.8523 12.2865 17.568C12.1966 17.4 12.1984 17.243 12.2921 17.0678C12.4359 16.7993 12.9601 16.602 13.1757 16.7353C13.379 16.8609 13.4731 16.5813 13.3225 16.2998C13.1167 15.9154 12.4676 15.6231 12.0322 15.7187C11.6211 15.809 10.4366 16.6987 10.3188 17.0056C10.2761 17.117 10.3534 17.296 10.4977 17.4195C10.6375 17.5392 10.7518 17.709 10.7518 17.7969C10.7518 17.8848 11.0038 18.2405 11.3118 18.5873C11.9355 19.2894 12.1129 19.765 11.8998 20.1631C11.6276 20.6718 11.8561 21.0174 12.7768 21.49C13.2523 21.7341 13.6587 21.9367 13.6799 21.9401C13.701 21.9436 13.8819 21.8619 14.0817 21.7586ZM53.8162 39.5653C53.7382 39.5164 53.5826 39.2558 53.4703 38.9862C53.3073 38.5947 53.2074 38.5042 52.9743 38.5367C52.7823 38.5635 52.6824 38.5114 52.6824 38.3848C52.6824 38.2482 52.799 38.201 53.0829 38.2224C53.3607 38.2435 53.5891 38.1549 53.828 37.9335C54.2649 37.5286 54.3538 37.533 54.5203 37.9674C54.8329 38.7826 54.8374 38.9131 54.556 38.9867C54.4084 39.0253 54.2877 39.1297 54.2877 39.2188C54.2877 39.4484 53.9847 39.6711 53.8162 39.5653ZM30.1732 39.3018C29.9361 39.1553 29.8972 37.8069 30.13 37.8069C30.3645 37.8069 30.7727 38.3682 30.8161 38.7501C30.855 39.0934 30.4284 39.4595 30.1732 39.3018ZM49.9212 37.7719C49.9212 37.7174 50.1021 37.4533 50.3233 37.185C50.8542 36.541 51.1328 36.7478 50.6272 37.4107C50.3101 37.8263 49.9212 38.0253 49.9212 37.7719ZM52.5552 37.4879C52.4605 37.3346 52.5807 37.1005 52.7542 37.1005C52.9104 37.1005 52.9114 37.4481 52.7555 37.5445C52.6897 37.5852 52.5996 37.5597 52.5552 37.4879ZM52.1243 36.5159C52.1487 36.39 52.2464 36.2612 52.3415 36.2295C52.452 36.1927 52.4983 36.2545 52.4699 36.4009C52.4455 36.5268 52.3478 36.6556 52.2527 36.6873C52.1422 36.7241 52.0959 36.6623 52.1243 36.5159ZM53.6712 36.3043C53.4628 36.0959 53.4771 35.9447 53.7052 35.9447C53.8087 35.9447 53.9552 36.0603 54.0308 36.2016C54.1364 36.3988 54.1285 36.4584 53.9968 36.4584C53.9025 36.4584 53.756 36.389 53.6712 36.3043ZM51.3688 34.6634C50.7352 33.9892 50.626 33.739 50.8131 33.3895C50.8877 33.2502 50.9486 32.9653 50.9486 32.7563C50.9486 32.0687 51.4295 32.1729 51.8294 32.9472C51.9393 33.1601 51.9284 33.3304 51.7826 33.6795C51.6026 34.1102 51.6083 34.1529 51.8901 34.4805C52.0777 34.6985 52.3262 34.8315 52.5619 34.8398C52.7871 34.8478 52.9509 34.9309 52.9735 35.0486C53.0024 35.1991 52.8846 35.2442 52.4628 35.2442C51.9788 35.2442 51.8508 35.1762 51.3688 34.6634ZM44.5667 32.0092C44.4744 31.7686 44.8319 31.4499 45.1941 31.4499C45.457 31.4499 45.4874 31.6096 45.2935 31.972C45.1311 32.2754 44.6778 32.2986 44.5667 32.0092ZM50.2369 29.5975C50.0506 29.3131 50.0506 29.2521 50.2373 28.8912C50.6265 28.1384 51.0554 28.5217 50.8165 29.4088C50.6608 29.9873 50.5219 30.0325 50.2369 29.5975ZM53.9345 24.1791C53.6044 23.6621 53.5739 23.4875 53.8136 23.4875C54.1273 23.4875 54.4233 23.8091 54.4519 24.1808C54.4923 24.7073 54.2714 24.7066 53.9345 24.1791ZM54.952 23.5313C55.0061 23.2503 55.3793 23.2105 55.3793 23.4858C55.3793 23.5908 55.2729 23.6971 55.1429 23.7222C54.9712 23.7552 54.9189 23.7029 54.952 23.5313ZM55.9451 23.0235C55.774 22.8173 55.0956 22.8283 54.3198 23.0497C53.9184 23.1643 53.9499 22.9048 54.384 22.5204C54.6349 22.2983 54.8335 22.2273 55.0698 22.2754C55.322 22.3267 55.5698 22.2175 56.0936 21.8239C57.0981 21.0691 57.1967 20.8189 56.7992 20.0343C56.5378 19.5185 56.5103 19.3767 56.6495 19.2612C56.9961 18.9735 57.9859 20.1178 57.8028 20.5947C57.7594 20.7078 57.8213 21.0552 57.9403 21.3667C58.1086 21.8076 58.1246 21.9929 58.0122 22.2028C57.853 22.5004 57.3914 22.717 56.9165 22.717C56.7398 22.717 56.5497 22.8265 56.4709 22.9738C56.3044 23.2848 56.1724 23.2973 55.9451 23.0235ZM4.07378 22.613C4.07378 22.5454 4.19266 22.459 4.33796 22.421C4.50601 22.3771 4.58392 22.4067 4.55206 22.5024C4.49056 22.6871 4.07378 22.7835 4.07378 22.613ZM55.8845 18.2983C55.8418 18.1283 55.8656 17.8796 55.9373 17.7456C56.0177 17.5953 56.0227 17.4308 55.9502 17.3163C55.8856 17.2141 55.8318 17.0872 55.8307 17.0342C55.8273 16.8641 56.1773 16.9315 56.3447 17.1332C56.4338 17.2406 56.757 17.3915 57.0629 17.4685C57.7924 17.6522 57.9603 17.856 57.6292 18.1557C57.4427 18.3244 57.2542 18.3654 56.9166 18.3106C56.5829 18.2565 56.438 18.2869 56.3862 18.4218C56.2742 18.7137 55.97 18.6388 55.8845 18.2983ZM55.1472 15.9379C55.033 15.8117 54.8556 15.5075 54.753 15.2619C54.6504 15.0163 54.3592 14.5141 54.106 14.146C53.8527 13.7778 53.6456 13.4427 53.6456 13.4011C53.6456 13.2852 54.6531 13.8778 54.8774 14.1256C55.0434 14.309 55.0486 14.3883 54.9096 14.6109C54.7608 14.8492 54.7935 14.9284 55.2218 15.3671C55.485 15.6366 55.7003 15.9269 55.7003 16.0122C55.7003 16.2425 55.3845 16.2001 55.1472 15.9379ZM52.8751 12.7351C52.6807 12.4879 52.6468 12.3693 52.76 12.3316C52.92 12.2782 53.3887 12.7549 53.3887 12.971C53.3887 13.1921 53.1475 13.0813 52.8751 12.7351Z" fill="#040506"/>
</svg>
