<svg width="59" height="59" viewBox="0 0 59 59" fill="none" xmlns="http://www.w3.org/2000/svg">
<path fill-rule="evenodd" clip-rule="evenodd" d="M29.5 0.750046C33.2755 0.750028 37.014 1.49365 40.5021 2.93847C43.9902 4.38328 47.1596 6.50098 49.8293 9.17066C52.499 11.8403 54.6167 15.0097 56.0616 18.4978C57.5064 21.986 58.25 25.7245 58.25 29.5C58.25 45.3782 45.3782 58.2501 29.5 58.2501C13.6219 58.2501 0.75 45.3782 0.75 29.5C0.75 13.6219 13.6219 0.750046 29.5 0.750046ZM32.375 32.3751H26.625C19.5074 32.3751 13.3967 36.6858 10.7611 42.8394C14.9313 48.687 21.7703 52.5 29.5 52.5C37.2296 52.5 44.0687 48.687 48.239 42.839C45.6034 36.6858 39.4927 32.3751 32.375 32.3751ZM29.5 9.37505C24.7365 9.37505 20.875 13.2366 20.875 18C20.875 22.7635 24.7365 26.625 29.5 26.625C34.2634 26.625 38.125 22.7635 38.125 18C38.125 13.2366 34.2635 9.37505 29.5 9.37505Z" fill="#565F70"/>
</svg>
