<svg width="24" height="25" viewBox="0 0 24 25" fill="none" xmlns="http://www.w3.org/2000/svg">
<path d="M11.9622 20.0369C9.93158 20.0369 8.16125 19.3735 6.65125 18.0469C5.14192 16.7209 4.26858 15.0509 4.03125 13.0369H5.04225C5.31425 14.7569 6.09792 16.1869 7.39325 17.3269C8.68858 18.4669 10.2116 19.0369 11.9622 19.0369C13.9122 19.0369 15.5662 18.3579 16.9242 16.9999C18.2822 15.6419 18.9616 13.9875 18.9622 12.0369C18.9629 10.0862 18.2836 8.43187 16.9242 7.07387C15.5649 5.71587 13.9109 5.03687 11.9622 5.03687C10.9269 5.03687 9.95425 5.25553 9.04425 5.69287C8.13425 6.12953 7.33092 6.7312 6.63425 7.49787H9.11525V8.49787H4.96225V4.34587H5.96225V6.73387C6.73558 5.8852 7.64158 5.22387 8.68025 4.74987C9.71892 4.27587 10.8129 4.0382 11.9622 4.03687C13.0709 4.03687 14.1102 4.24553 15.0802 4.66287C16.0503 5.0802 16.8976 5.65153 17.6222 6.37687C18.3469 7.1022 18.9183 7.94953 19.3363 8.91887C19.7543 9.8882 19.9629 10.9275 19.9622 12.0369C19.9616 13.1462 19.7529 14.1855 19.3363 15.1549C18.9196 16.1242 18.3482 16.9715 17.6222 17.6969C16.8962 18.4222 16.0489 18.9935 15.0802 19.4109C14.1116 19.8282 13.0722 20.0369 11.9622 20.0369ZM15.1663 15.8909L11.5192 12.2449V7.03687H12.5192V11.8289L15.8733 15.1829L15.1663 15.8909Z" fill="#27861D"/>
</svg>
