<svg width="24" height="24" viewBox="0 0 24 24" fill="none" xmlns="http://www.w3.org/2000/svg">
<circle cx="12" cy="12" r="12" fill="#FEFEFE"/>
<path d="M11.9772 18C11.7661 18.0005 11.5571 17.964 11.362 17.8927C11.167 17.8215 10.9898 17.7168 10.8407 17.5847L5.345 12.7244C4.91086 12.3363 4.56839 11.8757 4.33755 11.3693C4.10671 10.863 3.99211 10.3211 4.00042 9.7752C4.00461 9.27494 4.12034 8.78032 4.34101 8.31967C4.56168 7.85903 4.88294 7.44141 5.28639 7.09075C5.68983 6.74008 6.16755 6.46325 6.69216 6.27611C7.21677 6.08898 7.77797 5.99521 8.34362 6.00019C8.91939 5.99506 9.49047 6.09224 10.023 6.28597C10.5555 6.4797 11.0386 6.76603 11.4436 7.12798L11.9772 7.59985L12.4147 7.21291C13.1702 6.52707 14.1811 6.10661 15.2602 6.02939C16.3394 5.95217 17.4136 6.22344 18.2839 6.79294C18.7793 7.13036 19.1878 7.55725 19.482 8.04519C19.7763 8.53313 19.9497 9.07092 19.9906 9.62275C20.0315 10.1746 19.939 10.7278 19.7192 11.2455C19.4994 11.7632 19.1575 12.2336 18.7161 12.6253L13.1137 17.5847C12.9645 17.7168 12.7874 17.8215 12.5923 17.8927C12.3973 17.964 12.1882 18.0005 11.9772 18ZM8.32228 6.93923C7.47419 6.93846 6.65904 7.22953 6.0493 7.75085C5.73845 8.01536 5.49124 8.3327 5.32253 8.68381C5.15383 9.03493 5.06709 9.41257 5.06755 9.79407C5.06287 10.2137 5.15243 10.63 5.33103 11.0188C5.50963 11.4076 5.77372 11.7612 6.10799 12.0591L11.6037 16.9194C11.6533 16.9636 11.7123 16.9987 11.7773 17.0227C11.8423 17.0466 11.9121 17.059 11.9825 17.059C12.0529 17.059 12.1227 17.0466 12.1877 17.0227C12.2527 16.9987 12.3117 16.9636 12.3613 16.9194L17.9691 11.9553C18.2982 11.658 18.5526 11.3025 18.7153 10.9121C18.8781 10.5218 18.9456 10.1054 18.9135 9.69026C18.885 9.27091 18.7544 8.86196 18.5306 8.49139C18.3068 8.12082 17.9952 7.79739 17.6169 7.54323C16.9532 7.11047 16.1343 6.90584 15.3127 6.96748C14.4911 7.02912 13.7228 7.35281 13.151 7.87826L12.356 8.60023C12.3064 8.64446 12.2474 8.67956 12.1824 8.70352C12.1174 8.72747 12.0476 8.73981 11.9772 8.73981C11.9067 8.73981 11.837 8.72747 11.772 8.70352C11.707 8.67956 11.648 8.64446 11.5983 8.60023L10.6913 7.79804C10.0665 7.25032 9.22331 6.94185 8.34362 6.93923H8.32228Z" fill="#27861D"/>
</svg>
