<svg width="44" height="44" viewBox="0 0 44 44" fill="none" xmlns="http://www.w3.org/2000/svg">
<rect width="44" height="44" rx="22" fill="#FEFEFE"/>
<path d="M17.3988 29.1111V14.8635L18.3238 15.8781H14V14H19.5285V29.1111H17.3988Z" fill="black"/>
<path d="M23.4121 29.042L28.8912 20.9948H29.7739L24.2947 29.042H23.4121ZM24.054 25.3173C23.6872 25.3173 23.3624 25.2253 23.0796 25.0414C22.7969 24.8574 22.5753 24.6007 22.4148 24.2711C22.262 23.9416 22.1855 23.5584 22.1855 23.1215C22.1855 22.6847 22.262 22.3015 22.4148 21.9719C22.5753 21.6424 22.7969 21.3856 23.0796 21.2017C23.3624 21.0177 23.6872 20.9258 24.054 20.9258C24.4284 20.9258 24.7532 21.0177 25.0283 21.2017C25.311 21.3856 25.5288 21.6424 25.6817 21.9719C25.8345 22.3015 25.9109 22.6847 25.9109 23.1215C25.9109 23.5584 25.8345 23.9416 25.6817 24.2711C25.5288 24.6007 25.311 24.8574 25.0283 25.0414C24.7532 25.2253 24.4284 25.3173 24.054 25.3173ZM24.054 24.662C24.4055 24.662 24.6806 24.5279 24.8793 24.2596C25.078 23.9837 25.1773 23.6044 25.1773 23.1215C25.1773 22.6387 25.078 22.2632 24.8793 21.9949C24.6806 21.719 24.4055 21.5811 24.054 21.5811C23.7101 21.5811 23.435 21.719 23.2287 21.9949C23.03 22.2632 22.9306 22.6387 22.9306 23.1215C22.9306 23.5967 23.03 23.9722 23.2287 24.2481C23.435 24.524 23.7101 24.662 24.054 24.662ZM29.1319 29.111C28.7651 29.111 28.4404 29.019 28.1576 28.8351C27.8749 28.6511 27.6571 28.3944 27.5042 28.0648C27.3514 27.7353 27.275 27.3521 27.275 26.9152C27.275 26.4784 27.3514 26.0952 27.5042 25.7656C27.6571 25.4361 27.8749 25.1793 28.1576 24.9954C28.4404 24.8114 28.7651 24.7195 29.1319 24.7195C29.5064 24.7195 29.8312 24.8114 30.1063 24.9954C30.389 25.1793 30.6068 25.4361 30.7596 25.7656C30.9201 26.0952 31.0004 26.4784 31.0004 26.9152C31.0004 27.3521 30.9201 27.7353 30.7596 28.0648C30.6068 28.3944 30.389 28.6511 30.1063 28.8351C29.8312 29.019 29.5064 29.111 29.1319 29.111ZM29.1319 28.4557C29.4758 28.4557 29.7471 28.3216 29.9458 28.0533C30.1521 27.7774 30.2553 27.3981 30.2553 26.9152C30.2553 26.4401 30.1521 26.0645 29.9458 25.7886C29.7471 25.5127 29.4758 25.3748 29.1319 25.3748C28.7881 25.3748 28.513 25.5127 28.3066 25.7886C28.1079 26.0568 28.0086 26.4324 28.0086 26.9152C28.0086 27.3981 28.1079 27.7774 28.3066 28.0533C28.513 28.3216 28.7881 28.4557 29.1319 28.4557Z" fill="#040506"/>
</svg>
