<svg width="24" height="25" viewBox="0 0 24 25" fill="none" xmlns="http://www.w3.org/2000/svg">
<path d="M11.9999 21.971C10.0352 21.971 8.11453 21.3884 6.48089 20.2969C4.84725 19.2053 3.57398 17.6538 2.8221 15.8386C2.07022 14.0234 1.8735 12.026 2.2568 10.099C2.64011 8.172 3.58623 6.40193 4.97552 5.01263C6.36482 3.62334 8.13489 2.67722 10.0619 2.29391C11.9889 1.91061 13.9863 2.10733 15.8015 2.85921C17.6167 3.61109 19.1682 4.88436 20.2597 6.518C21.3513 8.15163 21.9339 10.0723 21.9339 12.037C21.931 14.6708 20.8835 17.1959 19.0211 19.0582C17.1587 20.9206 14.6337 21.9681 11.9999 21.971ZM11.9999 3.10303C10.2329 3.10303 8.50565 3.627 7.03646 4.60868C5.56727 5.59036 4.42218 6.98566 3.74598 8.61814C3.06979 10.2506 2.89287 12.0469 3.23759 13.78C3.58231 15.513 4.43319 17.1049 5.68263 18.3543C6.93207 19.6038 8.52396 20.4546 10.257 20.7994C11.99 21.1441 13.7863 20.9672 15.4188 20.291C17.0513 19.6148 18.4466 18.4697 19.4283 17.0005C20.41 15.5313 20.9339 13.804 20.9339 12.037C20.9313 9.6684 19.9892 7.39754 18.3143 5.72266C16.6394 4.04779 14.3686 3.10568 11.9999 3.10303Z" fill="#27861D"/>
<path d="M14.5 13.5373C14.4984 14.0673 14.2872 14.5751 13.9125 14.9498C13.5377 15.3245 13.0299 15.5358 12.5 15.5373V16.5473C12.5 16.68 12.4473 16.8071 12.3536 16.9009C12.2598 16.9947 12.1326 17.0473 12 17.0473C11.8674 17.0473 11.7402 16.9947 11.6464 16.9009C11.5527 16.8071 11.5 16.68 11.5 16.5473V15.5373H10.25C10.1174 15.5373 9.99021 15.4847 9.89645 15.3909C9.80268 15.2971 9.75 15.17 9.75 15.0373C9.75 14.9047 9.80268 14.7776 9.89645 14.6838C9.99021 14.59 10.1174 14.5373 10.25 14.5373H12.5C12.7652 14.5373 13.0196 14.432 13.2071 14.2445C13.3946 14.0569 13.5 13.8026 13.5 13.5373C13.5 13.2721 13.3946 13.0178 13.2071 12.8302C13.0196 12.6427 12.7652 12.5373 12.5 12.5373H11.5C10.9696 12.5373 10.4609 12.3266 10.0858 11.9516C9.71071 11.5765 9.5 11.0678 9.5 10.5373C9.5 10.0069 9.71071 9.4982 10.0858 9.12313C10.4609 8.74806 10.9696 8.53734 11.5 8.53734V7.52734C11.5 7.39474 11.5527 7.26756 11.6464 7.17379C11.7402 7.08002 11.8674 7.02734 12 7.02734C12.1326 7.02734 12.2598 7.08002 12.3536 7.17379C12.4473 7.26756 12.5 7.39474 12.5 7.52734V8.53734H13.75C13.8826 8.53734 14.0098 8.59002 14.1036 8.68379C14.1973 8.77756 14.25 8.90474 14.25 9.03734C14.25 9.16995 14.1973 9.29713 14.1036 9.3909C14.0098 9.48467 13.8826 9.53734 13.75 9.53734H11.5C11.2348 9.53734 10.9804 9.6427 10.7929 9.83024C10.6054 10.0178 10.5 10.2721 10.5 10.5373C10.5 10.8026 10.6054 11.0569 10.7929 11.2445C10.9804 11.432 11.2348 11.5373 11.5 11.5373H12.5C13.0299 11.5389 13.5377 11.7501 13.9125 12.1249C14.2872 12.4996 14.4984 13.0074 14.5 13.5373Z" fill="#27861D"/>
</svg>
