<svg width="65" height="64" viewBox="0 0 65 64" fill="none" xmlns="http://www.w3.org/2000/svg">
<rect x="0.5" width="64" height="64" rx="32" fill="#ECF1F5"/>
<g clip-path="url(#clip0_582_9044)">
<path d="M45.4128 40.9378C44.9288 42.0558 44.356 43.0848 43.6923 44.031C42.7877 45.3208 42.0469 46.2137 41.4761 46.7094C40.5912 47.5233 39.6431 47.9401 38.6278 47.9637C37.8989 47.9637 37.0199 47.7563 35.9968 47.3356C34.9703 46.9168 34.0269 46.7094 33.1643 46.7094C32.2596 46.7094 31.2894 46.9168 30.2516 47.3356C29.2123 47.7563 28.3749 47.9756 27.7348 47.9973C26.7611 48.0388 25.7907 47.6101 24.8221 46.7094C24.2038 46.1701 23.4305 45.2458 22.5041 43.9361C21.5101 42.5377 20.693 40.916 20.0527 39.0671C19.3672 37.0701 19.0234 35.1364 19.0234 33.2643C19.0234 31.1197 19.4868 29.2701 20.415 27.7201C21.1445 26.4751 22.1149 25.4931 23.3294 24.7721C24.5439 24.0511 25.8564 23.6837 27.2696 23.6602C28.0429 23.6602 29.0571 23.8994 30.3173 24.3695C31.5739 24.8412 32.3808 25.0804 32.7346 25.0804C32.9991 25.0804 33.8954 24.8008 35.415 24.2431C36.852 23.726 38.0648 23.5119 39.0583 23.5963C41.7506 23.8136 43.7732 24.8748 45.1184 26.7869C42.7106 28.2458 41.5195 30.2892 41.5432 32.9106C41.5649 34.9524 42.3056 36.6515 43.7614 38.0006C44.4211 38.6268 45.1579 39.1107 45.9776 39.4543C45.7998 39.9698 45.6122 40.4636 45.4127 40.9378H45.4128ZM39.2381 16.6402C39.2381 18.2406 38.6534 19.7348 37.4881 21.1179C36.0817 22.7621 34.3806 23.7121 32.5359 23.5623C32.5112 23.361 32.4988 23.1585 32.4988 22.9558C32.4988 21.4194 33.1676 19.7753 34.3553 18.4309C34.9483 17.7503 35.7024 17.1843 36.617 16.7328C37.5296 16.2881 38.3928 16.0421 39.2046 16C39.2283 16.2139 39.2382 16.4279 39.2382 16.6401L39.2381 16.6402Z" fill="#040506"/>
</g>
<defs>
<clipPath id="clip0_582_9044">
<rect width="32" height="32" fill="white" transform="translate(16.5 16)"/>
</clipPath>
</defs>
</svg>
