<svg width="70" height="68" viewBox="0 0 70 68" fill="none" xmlns="http://www.w3.org/2000/svg">
<rect width="70" height="68" rx="34" fill="#FEFEFE"/>
<path d="M49.18 34L41.7071 26.5271C41.0771 25.8971 40 26.3433 40 27.2342V28.8798C40 29.3744 39.6385 29.7946 39.1495 29.8686L38.28 30C31.1384 31.0108 25.9049 34.2867 22.4205 39.3159C21.8324 40.1647 22.8788 41.1447 23.8069 40.6921C27.7981 38.7455 32.4921 37.8 38 37.8H39C39.5523 37.8 40 38.2477 40 38.8V43.18M36 39.84C28.8551 40.1757 23.3326 42.2998 19.0241 46.4675C18.2498 47.2165 16.8487 46.5238 17.1917 45.5025C19.9235 37.3691 25.8146 30.0637 37.1389 28.1347C37.6295 28.0512 38 27.6304 38 27.1327V22.4142C38 21.5233 39.0771 21.0771 39.7071 21.7071L51.2929 33.2929C51.6834 33.6834 51.6834 34.3166 51.2929 34.7071L39.7071 46.2929C39.0771 46.9229 38 46.4767 38 45.5858V40.8C38 40.2477 37.5522 39.8002 37.0001 39.8127C36.67 39.8201 36.3375 39.8301 36 39.84Z" fill="#27861D"/>
</svg>
