<svg width="15" height="12" viewBox="0 0 15 12" fill="none" xmlns="http://www.w3.org/2000/svg">
<path d="M7.23282 0.249994C4.94812 0.448224 3.00576 2.26279 2.28027 4.87464C2.09224 5.55428 2 6.24046 2 6.96803C2 7.68907 2.06386 8.23583 2.23237 8.93944C2.27849 9.12896 2.44878 9.6583 2.51619 9.82603L2.56763 9.95238H2.44169C2.32639 9.95238 2.3122 9.95673 2.2643 10.0155C2.20044 10.094 2.19867 10.168 2.25898 10.2552L2.3051 10.3227H2.69357H3.08381L3.12639 10.2682C3.19379 10.1876 3.18315 10.1049 3.08204 9.88703C2.77694 9.23352 2.58182 8.49506 2.502 7.69778C2.46475 7.31003 2.46475 6.60643 2.50377 6.23829C2.64922 4.87681 3.14767 3.64169 3.94945 2.65272C4.5898 1.86415 5.43592 1.26946 6.30155 0.999347C7.88381 0.504861 9.49623 0.923104 10.7663 2.15605C11.0341 2.41745 11.5078 3.00997 11.6922 3.31276C12.2652 4.26252 12.6182 5.38437 12.6962 6.49969C12.7512 7.30786 12.6732 8.08335 12.455 8.88934C12.4106 9.05489 12.3681 9.19431 12.361 9.20084C12.3503 9.20738 11.9051 8.66933 11.6142 8.29901C11.5805 8.25544 11.4208 8.0485 11.2594 7.84155L10.9667 7.4647L10.8851 7.47559L10.8035 7.48866L10.6084 7.2229C10.5002 7.07695 10.3282 6.8504 10.2271 6.72188L10.0443 6.48444L9.95565 6.52801C9.90599 6.55197 9.82084 6.59771 9.76585 6.62821L9.66475 6.68267L9.20532 6.09016C8.95344 5.7634 8.69446 5.43012 8.6306 5.34734C8.56497 5.2602 8.5082 5.20357 8.49579 5.21228C8.47805 5.22535 8.10022 5.82004 7.88914 6.16858L7.81109 6.2971L7.71353 6.28403L7.61419 6.27096L7.47938 6.48226C7.40665 6.59989 7.24169 6.85694 7.11574 7.05299L6.88692 7.40806L6.78049 7.39717L6.67406 7.38628L6.40443 7.8067L6.13481 8.22712L6.13304 8.63883C6.13304 8.8632 6.13126 9.05489 6.13304 9.06579C6.13304 9.0745 6.21818 8.96123 6.32284 8.81528C6.42749 8.66715 6.63858 8.37525 6.78936 8.16395C6.94013 7.95483 7.12106 7.69778 7.18847 7.59322C7.25765 7.49084 7.31796 7.40588 7.32683 7.40588C7.33392 7.4037 7.33925 7.42549 7.33925 7.45163C7.33925 7.47995 7.34989 7.54094 7.36231 7.59104L7.38359 7.68035L7.55211 7.38628C7.64435 7.2229 7.72949 7.08784 7.74013 7.08349C7.749 7.07913 7.82882 7.12923 7.91397 7.19676C8.00089 7.26211 8.07539 7.31657 8.08248 7.31657C8.08781 7.31657 8.16585 7.05517 8.25277 6.73495C8.4 6.1969 8.48692 5.92025 8.49047 5.97906C8.49224 5.99213 8.5082 6.09451 8.52772 6.20779C8.54545 6.32106 8.58625 6.59336 8.61641 6.81555L8.67317 7.21854L7.9388 8.10731L7.20621 8.99608L7.33925 8.92202C7.41197 8.87845 7.63548 8.75646 7.83592 8.64754C8.61109 8.22712 8.61286 8.22712 8.65366 8.13345C8.698 8.03325 8.89845 7.66511 8.90909 7.66511C8.91264 7.66511 8.98004 7.76531 9.05809 7.8873C9.21951 8.13999 9.21951 8.13127 9.17517 8.4602C9.16098 8.56694 9.14856 8.66715 9.14856 8.67804C9.14856 8.69111 9.21774 8.80438 9.30466 8.93073C9.43415 9.12242 10.4169 10.5362 10.5659 10.7453C10.596 10.7867 10.5729 10.7714 10.5038 10.7017C10.4435 10.6429 10.2732 10.4774 10.1242 10.3336C9.97517 10.1898 9.74457 9.96327 9.61153 9.83257C8.82217 9.04618 8.43193 8.66715 8.41419 8.66715C8.39645 8.66715 8.40355 9.29887 8.42129 9.46225C8.43193 9.54502 8.45499 9.69097 8.47627 9.78682C8.49579 9.88049 8.5082 9.96109 8.50466 9.96545C8.50111 9.9698 8.43193 9.87613 8.35211 9.75632C8.27051 9.63651 8.19956 9.53849 8.19246 9.53849C8.18714 9.53849 8.102 9.65176 8.00443 9.79118L7.82705 10.0417L7.73126 9.68226C7.67805 9.48403 7.62838 9.32065 7.61951 9.32065C7.61242 9.32065 7.54324 9.38818 7.46874 9.46878C7.2612 9.69097 6.71131 10.2704 6.34767 10.6473L6.02483 10.9827L6.21996 11.0328C6.78936 11.1723 7.31264 11.4358 7.79335 11.8214L8.00443 11.9891L9.57428 11.987C11.6568 11.9826 11.5273 11.9848 11.5149 11.9456C11.506 11.9194 11.4723 11.9129 11.3659 11.9129C11.2328 11.9129 11.2239 11.9107 11.1636 11.8388C11.0767 11.7408 11.0749 11.6384 11.1583 11.5317C11.2027 11.4729 11.2364 11.4511 11.3109 11.4337C11.3694 11.4206 12.0027 11.4119 12.9552 11.4119H14.5038L14.5481 11.3618C14.5978 11.3095 14.6084 11.2572 14.5889 11.1679C14.5605 11.0372 14.6013 11.0416 13.106 11.0416H11.7384L11.8678 10.839C11.937 10.7279 12.0328 10.571 12.0772 10.4926L12.1605 10.351L12.5118 10.3358C12.8612 10.3205 12.8647 10.3205 12.9126 10.2639C12.9747 10.192 12.9765 10.107 12.9197 10.0243C12.8807 9.9698 12.8647 9.96327 12.7353 9.95673L12.5933 9.94802L12.6732 9.74761C12.9126 9.15292 13.0812 8.42971 13.1503 7.68689C13.1911 7.24686 13.1769 6.3777 13.1237 5.99213C12.8701 4.17756 12.1002 2.64836 10.8869 1.55047C10.1348 0.873003 9.21419 0.428618 8.27051 0.291383C8.04346 0.258707 7.42439 0.232567 7.23282 0.249994ZM9.4306 6.92882C9.51929 7.02249 9.59911 7.09873 9.60798 7.09873C9.61685 7.09873 9.70909 7.04863 9.81197 6.98764C9.91663 6.92664 10.0053 6.87872 10.0089 6.88308C10.0177 6.89615 10.071 7.42113 10.071 7.50609C10.071 7.60193 10.0603 7.58451 10.5623 8.33604C11.1991 9.29016 11.4102 9.61255 11.4279 9.64741C11.467 9.73018 10.4577 8.58873 9.78182 7.78492C9.49268 7.44291 9.35787 7.26865 9.31353 7.17498C9.23016 7.00289 9.04213 6.56504 9.04213 6.54543C9.04213 6.53018 9.0918 6.57811 9.4306 6.92882Z" fill="#27861D"/>
<path d="M7.40317 1.44805C7.35883 1.50033 7.36947 1.51993 7.43687 1.50686C7.49009 1.49597 7.50073 1.5025 7.51847 1.55261C7.54685 1.62667 7.58765 1.62667 7.58765 1.55261C7.58765 1.49815 7.5912 1.49597 7.6586 1.50686C7.70827 1.5134 7.72956 1.50904 7.72956 1.49161C7.72956 1.44805 7.69053 1.41319 7.64087 1.41319C7.61603 1.41319 7.58588 1.42408 7.57346 1.43933C7.5575 1.45894 7.54685 1.45894 7.53089 1.43933C7.50073 1.4023 7.4351 1.40666 7.40317 1.44805Z" fill="#27861D"/>
<path d="M6.98466 1.58746C6.96337 1.6136 6.94031 1.65717 6.93144 1.68549C6.92257 1.71598 6.89951 1.73995 6.88178 1.73995C6.80727 1.73995 6.73809 1.78787 6.71149 1.85976C6.69552 1.89897 6.68311 1.94253 6.68311 1.9556C6.68311 1.99481 6.75406 1.98392 6.80195 1.936C6.86581 1.875 6.92612 1.88154 6.99707 1.95778C7.029 1.99264 7.06803 2.02313 7.08222 2.02313C7.12302 2.02313 7.11415 1.94689 7.06448 1.875C7.03965 1.83797 7.02013 1.79658 7.02013 1.78134C7.02191 1.72252 7.07335 1.66806 7.13898 1.65499L7.20639 1.64192L7.16559 1.59182C7.11592 1.53082 7.03255 1.52865 6.98466 1.58746Z" fill="#27861D"/>
<path d="M5.71827 2.72242C5.64909 2.74638 5.58878 2.82044 5.56572 2.90758L5.54443 2.98164H5.2819C5.03179 2.98164 5.01583 2.98382 4.98035 3.02956C4.93778 3.0862 4.93601 3.12977 4.97326 3.19512L4.99986 3.24304H5.82115H6.64244L6.67969 3.19294C6.72758 3.12977 6.72935 3.08184 6.68323 3.02521C6.64953 2.98382 6.6247 2.98164 6.32847 2.98164C6.03933 2.98164 6.0074 2.97728 5.99853 2.94243C5.95596 2.76816 5.84066 2.67885 5.71827 2.72242Z" fill="#27861D"/>
<path d="M10.4435 2.98162C10.1561 3.05568 9.84037 3.38897 9.73572 3.73315C9.62219 4.10347 9.6488 4.53042 9.8049 4.855C10.1987 5.68059 11.1725 5.68495 11.5787 4.86371C11.6727 4.67202 11.7082 4.52389 11.7171 4.27774C11.7313 3.83553 11.5858 3.45868 11.2985 3.19945C11.1069 3.02518 10.988 2.97726 10.7362 2.96855C10.6191 2.96419 10.4878 2.97072 10.4435 2.98162ZM10.8745 3.21034C11.0129 3.25391 11.1282 3.33015 11.224 3.43907L11.3038 3.52838L11.2222 3.46303C11.1033 3.36718 10.9437 3.30837 10.8124 3.31055C10.7326 3.31055 10.7131 3.31708 10.745 3.32797C10.8905 3.38243 11.0661 3.57849 11.1424 3.77236C11.2417 4.02069 11.2453 4.3518 11.1495 4.58053C11.0501 4.81797 10.8089 5.02273 10.5943 5.05105L10.4878 5.06412L10.5818 5.09026C10.7752 5.14472 10.9898 5.11422 11.1619 5.00748L11.2683 4.94213L11.2062 5.00966C11.1725 5.04452 11.098 5.10333 11.043 5.13601C10.5499 5.44098 9.95922 5.05323 9.8723 4.36923C9.78184 3.65037 10.3158 3.03172 10.8745 3.21034Z" fill="#27861D"/>
<path d="M5.78925 3.50224C5.74313 3.56324 5.76796 3.62859 5.84601 3.65691C5.89035 3.67433 6.11918 3.67869 6.52539 3.67433C7.17993 3.6678 7.19767 3.66344 7.19767 3.56106C7.19767 3.46085 7.19235 3.46085 6.48814 3.46085C5.84956 3.46085 5.81763 3.46303 5.78925 3.50224Z" fill="#27861D"/>
<path d="M4.52807 4.03594C4.41455 4.06862 4.35779 4.11654 4.29748 4.22328C4.24781 4.31042 4.24426 4.3823 4.28151 4.54132C4.28861 4.57835 4.27619 4.59796 4.21233 4.6437C4.16976 4.6742 4.12364 4.71777 4.10945 4.73737C4.08639 4.77223 4.08994 4.7744 4.1467 4.76133C4.1804 4.7548 4.23362 4.74173 4.262 4.73519C4.31167 4.72212 4.31876 4.72648 4.34182 4.8049C4.35601 4.85065 4.3702 4.89421 4.37375 4.90075C4.37552 4.90728 4.33295 4.90946 4.27974 4.90293C4.18927 4.89421 4.17508 4.89857 4.12896 4.95303L4.07752 5.01185L4.05978 4.92471C4.03495 4.81797 3.94271 4.71123 3.85047 4.68727C3.81322 4.67856 3.70324 4.66984 3.60568 4.67202C3.38572 4.67202 3.25091 4.72866 3.17464 4.84847C3.13207 4.91818 3.12674 4.95085 3.11965 5.12076C3.1161 5.24057 3.1232 5.3386 3.13561 5.37781C3.15335 5.43009 3.15335 5.44969 3.13561 5.47583C3.12497 5.49326 3.11965 5.51722 3.12674 5.53247C3.13561 5.54554 3.11788 5.57822 3.08949 5.60654L3.03805 5.65664V6.09449C3.03805 6.53016 3.03805 6.53234 3.07708 6.53234C3.10901 6.53234 3.1161 6.52144 3.11433 6.46045C3.11255 6.42342 3.11433 6.284 3.11433 6.15112C3.11788 5.90715 3.13561 5.87012 3.16754 6.04656C3.18173 6.11845 3.17996 6.14023 3.16045 6.14894C3.14093 6.15766 3.13561 6.22083 3.13561 6.42124V6.68264L3.08772 6.71096C3.04337 6.7371 3.03805 6.75235 3.03628 6.85255C3.0345 6.93097 3.02386 6.98108 2.99548 7.02246C2.95113 7.09435 2.94936 7.12049 2.98484 7.17713C3.00967 7.21634 3.00967 7.21416 3.01144 7.14881C3.01144 7.11178 3.02031 7.07257 3.02918 7.06603C3.04692 7.05296 3.05224 7.15317 3.05579 7.45814C3.05579 7.63022 3.08595 7.64329 3.10901 7.4821L3.12674 7.3514L3.16045 7.44289C3.17819 7.49299 3.20834 7.54963 3.22608 7.56923C3.25623 7.60191 3.25978 7.64329 3.25978 7.95262C3.25978 8.28155 3.26156 8.2968 3.29526 8.2968C3.32896 8.2968 3.33074 8.28155 3.33074 7.97005C3.33074 7.68251 3.33428 7.64329 3.35912 7.64329C3.38395 7.64329 3.3875 7.6629 3.3804 7.7631C3.37508 7.85242 3.37863 7.88509 3.39814 7.89381C3.43184 7.90905 3.48506 7.87202 3.45668 7.85242C3.44603 7.8437 3.43717 7.79796 3.43717 7.74786C3.43717 7.67379 3.44249 7.6629 3.46909 7.67597C3.48506 7.68468 3.54182 7.69558 3.59326 7.70211L3.6855 7.71518V7.85895C3.6855 7.94391 3.67663 8.01579 3.66422 8.03104C3.64825 8.05065 3.64825 8.06372 3.66422 8.08332C3.67663 8.09857 3.6855 8.14432 3.6855 8.1857C3.6855 8.2968 3.70324 8.36215 3.73162 8.36215C3.75113 8.36215 3.75646 8.30116 3.75646 8.05065L3.75823 7.74132L3.79725 7.86113C3.8345 7.9744 3.83628 8.00926 3.83096 8.4275C3.82741 8.75861 3.81854 8.90238 3.79725 8.9808C3.77597 9.0614 3.77419 9.09626 3.79016 9.13982C3.80612 9.18339 3.80258 9.21171 3.77242 9.29449C3.75291 9.35112 3.73517 9.42954 3.73517 9.47093C3.73517 9.51232 3.72453 9.56678 3.71211 9.59074C3.68018 9.65391 3.64116 10.3488 3.66776 10.4076C3.67663 10.4316 3.6855 10.473 3.6855 10.5013C3.6855 10.5296 3.69437 10.5645 3.70679 10.5797C3.72275 10.5993 3.71921 10.6146 3.69615 10.6472C3.67486 10.6756 3.66776 10.717 3.67131 10.7823C3.67486 10.8346 3.66954 10.9871 3.66244 11.1199L3.64825 11.3617L3.44958 11.4206C3.20657 11.4946 2.85889 11.6319 2.65668 11.7321C2.50235 11.8105 2.23096 11.976 2.23096 11.9913C2.23096 11.9956 3.43717 12 4.90945 12C6.38351 11.9978 7.58794 11.9913 7.58794 11.9826C7.58794 11.9564 7.17819 11.7081 6.97597 11.6101C6.61056 11.4336 6.22918 11.3095 5.83184 11.2376C5.70058 11.2136 5.58528 11.194 5.57641 11.194C5.56754 11.194 5.56577 11.1199 5.57109 11.0241C5.57819 10.9326 5.61898 10.327 5.66156 9.68005C5.7059 9.03308 5.7538 8.30334 5.76976 8.05718C5.80169 7.54527 5.80524 7.51259 5.84071 7.51259C5.8549 7.51259 5.86732 7.49299 5.86732 7.46903C5.86732 7.44507 5.8549 7.42546 5.84071 7.42546C5.81943 7.42546 5.81765 7.40368 5.82475 7.3209C5.84071 7.14663 5.84958 7.12049 5.89393 7.09435C5.94714 7.06603 5.95601 7.03553 5.96133 6.86344C5.96488 6.75017 5.9702 6.72839 5.99858 6.72403C6.04648 6.71532 6.05357 6.67175 6.00923 6.6565C5.97907 6.64779 5.97375 6.62818 5.97375 6.53669C5.97375 6.44302 5.96666 6.41906 5.92763 6.38203C5.87264 6.32975 5.82297 6.32539 5.76089 6.36896C5.73606 6.38639 5.69881 6.39946 5.67752 6.40163C5.61898 6.40163 5.62785 6.44956 5.69881 6.5062C5.77331 6.56501 5.77863 6.626 5.71654 6.71314C5.68284 6.75888 5.66156 6.77195 5.6314 6.76106C5.57109 6.7371 5.35468 6.5563 5.33517 6.50837C5.32453 6.48659 5.29437 6.45391 5.26599 6.43649C5.19326 6.38856 5.11876 6.25786 5.09393 6.13152C5.08151 6.07052 5.06377 5.98993 5.05313 5.95507C5.04426 5.91804 5.02297 5.80912 5.00878 5.70892C4.98218 5.5194 4.92009 5.38216 4.85446 5.36256C4.82963 5.35385 4.82431 5.33642 4.83317 5.29067C4.84027 5.24057 4.83317 5.22315 4.79592 5.19265C4.76045 5.16433 4.7498 5.13601 4.7498 5.08155V5.00531L4.84382 5.01185L4.93606 5.01838L4.95202 4.87025C4.96266 4.77223 4.97686 4.7243 4.99282 4.7243C5.02652 4.7243 5.0212 4.69816 4.97153 4.59142C4.9467 4.53914 4.92719 4.48468 4.92719 4.47379C4.92719 4.46072 4.96799 4.42151 5.01765 4.38666C5.10812 4.32131 5.17375 4.23417 5.15069 4.20803C5.14537 4.2015 5.08329 4.20803 5.01411 4.22328C4.89526 4.2516 4.88639 4.2516 4.86865 4.21021C4.85801 4.18843 4.82076 4.13179 4.78528 4.08605C4.71255 3.99673 4.67885 3.9902 4.52807 4.03594ZM5.89215 6.51491C5.91167 6.63254 5.91521 6.68482 5.90102 6.68482C5.87974 6.68482 5.862 6.64125 5.84958 6.54976C5.83894 6.48659 5.84249 6.46698 5.86023 6.46698C5.87442 6.46698 5.88861 6.48877 5.89215 6.51491ZM4.92364 6.71967C4.93606 6.74799 4.96621 6.78502 4.99105 6.79809C5.01765 6.81334 5.062 6.85473 5.09038 6.88741C5.12941 6.93533 5.15246 6.9484 5.18972 6.93969C5.21632 6.93315 5.31921 6.9484 5.42031 6.97454L5.60302 7.02029L5.59238 7.16406C5.58528 7.24248 5.57641 7.32308 5.57286 7.34268C5.56577 7.37318 5.57464 7.38189 5.61189 7.38189C5.65801 7.38189 5.65978 7.37971 5.64914 7.27515C5.63495 7.12703 5.64914 7.07257 5.69171 7.10088C5.72009 7.11831 5.72541 7.14663 5.72541 7.2599C5.72541 7.35575 5.71654 7.40585 5.69881 7.42546C5.6651 7.46031 5.6651 7.52566 5.69703 7.54091C5.71654 7.54963 5.72187 7.5823 5.71477 7.66944C5.71122 7.73261 5.69526 7.97005 5.68107 8.19877C5.66688 8.42532 5.6385 8.85664 5.61898 9.15725C5.59947 9.45568 5.56754 9.95671 5.54803 10.2682C5.52852 10.5797 5.50723 10.9108 5.50191 11.0023L5.49127 11.1722H5.4079C5.36355 11.1722 5.29615 11.1657 5.26067 11.1592C5.20036 11.1461 5.19326 11.1374 5.19326 11.0829C5.19326 10.9914 5.13473 10.937 5.01765 10.9217C4.90235 10.9065 4.87042 10.889 4.78528 10.7997C4.72674 10.7387 4.72497 10.7322 4.75513 10.7039C4.78528 10.6777 4.78528 10.6734 4.7498 10.6429C4.7161 10.6146 4.71433 10.6037 4.73561 10.5645C4.75335 10.5274 4.75335 10.51 4.73561 10.4752C4.70901 10.4229 4.70723 10.3662 4.73207 10.3662C4.74271 10.3662 4.7498 10.3314 4.74626 10.2878C4.74448 10.2464 4.7498 10.205 4.76045 10.1963C4.76932 10.1876 4.79592 10.1223 4.81898 10.0504C4.84204 9.97849 4.9059 9.8064 4.95912 9.66916C5.01411 9.53193 5.05668 9.40558 5.05313 9.39033C5.05136 9.37509 5.06377 9.34459 5.08329 9.32498C5.10102 9.30538 5.13118 9.22914 5.14714 9.15943C5.17907 9.03308 5.17907 9.02655 5.14182 8.88713C5.12231 8.80871 5.08861 8.62138 5.06732 8.47107C5.04603 8.32076 4.99814 8.0855 4.96266 7.94609C4.91654 7.7631 4.90235 7.68468 4.91654 7.66072C4.92896 7.63676 4.92364 7.5823 4.89703 7.47774L4.86156 7.32743L4.90235 7.26644C4.96799 7.17059 4.96089 7.04643 4.88639 6.95929C4.83317 6.89612 4.82963 6.88741 4.85091 6.8373C4.8651 6.80681 4.87042 6.75235 4.8651 6.71314C4.85623 6.6565 4.85978 6.64561 4.87929 6.65432C4.89348 6.66086 4.913 6.68918 4.92364 6.71967ZM3.13561 6.80245C3.13561 6.81988 3.14093 6.8482 3.14626 6.8678C3.15335 6.89176 3.14626 6.90266 3.12142 6.90266C3.07885 6.90266 3.06289 6.86344 3.08595 6.80899C3.10546 6.76324 3.13561 6.75888 3.13561 6.80245ZM4.51921 8.74554C4.54759 8.82614 4.57242 8.90456 4.57242 8.91981C4.57242 8.93724 4.58661 8.96773 4.60612 8.9917C4.6416 9.03526 4.64337 9.1725 4.60967 9.24656C4.57419 9.32716 4.4518 9.74758 4.43051 9.86521C4.4181 9.93057 4.38794 10.0329 4.36311 10.0939C4.32408 10.1898 4.32054 10.2181 4.33118 10.3684C4.34182 10.534 4.34182 10.5361 4.29748 10.5492C4.25136 10.5645 4.24071 10.6037 4.27087 10.6407C4.28506 10.6581 4.28329 10.6843 4.27087 10.7257C4.26023 10.7605 4.24603 10.8651 4.24071 10.9587C4.23539 11.0524 4.22475 11.1287 4.21588 11.1287C4.19637 11.1287 4.13251 11.0132 4.09348 10.9021C4.06333 10.8215 4.06156 10.7954 4.07752 10.7496C4.09348 10.7061 4.09348 10.6865 4.07575 10.6603C4.05623 10.632 4.05801 10.6146 4.08462 10.5514C4.113 10.4904 4.11477 10.4686 4.09703 10.4185C4.07929 10.3728 4.07929 10.2965 4.10235 10.0308C4.13251 9.67134 4.17686 9.51232 4.262 9.44261C4.30102 9.41212 4.30635 9.39033 4.30635 9.28577C4.30635 9.203 4.32941 9.07229 4.37907 8.88278C4.4181 8.72811 4.45357 8.60177 4.45889 8.60177C4.46244 8.60177 4.48905 8.66712 4.51921 8.74554Z" fill="#27861D"/>
<path d="M6.89091 4.31476C6.87495 4.33 6.85544 4.36704 6.84657 4.39535C6.8377 4.42803 6.80754 4.45635 6.77029 4.4716C6.69579 4.49992 6.62484 4.63933 6.66209 4.68507C6.67805 4.70468 6.69402 4.69815 6.73304 4.6524C6.79513 4.57834 6.8377 4.57834 6.89801 4.65022C6.9459 4.70686 6.98493 4.70468 6.98493 4.64804C6.98493 4.63062 6.96719 4.59794 6.9459 4.5718C6.91397 4.53477 6.91042 4.51734 6.92462 4.46724C6.93348 4.43456 6.96364 4.39535 6.99025 4.38011C7.03105 4.35614 7.03637 4.34525 7.01863 4.31911C6.9938 4.28208 6.92994 4.2799 6.89091 4.31476Z" fill="#27861D"/>
<path d="M10.0198 6.0008C9.97896 6.06397 9.99138 6.1206 10.0535 6.16199C10.0747 6.17506 10.4047 6.18378 10.9812 6.18378C11.8592 6.18378 11.877 6.18378 11.9231 6.13803C11.9781 6.08357 11.9816 6.04654 11.9337 5.98773C11.9 5.94634 11.8752 5.94416 10.9776 5.94416H10.0552L10.0198 6.0008Z" fill="#27861D"/>
<path d="M10.9155 6.52362C10.8783 6.56937 10.8801 6.626 10.9191 6.66957C10.9492 6.70225 11.0237 6.7066 11.6286 6.7066C12.3009 6.7066 12.3044 6.7066 12.3417 6.65868C12.3843 6.60204 12.3843 6.59769 12.3488 6.53669L12.3222 6.48877H11.6322C11.0291 6.48877 10.9386 6.49313 10.9155 6.52362Z" fill="#27861D"/>
<path d="M0.534982 9.96762C0.432099 9.99158 0.398396 10.168 0.474671 10.2682L0.515469 10.3227H1.04585H1.57622L1.6188 10.2682C1.67911 10.1963 1.67911 10.0874 1.61702 10.0155L1.5709 9.96326L1.07245 9.96109C0.797509 9.95891 0.554494 9.96109 0.534982 9.96762Z" fill="#27861D"/>
<path d="M13.6101 9.97416C13.5817 9.98505 13.5462 10.0112 13.5356 10.033C13.5001 10.0918 13.5072 10.229 13.548 10.2791C13.5817 10.3205 13.6065 10.3227 14.1067 10.3227H14.6318L14.6744 10.2682C14.7347 10.1963 14.7347 10.0874 14.6726 10.0155L14.6265 9.96326L14.1458 9.95891C13.8797 9.95673 13.6402 9.96326 13.6101 9.97416Z" fill="#27861D"/>
<path d="M0.607698 11.096C0.547388 11.1679 0.547388 11.2986 0.60415 11.3639L0.644949 11.4119H1.60814C2.47023 11.4119 2.57488 11.4075 2.62632 11.3748C2.65825 11.3552 2.74694 11.3073 2.82499 11.2681C2.99351 11.1853 3.02189 11.1461 2.95803 11.0851C2.91546 11.0437 2.87289 11.0415 1.78198 11.0415H0.65027L0.607698 11.096Z" fill="#27861D"/>
</svg>
