<svg width="32" height="32" viewBox="0 0 32 32" fill="none" xmlns="http://www.w3.org/2000/svg">
<rect x="32" width="32" height="32" rx="16" transform="rotate(90 32 0)" fill="white"/>
<path d="M18.1248 24.5871L26.667 16.0004L18.1248 7.41372C18.0476 7.31241 17.9496 7.22886 17.8374 7.16872C17.7251 7.10858 17.6013 7.07327 17.4742 7.06516C17.3471 7.05705 17.2198 7.07634 17.1008 7.12172C16.9818 7.16711 16.874 7.23753 16.7846 7.32821C16.6952 7.41889 16.6263 7.52773 16.5826 7.64734C16.5389 7.76695 16.5215 7.89456 16.5314 8.02151C16.5413 8.14846 16.5784 8.2718 16.6401 8.38317C16.7019 8.49455 16.7868 8.59136 16.8892 8.66705L23.2803 15.1115L6.27588 15.1115C6.04013 15.1115 5.81404 15.2051 5.64734 15.3718C5.48064 15.5385 5.38699 15.7646 5.38699 16.0004C5.38699 16.2361 5.48064 16.4622 5.64734 16.6289C5.81404 16.7956 6.04013 16.8893 6.27588 16.8893L23.2803 16.8893L16.8892 23.3337C16.723 23.5011 16.6301 23.7276 16.6309 23.9635C16.6318 24.1994 16.7263 24.4253 16.8937 24.5915C17.061 24.7577 17.2876 24.8506 17.5235 24.8498C17.7593 24.8489 17.9852 24.7544 18.1514 24.5871L18.1248 24.5871Z" fill="black"/>
</svg>
