<svg width="53" height="48" viewBox="0 0 53 48" fill="none" xmlns="http://www.w3.org/2000/svg">
<g clip-path="url(#clip0_1132_12933)">
<path d="M39.4515 0.0243835C39.4191 0.0366173 39.3581 0.0977898 39.3216 0.16304C39.2769 0.244602 39.22 0.285385 39.159 0.285385C39.1062 0.285385 39.0372 0.305775 39.0047 0.326168C38.9478 0.362869 38.9397 0.415886 38.9275 0.848171C38.9234 0.901188 38.8787 1.048 38.8259 1.17443C38.7731 1.30085 38.7081 1.48029 38.6797 1.57001C38.6512 1.65565 38.5944 1.7576 38.5537 1.79431C38.4725 1.86364 38.1109 2.55692 38.1109 2.64257C38.1109 2.68742 38.1434 2.69558 38.2287 2.67927C38.4847 2.62625 38.4725 2.91988 38.2125 3.11563C38.0906 3.21351 38.0784 3.23798 38.0987 3.37663C38.1109 3.4582 38.1394 3.54384 38.1556 3.56831C38.2165 3.63356 38.1962 3.72736 38.0906 3.88233C38.0337 3.96389 37.9606 4.15964 37.92 4.31461C37.855 4.59193 37.855 4.60008 37.9403 4.72243C38.0419 4.86517 38.0541 5.07723 37.9728 5.27298C37.9159 5.41164 37.9484 5.83577 38.0297 6.01521C38.0866 6.13755 38.0866 6.20688 38.0378 6.32107C37.7819 6.9124 37.6397 7.43441 37.6844 7.61385C37.6966 7.67502 37.6844 7.75251 37.6478 7.80552C37.6153 7.85446 37.5666 7.97681 37.5422 8.07876C37.4772 8.29898 37.3472 8.59669 37.2944 8.62931C37.209 8.68233 37.0344 9.0045 36.9856 9.19617C36.8881 9.57545 36.8597 9.61215 36.5875 9.74265C36.1975 9.93025 35.6328 9.98326 35.6328 9.83237C35.6328 9.8079 35.5434 9.75896 35.4297 9.71818C35.32 9.6774 35.1615 9.58768 35.0844 9.51427C35.0031 9.44086 34.8934 9.37969 34.8406 9.37969C34.7187 9.37969 34.5765 9.18394 34.5765 9.01674C34.5765 8.93925 34.5522 8.87808 34.5156 8.86584C34.4831 8.85361 34.4465 8.80875 34.4344 8.76797C34.4222 8.72311 34.3369 8.67417 34.2191 8.64562C34.1134 8.613 33.9916 8.56814 33.9469 8.53551C33.9022 8.50697 33.8128 8.4825 33.7437 8.4825C33.565 8.4825 33.24 8.34792 33.0612 8.19703C32.98 8.1277 32.8378 7.96865 32.7484 7.8463C32.6062 7.65871 32.5534 7.61793 32.3544 7.56083C32.2284 7.52413 32.0862 7.45072 32.0375 7.39771C31.9887 7.34469 31.9278 7.29983 31.9075 7.29983C31.8831 7.29983 31.7978 7.25497 31.7166 7.19788C31.6109 7.12447 31.5459 7.10408 31.5012 7.13263C31.42 7.17748 31.2819 7.14486 31.2169 7.06738C31.1925 7.03475 31.0462 6.92464 30.8919 6.81861C30.7172 6.69626 30.6115 6.59431 30.6034 6.53721C30.5953 6.48012 30.5181 6.40671 30.4003 6.33738C30.2947 6.27621 30.1525 6.17833 30.0875 6.12124C30.0184 6.06414 29.86 5.96219 29.7381 5.89694C29.4172 5.73789 29.3278 5.52583 29.5187 5.3994C29.5756 5.3627 29.6122 5.32192 29.604 5.30968C29.5797 5.28522 29.7056 5.05684 29.7462 5.05684C29.7625 5.05684 29.795 5.00382 29.8234 4.93449C29.8519 4.86924 29.925 4.79176 29.99 4.76321C30.0834 4.72243 30.1078 4.68573 30.1078 4.58785C30.1078 4.5226 30.1444 4.40841 30.1891 4.34316C30.2337 4.27383 30.2703 4.18003 30.2703 4.1311C30.2703 4.08216 30.2906 4.02914 30.3109 4.01691C30.3719 3.9802 30.3597 3.87417 30.2947 3.87417C30.2622 3.87417 30.2297 3.90272 30.2134 3.93534C30.2012 3.96797 30.1728 3.99652 30.1525 3.99652C30.1281 3.99652 30.12 3.96797 30.1322 3.93534C30.1484 3.90272 30.1362 3.87417 30.1119 3.87417C30.0875 3.87417 30.0672 3.82116 30.0672 3.75183C30.0672 3.66618 30.0834 3.63764 30.1241 3.65395C30.2134 3.68658 30.2459 3.59278 30.1687 3.50714C30.1241 3.4582 30.1159 3.42557 30.1444 3.40518C30.1687 3.39295 30.1891 3.39295 30.1891 3.41334C30.1891 3.42965 30.2094 3.41742 30.2297 3.38479C30.254 3.34401 30.2703 3.33993 30.2703 3.37255C30.2703 3.4011 30.2906 3.42557 30.3109 3.42557C30.3353 3.42557 30.3515 3.39703 30.3515 3.3644C30.3515 3.28284 30.4165 3.28691 30.449 3.36848C30.4694 3.41742 30.4897 3.40926 30.5709 3.31546C30.6522 3.22574 30.6806 3.20943 30.7212 3.25021C30.7619 3.29099 30.7619 3.30323 30.7253 3.30323C30.6969 3.30323 30.6765 3.33993 30.6765 3.38479C30.6765 3.48267 30.7497 3.4949 30.7862 3.4011C30.7984 3.36848 30.835 3.34809 30.8634 3.36032C30.8959 3.37255 30.9203 3.35624 30.9203 3.32362C30.9203 3.29099 30.9487 3.25021 30.9812 3.22982C31.0178 3.21351 31.0503 3.15641 31.0544 3.10748C31.0584 3.05038 31.0869 3.01776 31.1356 3.01776C31.1884 3.01776 31.2047 2.99736 31.1884 2.95251C31.1762 2.9158 31.164 2.8791 31.164 2.87094C31.164 2.86279 31.1437 2.85463 31.1194 2.85463C31.095 2.85463 31.0462 2.822 31.0097 2.7853C30.9447 2.72413 30.9487 2.72005 31.0544 2.7486C31.16 2.77307 31.164 2.76899 31.1397 2.66703C31.1153 2.57323 31.1234 2.561 31.1803 2.58139C31.2209 2.59771 31.2453 2.58547 31.2453 2.54469C31.2453 2.45905 31.5256 2.12056 31.5947 2.12056C31.6881 2.12056 31.6597 2.01045 31.5256 1.87995C31.4078 1.7576 31.2047 1.70459 31.2047 1.79431C31.2047 1.8147 31.1884 1.83509 31.164 1.83509C31.1437 1.83509 31.1234 1.79839 31.1234 1.75352C31.1234 1.70459 31.095 1.6271 31.0625 1.57409C31.0056 1.48845 31.0056 1.47621 31.0665 1.45174C31.1112 1.43543 31.1234 1.41096 31.0991 1.38649C31.0503 1.33755 30.9162 1.39872 30.6562 1.58224C30.449 1.72906 30.4247 1.82693 30.5912 1.85956C30.709 1.88403 30.7131 1.8881 30.6603 2.01453C30.6156 2.12872 30.5912 2.14095 30.445 2.14095C30.2703 2.14095 30.2703 2.14503 30.3353 1.92073C30.3597 1.83509 30.3556 1.82693 30.2703 1.85548L30.1769 1.88403L30.2703 1.7576C30.3719 1.61079 30.3515 1.54146 30.2378 1.64341C30.1972 1.6842 30.1322 1.71274 30.0956 1.71274C30.059 1.71274 29.9859 1.75352 29.9412 1.79839C29.8722 1.86771 29.8478 1.87587 29.8194 1.83101C29.7828 1.76984 30.0103 1.50883 30.0997 1.50883C30.1241 1.50883 30.1484 1.48845 30.1484 1.46397C30.1484 1.41096 29.9859 1.44358 29.8072 1.5333C29.7422 1.56593 29.6569 1.58224 29.6162 1.57001C29.5797 1.55777 29.535 1.56185 29.5228 1.58632C29.5106 1.60671 29.4659 1.61487 29.4253 1.60263C29.3847 1.59447 29.3034 1.63118 29.2344 1.69235C29.0556 1.84324 28.9297 1.86771 28.8566 1.76168C28.824 1.71274 28.7631 1.67196 28.7225 1.67196C28.6778 1.67196 28.6453 1.64341 28.6453 1.61079C28.6453 1.57816 28.629 1.54962 28.6047 1.54962C28.5844 1.54962 28.5641 1.52515 28.5641 1.49252C28.5641 1.38649 28.4787 1.37426 28.365 1.45582C28.1903 1.58632 28.105 1.59855 27.9344 1.50883C27.8287 1.45582 27.7678 1.44358 27.7556 1.47213C27.7475 1.4966 27.719 1.47213 27.6947 1.41912C27.6703 1.37018 27.6297 1.32532 27.6094 1.32532C27.585 1.32532 27.5444 1.30901 27.52 1.29269C27.4916 1.27638 27.4306 1.28046 27.3819 1.30493C27.3209 1.33755 27.2844 1.34163 27.2519 1.30901C27.2234 1.28046 27.2316 1.26007 27.2762 1.23968C27.3128 1.22744 27.3453 1.19074 27.3453 1.16219C27.3453 1.09694 27.13 1.03577 27.1097 1.09694C27.1015 1.12141 27.0609 1.1418 27.0162 1.1418C26.9756 1.1418 26.939 1.15811 26.939 1.18258C26.939 1.23968 26.8741 1.23152 26.805 1.16627C26.7684 1.12957 26.7319 1.12141 26.7075 1.14588C26.6831 1.17035 26.6384 1.15403 26.5897 1.10509C26.5328 1.05616 26.4678 1.03577 26.3784 1.05208C26.2647 1.06839 26.2444 1.05616 26.1794 0.913422C26.1022 0.733982 25.9315 0.530075 25.8666 0.530075C25.8422 0.530075 25.7772 0.58717 25.7244 0.65242C25.6309 0.774765 25.5172 0.815548 25.5172 0.729904C25.5172 0.668732 25.2694 0.366947 25.2165 0.366947C25.1922 0.366947 25.1475 0.326168 25.115 0.281307C25.0744 0.211979 25.054 0.203823 25.0297 0.244602C25.0012 0.289463 24.9728 0.293541 24.8834 0.252762C24.7494 0.191589 24.725 0.211979 24.7859 0.326168C24.8103 0.371025 24.8225 0.432198 24.8103 0.460747C24.8022 0.489292 24.79 0.481136 24.79 0.444435C24.7859 0.375107 24.6234 0.244602 24.5422 0.244602C24.5219 0.244602 24.5015 0.285385 24.4975 0.334324C24.4975 0.387341 24.4853 0.403652 24.4731 0.375107C24.4447 0.301697 24.3919 0.313934 24.2984 0.415886C24.1928 0.530075 24.1969 0.579014 24.3106 0.56678C24.3959 0.554543 24.6234 0.733982 24.6234 0.81147C24.6234 0.880798 24.7494 0.89711 24.8387 0.840015C24.9931 0.742142 25.1759 0.721748 25.2409 0.795155C25.2694 0.83186 25.3344 0.909344 25.3872 0.966438C25.4603 1.048 25.4684 1.08063 25.4319 1.12549C25.3953 1.17035 25.3953 1.19482 25.4359 1.24376C25.4847 1.30085 25.4562 1.66381 25.4075 1.61487C25.3953 1.60263 25.3262 1.63118 25.2572 1.6842C25.115 1.78615 25.0053 1.81062 24.9687 1.74945C24.9525 1.72498 24.8875 1.74945 24.8062 1.81062C24.6519 1.93296 24.5747 1.94112 24.5015 1.85548C24.4569 1.80246 24.4366 1.80246 24.3106 1.85548C23.9937 1.99006 23.6809 1.91257 23.6444 1.69643C23.62 1.58224 23.5347 1.57001 23.5184 1.68012C23.5062 1.77391 23.4737 1.77799 23.2219 1.74129C23.2015 1.73721 23.1772 1.76984 23.1772 1.8147C23.1731 1.85956 23.1691 1.92889 23.165 1.96559C23.1609 2.01045 23.1406 2.02676 23.1 2.01045C23.0309 1.98598 22.8644 2.1124 22.9009 2.16542C22.909 2.18581 22.8562 2.17358 22.775 2.13687C22.6937 2.10425 22.6165 2.08385 22.6003 2.09609C22.584 2.10833 22.5637 2.18173 22.5597 2.26737C22.5475 2.44273 22.5231 2.49167 22.4581 2.47944C22.4297 2.47536 22.3728 2.48352 22.324 2.49983C22.259 2.5243 22.2428 2.55692 22.255 2.62625C22.2794 2.75267 22.1981 2.90357 22.1128 2.89133C21.9584 2.8791 21.9422 2.89541 21.9422 3.07893C21.9422 3.20943 21.9665 3.29099 22.0234 3.35217C22.129 3.47043 22.125 3.4949 21.9787 3.63356C21.8406 3.76406 21.7187 3.78445 21.6822 3.68658C21.6619 3.62948 21.6497 3.62948 21.5887 3.69473C21.5481 3.73143 21.5156 3.78445 21.5156 3.80892C21.5075 3.92719 21.4384 4.18411 21.4059 4.22897C21.3815 4.25752 21.3775 4.31054 21.3897 4.34724C21.4222 4.43288 21.345 4.53075 21.2678 4.49813C21.2353 4.4859 21.2109 4.49813 21.2109 4.5226C21.2109 4.54707 21.1744 4.56746 21.1256 4.56746C21.0769 4.56746 21.0484 4.58785 21.0606 4.6164C21.0687 4.64494 21.0362 4.7469 20.9834 4.84477C20.9306 4.93857 20.8859 5.04053 20.8859 5.06907C20.8859 5.12617 21.0281 5.26075 21.089 5.26075C21.1134 5.26075 21.1297 5.27706 21.1297 5.30153C21.1297 5.32192 21.1987 5.34231 21.284 5.34231C21.4181 5.34639 21.4262 5.35047 21.3653 5.3994C21.2719 5.46873 21.2719 5.50136 21.3856 5.61963C21.4709 5.71342 21.4709 5.7175 21.3937 5.70119C21.3247 5.69303 21.3084 5.7175 21.2922 5.87247C21.2719 6.04375 21.2678 6.05191 21.219 5.96627C21.1622 5.86024 20.9712 5.75013 20.8494 5.75013C20.7559 5.75013 20.7072 5.87247 20.7478 6.00297C20.7722 6.08454 20.7681 6.08862 20.7072 6.03968C20.6706 6.01113 20.6422 5.96219 20.6422 5.92957C20.6422 5.848 20.4756 5.75013 20.3375 5.75013C20.2725 5.75013 20.1303 5.72158 20.0247 5.69303C19.8784 5.64817 19.8012 5.64409 19.6915 5.67672C19.5412 5.72566 19.5372 5.73381 19.6184 5.94995C19.6347 5.99074 19.6103 5.99889 19.5169 5.9785C19.3625 5.9418 19.2812 6.02744 19.3178 6.19873C19.3422 6.32923 19.2894 6.36593 19.2284 6.25582C19.1878 6.18241 19.2325 5.87655 19.2894 5.83577C19.3503 5.79906 19.3909 5.587 19.3422 5.587C19.269 5.587 19.0131 5.37901 18.814 5.16287C18.5825 4.90594 18.4444 4.76729 18.3387 4.68573C18.294 4.64902 18.2494 4.596 18.2412 4.57154C18.2209 4.51036 17.839 4.4655 17.839 4.5226C17.839 4.54707 17.8228 4.56746 17.7984 4.56746C17.7781 4.56746 17.7578 4.53891 17.7578 4.50221C17.7578 4.41656 17.5953 4.28606 17.4856 4.28199C17.4369 4.28199 17.3515 4.30238 17.2947 4.32685C17.1972 4.37171 17.1972 4.37986 17.25 4.48997C17.3069 4.596 17.3028 4.60416 17.2297 4.62863C17.1687 4.64902 17.1525 4.67757 17.1687 4.73466C17.189 4.79176 17.1809 4.80399 17.1322 4.78768C17.0875 4.77137 17.0672 4.78768 17.0672 4.84885C17.0672 4.90187 17.0469 4.92634 17.0103 4.91003C16.9209 4.8774 16.9006 4.73466 16.9778 4.69388C17.0306 4.66534 17.0347 4.64087 17.0022 4.60824C16.9697 4.57561 16.9412 4.57969 16.8925 4.62455C16.8559 4.66125 16.8112 4.6898 16.7869 4.6898C16.7178 4.6898 16.5837 4.89779 16.6081 4.96304C16.6244 5.0079 16.6162 5.02013 16.5878 4.99974C16.5594 4.98343 16.539 4.9141 16.539 4.84477C16.539 4.70612 16.3969 4.55115 16.3034 4.58785C16.275 4.60008 16.2303 4.60824 16.2059 4.60824C16.1815 4.60824 16.1734 4.63271 16.1856 4.66534C16.1978 4.69796 16.1897 4.73059 16.1653 4.73874C16.1328 4.75098 16.1369 4.7836 16.1694 4.84885C16.2019 4.90187 16.2425 4.93042 16.279 4.91818C16.3684 4.88148 16.4009 5.02013 16.3197 5.08131C16.275 5.10986 16.2587 5.15471 16.279 5.18326C16.2953 5.21181 16.279 5.25667 16.2344 5.28522C16.1734 5.33007 16.1694 5.35047 16.214 5.40348C16.2547 5.45242 16.2506 5.46873 16.1897 5.4932C16.145 5.50544 16.1003 5.53806 16.084 5.56253C16.0637 5.587 16.0515 5.57069 16.0515 5.51767C16.0515 5.42795 15.9297 5.35862 15.8078 5.37494C15.755 5.38309 15.759 5.37901 15.8119 5.33415C15.9175 5.24851 15.9134 5.21997 15.7915 5.15879C15.6331 5.07315 15.5925 5.11393 15.625 5.326C15.6494 5.48505 15.6412 5.50544 15.5681 5.50544C15.5275 5.50544 15.4828 5.52991 15.4706 5.55437C15.4584 5.59516 15.4422 5.59516 15.3934 5.55845C15.3284 5.50136 15.2715 5.5503 15.0887 5.81538C15.0075 5.93772 15.0075 5.9418 15.0765 6.0356C15.1294 6.10493 15.1375 6.14979 15.1131 6.18241C15.0847 6.21912 15.1009 6.24358 15.1659 6.26398C15.2187 6.28029 15.2715 6.2966 15.2919 6.30068C15.3081 6.30068 15.3203 6.31291 15.3203 6.32923C15.3203 6.34962 15.3203 6.37816 15.3203 6.39448C15.3203 6.46381 15.0969 6.41895 15.0562 6.34146C14.9953 6.22319 14.849 6.23135 14.8612 6.34962C14.8694 6.42302 14.8531 6.44342 14.7759 6.44342C14.6662 6.44342 14.5362 6.56984 14.6215 6.59431C14.6459 6.60654 14.6703 6.63917 14.6703 6.67179C14.6703 6.72073 14.6378 6.72481 14.5281 6.70442C14.3981 6.67995 14.3859 6.68811 14.3859 6.77375C14.3859 6.97358 14.3412 7.05106 14.2356 7.0429C14.1787 7.03883 14.1219 7.0633 14.1015 7.09592C14.0853 7.12855 14.0528 7.19788 14.0284 7.24274C13.9756 7.34877 14.0244 7.59346 14.1178 7.68726C14.1544 7.72396 14.1828 7.7729 14.1828 7.79329C14.1828 7.86262 14.2519 7.82999 14.2965 7.73619C14.3331 7.65871 14.3372 7.66686 14.3169 7.78921C14.2925 7.94418 14.2234 8.05429 14.2234 7.9401C14.2234 7.9034 14.195 7.87077 14.1625 7.87077C14.13 7.87077 14.1015 7.90747 14.1015 7.94826C14.1015 7.99312 14.0853 8.03798 14.0609 8.05429C14.0406 8.06652 14.0325 8.10323 14.0487 8.13585C14.0609 8.16848 14.0569 8.24189 14.0447 8.29898C14.0122 8.42133 13.8781 8.43764 13.8456 8.32345C13.8334 8.27451 13.7765 8.23781 13.679 8.2215C13.5937 8.20518 13.4962 8.18071 13.4637 8.16848C13.415 8.14809 13.4028 8.16032 13.4231 8.20518C13.4353 8.24596 13.4231 8.28267 13.3865 8.2949C13.289 8.3316 13.2769 8.32345 13.3012 8.23781C13.3256 8.13993 13.1794 8.01351 13.1103 8.0706C13.0859 8.09099 13.029 8.11139 12.9884 8.11954C12.8828 8.13993 12.8747 8.30714 12.9722 8.37646C13.0453 8.42948 13.0412 8.43356 12.9356 8.4621C12.8259 8.48658 12.8219 8.49065 12.9031 8.55183C12.9844 8.613 12.9844 8.613 12.895 8.58853C12.7812 8.55183 12.7365 8.63339 12.8178 8.72311C12.8544 8.76389 12.8828 8.81691 12.8828 8.84138C12.8828 8.86992 12.9153 8.89031 12.9559 8.89031C13.0331 8.89439 13.2078 9.02489 13.2078 9.08199C13.2078 9.10238 13.2322 9.14316 13.2565 9.16763C13.285 9.19617 13.3094 9.27366 13.3134 9.33891C13.3175 9.44494 13.3134 9.44902 13.2444 9.40824C13.1997 9.37969 13.1672 9.34707 13.1672 9.33076C13.1672 9.31036 13.1306 9.29813 13.09 9.29813C12.9884 9.29813 12.9519 9.40416 13.0128 9.51427C13.0615 9.60399 13.0615 9.67332 13.0209 9.865C13.0006 9.95472 12.9965 9.95879 12.9194 9.88946C12.8787 9.84868 12.8137 9.76304 12.7812 9.69779C12.7487 9.63662 12.6919 9.52651 12.6553 9.45718C12.6187 9.38785 12.5659 9.3226 12.5334 9.31036C12.5009 9.29813 12.4765 9.25735 12.4765 9.21657C12.4765 9.17171 12.4562 9.12685 12.4359 9.11461C12.4115 9.0983 12.4034 9.05344 12.4156 9.00858C12.4319 8.95964 12.4237 8.9311 12.3872 8.9311C12.3587 8.9311 12.2978 8.90255 12.2572 8.86992C12.184 8.81283 12.184 8.80875 12.2531 8.69864C12.3019 8.62523 12.31 8.58445 12.2815 8.57222C12.2531 8.56406 12.2328 8.53144 12.2328 8.50289C12.2328 8.41317 12.0297 8.53144 12.0053 8.63747C11.989 8.68641 11.9525 8.7435 11.92 8.76389C11.8834 8.7802 11.8428 8.86992 11.8306 8.95557C11.8103 9.07791 11.7859 9.11461 11.725 9.11461C11.5909 9.11869 11.534 9.17579 11.5584 9.28182C11.5787 9.35115 11.5706 9.37154 11.53 9.35522C11.4528 9.32668 11.2415 9.57545 11.14 9.81198C11.0465 10.02 11.0262 10.3544 11.1034 10.4319C11.1278 10.4563 11.1562 10.595 11.1603 10.7336C11.1725 10.9743 11.2172 11.0681 11.2781 10.9743C11.3228 10.8968 11.4203 10.9253 11.4203 11.015C11.4203 11.117 10.8556 11.6757 10.7825 11.6431C10.7094 11.6186 10.5915 11.8592 10.6444 11.9245C10.6972 11.9856 10.6606 12.0305 10.5631 12.0305C10.4697 12.0305 10.425 12.0998 10.4819 12.1692C10.5062 12.1977 10.5103 12.2385 10.49 12.2589C10.4697 12.2793 10.4331 12.369 10.4047 12.4587C10.3194 12.736 10.0512 13.1561 9.84811 13.3274C9.46624 13.6455 8.57249 14.0655 8.15405 14.1267C8.11342 14.1308 8.03624 14.1797 7.98342 14.2286C7.89811 14.3102 7.87374 14.3143 7.71936 14.2735C7.47561 14.2082 7.23186 14.2327 7.13436 14.3306C7.08967 14.3795 7.01655 14.4856 6.97186 14.5753C6.9028 14.7099 6.74436 14.8281 6.65905 14.8118C6.6428 14.8077 6.55749 14.8281 6.47624 14.8607C6.32186 14.9178 6.11467 14.9749 6.03342 14.9831C5.98874 14.9872 5.69217 15.2359 5.69217 15.2726C5.69217 15.3338 5.46467 15.5377 5.39561 15.5377C5.34686 15.5377 5.23311 15.5744 5.13561 15.6234C4.94467 15.7172 4.7578 15.7049 4.7578 15.5948C4.7578 15.5173 4.6278 15.55 4.4653 15.6641C4.36374 15.7335 4.22967 15.7702 4.22967 15.7253C4.22967 15.7131 4.24592 15.6601 4.2703 15.603C4.33124 15.4358 4.22155 15.4684 4.10374 15.6478C4.05092 15.7335 3.96561 15.8191 3.91686 15.8436C3.86405 15.864 3.82342 15.9048 3.82342 15.9333C3.82342 15.9619 3.79092 15.9863 3.74624 15.9863C3.70561 15.9863 3.64874 16.0108 3.62436 16.0434C3.59592 16.076 3.54311 16.0924 3.50249 16.0801C3.44561 16.0638 3.41717 16.0883 3.40092 16.178C3.38061 16.2514 3.31561 16.3248 3.21811 16.386C3.12467 16.4472 3.04749 16.5369 3.01499 16.6184C2.99061 16.6959 2.93374 16.7693 2.89311 16.7816C2.85249 16.7938 2.75905 16.8917 2.68186 16.9977C2.52749 17.2138 2.40561 17.328 2.32842 17.3321C2.29999 17.3321 2.21467 17.377 2.14155 17.4341C2.06842 17.4912 1.98717 17.536 1.9628 17.536C1.94249 17.536 1.82874 17.6094 1.71499 17.6992C1.56061 17.8215 1.5078 17.8908 1.5078 17.9683C1.5078 18.0417 1.47936 18.0825 1.42655 18.0947C1.36561 18.111 1.34936 18.1396 1.36967 18.1967C1.38186 18.2375 1.37374 18.2946 1.35342 18.3231C1.33311 18.3517 1.30061 18.4658 1.28436 18.5841C1.26405 18.735 1.23967 18.788 1.20311 18.7758C1.17467 18.7636 1.12592 18.7921 1.09342 18.837C1.01624 18.9471 0.971548 18.9022 1.02436 18.7676C1.05686 18.6861 1.04874 18.6494 0.97561 18.5719C0.898423 18.4862 0.890298 18.4455 0.906548 18.1926C0.918735 18.0336 0.918735 17.8949 0.906548 17.8867C0.874048 17.85 0.739985 17.9398 0.670923 18.0458C0.638423 18.0988 0.58561 18.2782 0.55311 18.4414C0.524673 18.6045 0.463735 18.8329 0.419048 18.9511C0.329673 19.1836 0.34186 19.3549 0.447485 19.3916C0.577485 19.4324 0.711548 19.8198 0.61811 19.881C0.593735 19.8932 0.593735 19.9503 0.614048 20.0155C0.69936 20.2847 0.691235 20.4274 0.597798 20.5416C0.402798 20.7782 0.297173 21.3736 0.378423 21.7814C0.40686 21.9201 0.459673 22.0138 0.593735 22.1444C0.695298 22.2463 0.776548 22.3564 0.776548 22.3931C0.776548 22.4339 0.79686 22.4788 0.817173 22.491C0.841548 22.5032 0.857798 22.5481 0.857798 22.5889C0.857798 22.6297 0.89436 22.6949 0.939048 22.7398C1.07717 22.8703 1.10155 22.8947 1.1828 22.9967C1.22749 23.0497 1.26405 23.115 1.26405 23.1394C1.26405 23.1639 1.35749 23.2862 1.46717 23.4045C1.58092 23.5268 1.6703 23.6451 1.6703 23.6614C1.6703 23.6777 1.69467 23.6941 1.72717 23.6941C1.76374 23.6941 1.77999 23.7675 1.78405 23.9591C1.78811 24.1059 1.80842 24.265 1.83686 24.3099C1.87342 24.3833 1.8653 24.4118 1.8003 24.4811C1.68249 24.5994 1.61342 24.5301 1.49967 24.1794C1.4103 23.898 1.31686 23.8205 1.33717 24.0448C1.3453 24.1712 1.28842 24.3017 1.23967 24.2528C1.22342 24.2365 1.2153 24.1345 1.21936 24.0244C1.22342 23.8368 1.2153 23.8164 0.995923 23.5962C0.869985 23.4657 0.760298 23.3719 0.752173 23.38C0.739985 23.3882 0.723735 23.4616 0.707485 23.5432C0.691235 23.6574 0.711548 23.7226 0.81311 23.8694C0.882173 23.9714 0.939048 24.0733 0.939048 24.0937C0.939048 24.163 1.17874 24.3833 1.28436 24.4118C1.39811 24.4404 1.40624 24.4485 1.4428 24.5994C1.46311 24.681 1.44686 24.734 1.38592 24.7952C1.2803 24.9012 1.23155 24.8971 1.19905 24.7748C1.18686 24.7177 1.15842 24.681 1.14217 24.6932C1.12186 24.7054 1.09749 24.6606 1.08124 24.5912C1.06499 24.526 1.04061 24.4689 1.0203 24.4689C0.999985 24.4689 0.92686 24.3873 0.853735 24.2895C0.711548 24.0896 0.614048 24.0815 0.614048 24.265C0.614048 24.3588 0.597798 24.3751 0.532798 24.3588C0.42311 24.3302 0.431235 24.4037 0.549048 24.4975C0.60186 24.5382 0.654673 24.6116 0.670923 24.6524C0.68311 24.6973 0.772485 24.787 0.869985 24.8563C1.16655 25.0684 1.34124 25.2478 1.65405 25.6597C1.99124 26.1124 2.08874 26.3082 2.06436 26.4876C2.04405 26.6222 2.20655 27.0381 2.27967 27.0381C2.34467 27.0381 2.71436 27.397 2.81186 27.552C2.85655 27.6295 2.88905 27.7233 2.87686 27.76C2.86874 27.8089 2.94186 27.9109 3.09217 28.0577C3.37249 28.3268 3.50249 28.5675 3.54717 28.8937C3.62842 29.485 3.69342 29.8113 3.73811 29.8113C3.75436 29.8113 3.79092 29.8969 3.81936 30.003C3.8803 30.211 4.1078 30.6229 4.20936 30.7085C4.24186 30.737 4.32717 30.8635 4.4003 30.9899C4.47342 31.1122 4.63592 31.3569 4.76592 31.5241C4.96905 31.7933 5.00561 31.8708 5.06249 32.1522C5.10717 32.3561 5.1153 32.4866 5.09092 32.511C5.06655 32.5355 5.07061 32.5885 5.10717 32.6579C5.17217 32.7843 5.1803 32.8781 5.12749 32.9311C5.05436 33.0127 5.05842 33.1432 5.1478 33.4001C5.28592 33.8038 5.29811 33.9302 5.22499 34.1872C5.12749 34.5216 4.85936 34.6969 4.71717 34.5216C4.62374 34.4115 4.56686 34.4482 4.57905 34.6113C4.62374 35.117 4.7253 35.4759 4.86342 35.6064C4.95686 35.6961 4.96092 35.6961 5.04217 35.6227C5.11936 35.5534 5.13155 35.5534 5.34686 35.6349C5.62311 35.741 5.90749 35.9326 6.02124 36.0876C6.07811 36.1651 6.13092 36.1977 6.18374 36.1855C6.22436 36.1732 6.39905 36.214 6.56967 36.2711C6.76467 36.3404 6.91092 36.369 6.9678 36.3527C7.01249 36.3364 7.10186 36.3241 7.1628 36.3282C7.22374 36.3323 7.28061 36.3201 7.2928 36.2997C7.30499 36.2793 7.34967 36.2711 7.3903 36.2833C7.42686 36.2915 7.53655 36.2833 7.62592 36.263C7.71936 36.2426 7.82092 36.2385 7.84936 36.2548C7.88186 36.2711 7.95499 36.2956 8.01186 36.3119C8.09717 36.3282 8.12561 36.3201 8.14186 36.2589C8.15811 36.1855 8.17842 36.1814 8.30436 36.2222C8.45467 36.267 8.57655 36.2466 8.57655 36.1732C8.57655 36.1528 8.54405 36.1325 8.50749 36.1325C8.39374 36.1325 8.47092 36.0917 8.62124 36.0754C8.7228 36.0672 8.75936 36.0427 8.75936 35.9856C8.75936 35.9326 8.79186 35.9041 8.87311 35.8959C8.96249 35.8837 8.9828 35.8633 8.9828 35.7654C8.9828 35.6757 9.0153 35.6308 9.13717 35.5574C9.31186 35.4514 9.35655 35.3984 9.32811 35.3291C9.31999 35.3046 9.38499 35.2434 9.4703 35.1986C9.6003 35.1333 9.65311 35.1211 9.74249 35.1578C9.86436 35.2026 9.97811 35.1782 9.93749 35.1088C9.92124 35.0844 9.93749 35.0721 9.98217 35.0803C10.035 35.0884 10.0594 35.0681 10.0553 35.0191C10.0512 34.9661 10.0675 34.9539 10.1203 34.9702C10.2097 34.9987 10.2747 34.9131 10.1975 34.8682C10.1122 34.8111 10.2178 34.5338 10.3722 34.4196C10.5875 34.2565 10.6525 34.2361 10.9328 34.2239C11.079 34.2157 11.2334 34.1872 11.2822 34.1545C11.4081 34.073 12.1434 33.9139 12.375 33.918C12.8097 33.9302 12.8625 33.9262 12.9275 33.865C12.9884 33.812 13.0006 33.812 13.0615 33.8691C13.0981 33.9058 13.1265 33.9466 13.1265 33.9629C13.1265 33.9792 13.1428 34.0159 13.1631 34.0485C13.1915 34.0934 13.2159 34.0934 13.2931 34.0526C13.3459 34.024 13.4069 33.9751 13.4272 33.9425C13.4515 33.8976 13.5003 33.8895 13.5937 33.9058C13.6831 33.9262 13.74 33.9139 13.7765 33.8691C13.805 33.8365 13.8862 33.8079 13.9553 33.8038C14.0244 33.8038 14.1178 33.7875 14.1625 33.7712C14.26 33.7304 14.3859 33.7875 14.3859 33.8691C14.3859 33.9588 14.4915 33.9425 14.6094 33.8324C14.6703 33.7753 14.7434 33.7427 14.7922 33.7549C14.8694 33.7753 15.174 33.5387 15.1375 33.4816C15.1253 33.4653 15.174 33.3879 15.239 33.3144C15.304 33.237 15.369 33.1105 15.3812 33.0331C15.4665 32.4907 15.6047 32.3112 16.0069 32.2174C16.1409 32.1848 16.2831 32.1155 16.3725 32.038C16.5512 31.8789 16.8153 31.7076 16.9372 31.6709C16.9859 31.6546 17.1525 31.5364 17.3069 31.4099C17.6603 31.1204 17.8187 31.0674 18.1681 31.1163C18.554 31.1734 19.2203 31.0715 19.5453 30.9124C19.6225 30.8716 19.8297 30.7901 20.0044 30.733C20.3537 30.6147 20.7153 30.4393 21.0362 30.2354C21.219 30.1172 21.3206 30.0927 21.9137 29.9989C22.3525 29.9296 22.7506 29.8929 23.0594 29.8929C23.4819 29.8929 23.555 29.8806 23.7337 29.795L23.9328 29.693L24.2822 29.8562C24.6194 30.0111 24.989 30.2558 25.1069 30.3986C25.18 30.4883 25.6025 30.4842 25.57 30.3945C25.5334 30.2966 25.8422 30.3415 26.025 30.4597C26.1144 30.5168 26.2037 30.5658 26.22 30.5658C26.2403 30.5658 26.2769 30.5943 26.3012 30.6269C26.3662 30.7126 26.7644 30.7248 26.8822 30.6473C26.9634 30.5943 26.9797 30.5984 27.0447 30.6881C27.0853 30.7452 27.1422 30.7901 27.1665 30.7901C27.1909 30.7901 27.2397 30.8186 27.2681 30.8594C27.3128 30.9124 27.3128 30.9287 27.2762 30.941C27.2234 30.9613 27.199 31.1979 27.2478 31.1979C27.26 31.1979 27.3372 31.1693 27.4144 31.1326C27.5484 31.0674 27.5565 31.0674 27.6297 31.1408C27.6703 31.1816 27.715 31.259 27.7312 31.308C27.7556 31.3936 27.7434 31.4018 27.6134 31.4018C27.4631 31.4018 27.4428 31.4222 27.5078 31.5241C27.5281 31.5608 27.5281 31.6016 27.5037 31.6342C27.4509 31.6954 27.4916 31.7688 27.5687 31.7688C27.6053 31.7688 27.6175 31.7933 27.6012 31.8341C27.585 31.8749 27.6012 31.9156 27.6419 31.9401C27.6825 31.9605 27.7109 32.0013 27.7109 32.0298C27.7109 32.0992 27.8003 32.1359 27.9019 32.1114C28.0034 32.0828 28.3081 32.2419 28.369 32.352C28.3934 32.3969 28.4137 32.507 28.4137 32.5926C28.4137 32.7313 28.4381 32.7761 28.625 32.9433C28.8606 33.1554 28.9419 33.2818 28.9256 33.4123C28.9175 33.4613 28.9337 33.5387 28.9581 33.5836C29.015 33.6978 29.0597 34.0118 29.015 34.0118C28.9947 34.0118 28.9581 33.9833 28.9297 33.9506C28.8566 33.8609 28.824 33.8732 28.7672 34.0118C28.7103 34.1505 28.7347 34.2116 28.82 34.1382C28.8647 34.1056 28.8931 34.1097 28.9459 34.1668C28.9825 34.2076 28.9987 34.2524 28.9865 34.2647C28.9744 34.281 28.9987 34.3014 29.0434 34.3136C29.1287 34.3421 29.3359 34.5868 29.3359 34.6602C29.3359 34.7255 29.3806 34.7173 29.4659 34.6358C29.535 34.5746 29.5472 34.5746 29.6609 34.6847C29.795 34.8111 29.799 34.8071 29.8397 34.5093C29.864 34.3462 29.86 34.334 29.7787 34.3462C29.73 34.3544 29.6812 34.334 29.6731 34.3054C29.6609 34.281 29.6812 34.2565 29.7178 34.2565C29.7584 34.2565 29.7787 34.2239 29.7706 34.1668C29.7625 34.0934 29.7828 34.073 29.864 34.073C29.9412 34.073 29.9697 34.0485 29.9778 33.971C29.9859 33.9139 30.0387 33.8242 30.0956 33.7712C30.1525 33.7182 30.2215 33.6162 30.254 33.5428C30.2825 33.4694 30.3597 33.3797 30.4206 33.3389C30.4816 33.2981 30.5547 33.241 30.575 33.2125C30.6075 33.1717 31.03 32.976 31.2494 32.8985C31.3306 32.8699 31.5094 32.5559 31.5784 32.3235C31.6475 32.091 31.8506 31.8871 31.9765 31.9197C32.0456 31.9401 32.0659 31.9319 32.0497 31.8871C32.0415 31.8545 32.0537 31.7566 32.0781 31.6669L32.1269 31.5037L32.1512 31.7076C32.1675 31.8137 32.2081 31.936 32.2406 31.9768C32.3015 32.038 32.2934 32.0502 32.1553 32.1318C32.0334 32.2052 32.0131 32.2378 32.0375 32.3112C32.1553 32.7027 32.1594 32.6742 31.9603 32.8944C31.7572 33.1105 31.6516 33.2859 31.6516 33.4082C31.6516 33.449 31.6272 33.4939 31.5947 33.5061C31.5541 33.5224 31.5459 33.5754 31.5581 33.6937C31.5744 33.8038 31.5662 33.8691 31.5297 33.8895C31.485 33.918 31.485 33.9506 31.5256 34.0852C31.5987 34.3014 31.5175 34.6847 31.4119 34.6439C31.3753 34.6276 31.2697 34.6113 31.1722 34.6072C31.0178 34.5991 30.9894 34.6113 30.9366 34.7133C30.9041 34.7785 30.8878 34.8438 30.8959 34.8641C30.9081 34.8845 30.8837 34.9294 30.8391 34.9702C30.6847 35.1088 30.7903 35.3209 30.9487 35.1904C30.9853 35.1578 31.0503 35.1374 31.0909 35.1455C31.1356 35.1537 31.2047 35.1292 31.2494 35.0884C31.29 35.0517 31.3265 35.0314 31.3265 35.0477C31.3265 35.0599 31.3672 35.0477 31.42 35.015C31.4972 34.962 31.5256 34.962 31.6394 35.0191C31.81 35.1007 31.8669 35.0558 31.94 34.7948C31.9684 34.6888 32.0172 34.5583 32.0456 34.5012C32.0741 34.4441 32.0984 34.3218 32.0984 34.232C32.0984 34.1301 32.1269 34.024 32.1756 33.967C32.2162 33.9099 32.2609 33.8242 32.2691 33.7753C32.2731 33.7223 32.3015 33.6896 32.3219 33.6937C32.3462 33.7019 32.3584 33.7223 32.3503 33.7386C32.3462 33.7549 32.3706 33.7794 32.4031 33.7916C32.4356 33.8079 32.4641 33.865 32.4641 33.9221C32.4641 33.9792 32.4884 34.0567 32.5209 34.0893C32.7159 34.3136 32.7647 34.6113 32.6834 35.0925C32.659 35.2516 32.4559 35.5207 32.3584 35.5207C32.334 35.5207 32.2894 35.5697 32.2609 35.6268C32.1837 35.7654 32.2365 35.794 32.5453 35.7858C32.7322 35.7817 32.8094 35.7573 32.8825 35.692L32.9759 35.6023L33.1465 35.6879C33.3822 35.8062 33.7966 36.2711 33.955 36.5933C34.1053 36.8869 34.2231 37.3518 34.1866 37.466C34.1703 37.5068 34.1134 37.5802 34.0606 37.6251C33.9712 37.7026 33.9631 37.7229 34.0078 37.8045C34.0322 37.8534 34.0444 37.9309 34.0362 37.9758C34.0119 38.0655 34.2759 38.5386 34.349 38.5386C34.3734 38.5386 34.4181 38.5875 34.4465 38.6528C34.7228 39.2441 34.8772 39.395 35.194 39.395C35.3728 39.395 35.4134 39.4113 35.5962 39.5867C35.7425 39.7212 35.7912 39.7946 35.775 39.8517C35.7547 39.9048 35.7709 39.9252 35.8319 39.9252C35.8765 39.9252 35.9212 39.9415 35.9334 39.9619C35.974 40.0271 36.1162 39.9619 36.1284 39.8681C36.1447 39.7457 36.3641 39.762 36.5509 39.9048C36.6566 39.9863 36.7175 40.0067 36.8109 39.9863C36.9409 39.9578 37.1603 40.076 37.335 40.2677C37.3919 40.3248 37.4691 40.3737 37.5056 40.3737C37.5462 40.3737 37.6437 40.4308 37.7169 40.4961C37.7941 40.5654 37.8956 40.6184 37.9403 40.6184C37.9891 40.6184 38.0459 40.6551 38.0703 40.7C38.1272 40.806 38.1881 40.802 38.3303 40.6796C38.3953 40.6225 38.4644 40.5777 38.4806 40.5777C38.4969 40.5777 38.6066 40.4961 38.7244 40.3941C38.8422 40.2922 38.96 40.2106 38.9803 40.2106C39.0047 40.2106 39.0697 40.1739 39.1265 40.1291C39.3216 39.9782 39.4962 40.0353 39.675 40.3085C39.7522 40.4268 39.9147 40.4512 39.9553 40.3534C39.9675 40.3207 40.0203 40.2922 40.0731 40.2922C40.1503 40.2922 40.1787 40.2636 40.1991 40.1658C40.2194 40.0597 40.2397 40.0434 40.3331 40.0557C40.4225 40.0638 40.4509 40.0924 40.459 40.178C40.4712 40.2677 40.459 40.2881 40.4103 40.2677C40.3656 40.2514 40.3453 40.2677 40.3453 40.3248C40.3453 40.3697 40.325 40.4145 40.2966 40.4227C40.264 40.4349 40.3047 40.5002 40.3941 40.594C40.4916 40.6918 40.5687 40.7408 40.6094 40.7285C40.6703 40.7 40.7922 40.8794 40.7922 41.0018C40.7922 41.0956 40.8815 41.1282 40.9384 41.0507C40.979 40.9896 40.9994 40.9896 41.0725 41.0344C41.1212 41.063 41.1578 41.116 41.1578 41.1527C41.1578 41.2465 41.2797 41.4749 41.3244 41.4749C41.3894 41.4749 41.4665 41.3811 41.4747 41.2913C41.4747 41.2465 41.4909 41.1486 41.5072 41.0793C41.5275 40.9732 41.5194 40.9447 41.4706 40.9447C41.4381 40.9447 41.4016 40.9732 41.3853 41.0059C41.3528 41.0956 41.3081 41.0793 41.2553 40.9692C41.2147 40.8835 41.2187 40.8672 41.2837 40.8509C41.3244 40.8387 41.365 40.8427 41.3812 40.855C41.4137 40.8917 41.8687 40.8631 41.8809 40.8223C41.889 40.802 41.9175 40.7938 41.9419 40.806C41.9703 40.8142 42.2141 40.6511 42.4822 40.4431C42.7544 40.2351 43.0387 40.0312 43.12 39.9945C43.3353 39.8884 43.7009 39.8354 43.9569 39.864C44.0828 39.8762 44.3144 39.8966 44.4687 39.9048C44.6272 39.917 44.8303 39.9333 44.9237 39.9455C45.1106 39.9659 45.3219 39.8966 45.4397 39.7661C45.4844 39.7172 45.5656 39.6805 45.6347 39.6805C45.7119 39.6805 45.7484 39.6601 45.7565 39.6071C45.7565 39.5704 45.7647 39.5173 45.7687 39.4969C45.7769 39.4725 45.7809 39.4154 45.785 39.3664C45.7891 39.3012 45.8053 39.2808 45.854 39.3012C45.9069 39.3216 45.915 39.3093 45.8866 39.2278C45.8012 38.9627 45.8581 38.6324 46.0409 38.3673C46.0816 38.3102 46.1141 38.2205 46.1141 38.1756C46.1141 38.1267 46.1384 38.0451 46.1709 37.9962C46.2034 37.9472 46.2603 37.776 46.2969 37.621C46.3375 37.4619 46.3944 37.3192 46.4228 37.3029C46.4553 37.2866 46.4797 37.2499 46.4797 37.2254C46.4797 37.205 46.5366 37.1153 46.6016 37.0297C46.6706 36.944 46.7234 36.8584 46.7234 36.838C46.7234 36.8135 46.76 36.7646 46.8047 36.7238C46.8494 36.683 46.8859 36.63 46.8859 36.6014C46.8859 36.5199 47.0322 36.4139 47.1094 36.4424C47.1541 36.4628 47.2069 36.4342 47.2759 36.3568C47.3287 36.2915 47.3734 36.2385 47.3734 36.2344C47.3734 36.2303 47.3531 36.1651 47.3247 36.0917C47.2881 35.9775 47.2922 35.9489 47.345 35.9082C47.4059 35.8633 47.4912 35.692 47.479 35.639C47.479 35.6268 47.4953 35.5901 47.5197 35.5574C47.5481 35.5248 47.5806 35.4392 47.5969 35.3658C47.6131 35.2842 47.6781 35.1904 47.7675 35.1211C48.0762 34.8764 48.1331 34.8071 48.2266 34.5134C48.2875 34.3177 48.3444 34.2076 48.3972 34.1913C48.4378 34.179 48.4703 34.1464 48.4703 34.1219C48.4703 34.0934 48.5191 34.0159 48.5759 33.9506C48.6369 33.8813 48.7262 33.763 48.775 33.6856C48.9334 33.4368 49.0837 33.3267 49.2828 33.3022C49.3925 33.29 49.4819 33.2533 49.5144 33.2084C49.6119 33.0616 49.7459 32.9556 49.8597 32.927C49.9897 32.8985 50.0506 32.7924 50.075 32.5274C50.0912 32.3479 50.1969 32.1766 50.3269 32.1195C50.4041 32.0828 50.4366 32.038 50.5584 31.7811C50.595 31.7117 50.6397 31.6424 50.6641 31.6261C50.7169 31.5935 50.8266 31.3325 50.8266 31.2387C50.8266 31.202 50.8631 31.1367 50.9078 31.0959C50.9525 31.0551 50.9891 30.998 50.9891 30.9654C50.9891 30.9369 51.0134 30.8757 51.0419 30.8308C51.0825 30.7615 51.0784 30.7411 51.0337 30.7126C50.9484 30.6555 51.0378 30.2599 51.18 30.0723C51.2287 30.003 51.2734 29.9255 51.2734 29.9051C51.2734 29.8806 51.3019 29.8398 51.3344 29.8113C51.3669 29.7828 51.3953 29.7216 51.3953 29.6726C51.3953 29.6278 51.4319 29.5421 51.4766 29.485C51.5212 29.428 51.5578 29.3627 51.5578 29.3342C51.5578 29.2893 51.5822 29.224 51.7244 28.8937C51.7447 28.8489 51.765 28.7551 51.7691 28.6898C51.7731 28.6205 51.8137 28.5144 51.8584 28.4451C51.9031 28.3799 51.9437 28.2983 51.9519 28.2698C51.9559 28.2371 52.0128 28.1515 52.0778 28.0822C52.2119 27.9353 52.3134 27.6499 52.2403 27.605C52.2078 27.5846 52.2119 27.5071 52.2565 27.3277C52.3134 27.1116 52.3134 27.0708 52.2606 26.9688C52.2281 26.9076 52.1956 26.7323 52.1875 26.5814C52.1794 26.4264 52.159 26.2837 52.1428 26.2551C52.1225 26.2266 52.1144 26.1573 52.1184 26.1002C52.1225 26.039 52.09 25.9534 52.0453 25.9044C52.0006 25.8596 51.9641 25.7902 51.9641 25.7576C51.9641 25.725 51.9478 25.6842 51.9234 25.672C51.8991 25.6557 51.9031 25.6189 51.9356 25.5659C51.9762 25.5007 51.9722 25.4803 51.9275 25.4517C51.8869 25.4273 51.8869 25.411 51.9234 25.3865C51.9478 25.3702 51.9803 25.3702 51.9925 25.3824C52.0494 25.4395 52.1184 25.3172 52.09 25.2111C52.0575 25.1092 52.0616 24.9583 52.1022 24.3629C52.1144 24.2038 52.159 24.0366 52.2241 23.9061C52.3459 23.6614 52.35 23.6533 52.2687 23.6533C52.2362 23.6533 52.2078 23.6206 52.2078 23.5758C52.2078 23.535 52.1631 23.4698 52.1062 23.4331C51.9925 23.3596 51.9681 23.1802 52.0534 23.0293C52.1184 22.911 52.0941 22.7031 52.0128 22.6541C51.9397 22.6133 51.9153 22.6052 51.8219 22.597C51.7894 22.597 51.7609 22.5603 51.7609 22.5195C51.7609 22.4788 51.7325 22.4054 51.6919 22.3523C51.6553 22.2993 51.6269 22.1933 51.6309 22.1117C51.6391 21.9323 51.5862 21.8344 51.444 21.7692C51.2897 21.6958 51.0703 21.3532 51.0703 21.1819C51.0703 21.0147 50.9931 20.8393 50.92 20.8393C50.8916 20.8393 50.855 20.7863 50.8428 20.7211C50.8144 20.5824 50.6559 20.5172 50.5544 20.6028C50.5016 20.6436 50.4772 20.6354 50.3959 20.5335C50.3431 20.4641 50.2984 20.3907 50.2984 20.3663C50.2984 20.3418 50.2537 20.301 50.2009 20.2725C50.1481 20.2398 50.0912 20.1705 50.0791 20.1093C50.0669 20.0523 50.0222 19.9585 49.9775 19.9014C49.9125 19.8198 49.8922 19.8116 49.8353 19.8565C49.7784 19.9054 49.7703 19.8973 49.7703 19.8076C49.7703 19.7505 49.75 19.6567 49.7256 19.5996C49.6891 19.5221 49.6891 19.4813 49.7256 19.4405C49.7581 19.3997 49.7581 19.3508 49.7256 19.257C49.6891 19.151 49.6972 19.0776 49.7662 18.8655C49.8394 18.6371 49.8434 18.576 49.8028 18.3761C49.7784 18.2497 49.7419 18.1477 49.7256 18.1477C49.7053 18.1477 49.6891 18.1192 49.6891 18.0866C49.6891 18.054 49.6484 18.0091 49.6037 17.9805C49.4941 17.9235 49.4372 17.9928 49.4575 18.1559C49.4656 18.2212 49.4616 18.2701 49.4534 18.2701C49.4412 18.2701 49.3641 18.2048 49.2787 18.1274C49.1894 18.0499 49.1 17.9846 49.0797 17.9846C49.0553 17.9846 49.0391 17.952 49.0391 17.9112C49.0391 17.797 48.9212 17.5768 48.8603 17.5768C48.7466 17.5768 48.6531 17.744 48.6572 17.9316C48.6612 18.1151 48.6612 18.1151 48.6044 18.0091C48.5516 17.9031 48.4703 17.8664 48.4703 17.9438C48.4703 17.9642 48.45 17.9846 48.4216 17.9846C48.3972 17.9846 48.389 17.9724 48.4012 17.9561C48.4175 17.9438 48.3972 17.8827 48.3606 17.8256C48.2387 17.638 48.1087 16.9651 48.194 16.9651C48.2144 16.9651 48.2103 16.9284 48.1859 16.8876C48.1575 16.8346 48.1575 16.7979 48.1859 16.7816C48.2509 16.7408 48.2347 16.6388 48.1616 16.6388C48.1291 16.6388 48.1128 16.6184 48.125 16.598C48.1372 16.5736 48.1331 16.5573 48.1128 16.5573C48.0925 16.5573 48.0641 16.4879 48.0478 16.3982C48.0356 16.3126 47.9991 16.2188 47.9666 16.1943C47.9219 16.1576 47.9178 16.1168 47.9422 16.0475C47.9747 15.9619 47.9544 15.9251 47.8041 15.7702C47.7066 15.6682 47.5887 15.5744 47.54 15.5581C47.4912 15.5418 47.4587 15.5214 47.4709 15.5051C47.4872 15.4929 47.4547 15.4398 47.4059 15.3868C47.3572 15.3379 47.3328 15.2808 47.345 15.2645C47.3612 15.2523 47.3531 15.2155 47.3247 15.1829C47.2516 15.0932 47.3491 15.0157 47.4547 15.081C47.4994 15.1054 47.5644 15.1299 47.6009 15.1299C47.6619 15.1299 47.6619 15.1217 47.605 15.0361C47.5725 14.9872 47.5319 14.8852 47.5156 14.8077C47.4994 14.7262 47.4587 14.665 47.41 14.6528C47.3694 14.6405 47.3328 14.6038 47.3328 14.5753C47.3328 14.5427 47.3044 14.5182 47.2719 14.5182C47.2394 14.5182 47.2109 14.4856 47.2109 14.4407C47.2109 14.3306 47.0119 14.298 46.9712 14.404C46.9428 14.4774 46.9428 14.4774 46.8778 14.4081C46.8412 14.3673 46.8047 14.298 46.8006 14.2572C46.7925 14.2164 46.7478 14.1593 46.7031 14.1348C46.6584 14.1104 46.6097 14.0696 46.5934 14.0451C46.5772 14.0206 46.5203 14.0084 46.4675 14.0166C46.3578 14.037 46.2887 13.9717 46.2684 13.8249C46.2522 13.6903 46.0734 13.6536 46.0734 13.78C46.0734 13.9187 46.0003 13.8779 45.9556 13.7107C45.9312 13.6291 45.9109 13.5435 45.9109 13.5231C45.9109 13.4456 45.7037 13.05 45.6631 13.05C45.6387 13.05 45.6387 13.0786 45.6672 13.1316C45.7078 13.205 45.6997 13.2132 45.5981 13.2132C45.3706 13.2132 45.3056 13.1683 45.2609 13.0052C45.2162 12.838 45.1634 12.8013 45.1228 12.9073C45.0903 12.9929 44.9847 12.9848 44.9278 12.8869C44.8994 12.8421 44.8506 12.8054 44.8181 12.8054C44.7206 12.8054 44.4972 12.6422 44.3631 12.475L44.2372 12.3119L44.3062 12.0672C44.3428 11.9285 44.3672 11.8144 44.3591 11.8062C44.3509 11.8021 44.3062 11.7736 44.2534 11.7491C44.2006 11.7206 44.1437 11.6594 44.1234 11.6105C44.0991 11.5615 44.0422 11.4677 43.9934 11.4065L43.9 11.2924L43.9934 11.1211C44.0422 11.0273 44.0909 10.8927 44.0991 10.8274C44.1072 10.7581 44.1275 10.6398 44.1437 10.5583C44.16 10.4645 44.1559 10.3992 44.1275 10.3829C44.1031 10.3666 44.0828 10.2932 44.0828 10.2157C44.0828 10.1382 44.0666 10.0689 44.0462 10.0567C44.0259 10.0444 43.9975 9.96287 43.9812 9.88131C43.965 9.79567 43.9325 9.70187 43.9122 9.67332C43.8797 9.63662 43.8797 9.59176 43.9162 9.51835C43.9853 9.36746 43.9731 9.33891 43.8431 9.33891C43.7497 9.33891 43.705 9.30629 43.6359 9.19617C43.5872 9.11869 43.5344 9.05344 43.5181 9.05344C43.4775 9.05344 43.2703 8.65786 43.2703 8.58037C43.2703 8.54775 43.2947 8.51104 43.3231 8.49881C43.3556 8.48658 43.3719 8.41317 43.3678 8.28675C43.3556 8.00127 43.3556 8.00535 43.3028 7.94418C43.2581 7.89932 43.2459 7.81776 43.2297 7.45072C43.2256 7.41402 43.2094 7.38139 43.185 7.38139C43.1281 7.38139 43.1403 7.16117 43.2094 7.07145C43.2866 6.9695 43.2866 6.8757 43.2094 6.90833C43.12 6.94095 43.1322 6.76151 43.2297 6.63509L43.3109 6.53313L43.2094 6.46788C43.1525 6.43118 43.1119 6.38224 43.12 6.35777C43.1241 6.33331 43.0631 6.29252 42.9859 6.26805C42.8965 6.23543 42.8072 6.16202 42.7462 6.06414C42.6934 5.98258 42.6244 5.91325 42.5919 5.91325C42.5634 5.91325 42.5391 5.89286 42.5391 5.87247C42.5391 5.848 42.5065 5.83169 42.4619 5.83169C42.3441 5.83169 42.279 5.72974 42.3359 5.63186C42.3644 5.57476 42.3644 5.54622 42.3359 5.54622C42.3156 5.54622 42.2953 5.51359 42.2953 5.47281C42.2912 5.3994 42.2059 5.26075 42.1572 5.26075C42.1409 5.26075 42.0759 5.30153 42.0069 5.35047C41.9053 5.42795 41.8728 5.43203 41.8037 5.39125C41.7225 5.33823 41.625 5.3627 41.6656 5.42387C41.7103 5.49728 41.5072 5.63186 41.365 5.61963C41.1862 5.60331 41.0847 5.46873 41.0522 5.19957C41.04 5.08538 40.9831 4.89779 40.9262 4.77952C40.8287 4.56746 40.8287 4.56338 40.8978 4.32277C40.9466 4.14741 40.9547 4.06585 40.9222 4.02506C40.8572 3.94758 40.8125 3.36032 40.8694 3.3277C40.9669 3.26653 40.91 3.20943 40.7719 3.2339C40.6134 3.25837 40.6053 3.24613 40.6906 3.09932C40.7759 2.94843 40.7637 2.87502 40.65 2.822C40.585 2.78938 40.5484 2.74044 40.5484 2.67927C40.5484 2.56916 40.4347 2.44681 40.3331 2.44681C40.2966 2.44681 40.2722 2.42234 40.2803 2.3938C40.2925 2.36933 40.3087 2.29592 40.3209 2.23067C40.3372 2.1695 40.3859 2.07978 40.4306 2.03492L40.5119 1.95335L40.4184 1.87587C40.3615 1.82693 40.2925 1.80654 40.2316 1.82285C40.1747 1.83509 40.1097 1.81878 40.0609 1.77391C39.9919 1.71274 39.9797 1.64749 39.9837 1.34978C39.9837 1.02761 39.9715 0.888954 39.9147 0.619797C39.9025 0.56678 39.8294 0.460747 39.744 0.383263C39.6262 0.277229 39.6059 0.236446 39.6465 0.195667C39.6831 0.158962 39.6791 0.130417 39.6262 0.0733223C39.5897 0.0325394 39.549 0.00399017 39.5369 0.00399017C39.5247 0.0080719 39.4841 0.0162277 39.4515 0.0243835ZM14.9547 6.85531C14.9547 6.92871 14.9465 6.9328 14.8937 6.89201C14.8328 6.84307 14.845 6.76967 14.9181 6.76967C14.9384 6.76967 14.9547 6.81045 14.9547 6.85531ZM14.3859 8.31937C14.3859 8.33976 14.3453 8.36015 14.2965 8.35608C14.2072 8.35608 14.2072 8.352 14.2844 8.31937C14.329 8.29898 14.3697 8.28267 14.3778 8.28267C14.3819 8.27859 14.3859 8.2949 14.3859 8.31937ZM32.0781 31.3977C32.0903 31.4181 32.0822 31.4466 32.0578 31.463C32.0375 31.4752 32.0172 31.4589 32.0172 31.4263C32.0172 31.3528 32.0415 31.3406 32.0781 31.3977ZM47.2272 36.2752C47.2109 36.3078 47.1947 36.3364 47.1866 36.3364C47.1784 36.3364 47.1703 36.3078 47.1703 36.2752C47.1703 36.2426 47.1866 36.214 47.2109 36.214C47.2312 36.214 47.2394 36.2426 47.2272 36.2752ZM39.939 39.5336C39.939 39.5622 39.9634 39.6397 39.9959 39.7009C40.0487 39.7987 40.0447 39.8232 39.9634 39.9455C39.87 40.1005 39.7766 40.1494 39.6506 40.1087C39.5937 40.0883 39.5775 40.0597 39.5978 40.0149C39.6141 39.9741 39.6262 39.9088 39.6303 39.864C39.6344 39.7946 39.61 39.7824 39.4719 39.7906L39.3094 39.7987L39.4719 39.7009C39.5612 39.6438 39.6547 39.5989 39.6791 39.5989C39.7034 39.5989 39.7481 39.5704 39.7766 39.5377C39.8415 39.4602 39.939 39.4562 39.939 39.5336Z" fill="#454647"/>
<path d="M31.3956 35.6023C31.2453 35.6186 31.0991 35.6512 31.0747 35.6757C31.0462 35.7042 30.9569 35.7246 30.8756 35.7246C30.6278 35.7246 30.445 35.8266 30.4125 35.9775C30.3881 36.0835 30.3962 36.1202 30.4694 36.1651C30.5141 36.1977 30.5547 36.2466 30.5547 36.2752C30.5547 36.3241 30.9081 36.3201 31.1234 36.267C31.2575 36.2344 31.3306 36.2466 31.4159 36.3241C31.4809 36.3812 31.4972 36.3812 31.5906 36.3201C31.6475 36.2833 31.6922 36.2263 31.6922 36.1936C31.6922 36.0917 31.8384 36.0427 32.0131 36.0917C32.2812 36.1651 32.3991 36.0427 32.2122 35.8837C32.1147 35.794 31.9928 35.7817 31.9644 35.8551C31.9481 35.8959 31.9359 35.8959 31.9034 35.8551C31.8831 35.8225 31.8303 35.8062 31.7897 35.8144C31.7247 35.8225 31.7166 35.8062 31.7247 35.692C31.7328 35.6227 31.7247 35.5656 31.7044 35.5656C31.6881 35.5697 31.5459 35.586 31.3956 35.6023Z" fill="#454647"/>
<path d="M38.4767 41.8379C38.4767 41.8583 38.4482 41.9031 38.4157 41.9358C38.3426 42.0092 38.302 42.5719 38.3629 42.6454C38.3913 42.6821 38.432 42.6739 38.5295 42.6046C38.6026 42.5556 38.6676 42.5108 38.6717 42.5067C38.6798 42.5026 38.696 42.3721 38.7042 42.2171C38.7204 41.9521 38.7163 41.9276 38.6188 41.8664C38.5051 41.793 38.4767 41.7849 38.4767 41.8379Z" fill="#454647"/>
<path d="M42.8558 42.4822C42.8152 42.4944 42.7827 42.5189 42.7827 42.5434C42.7827 42.5678 42.7502 42.6127 42.7137 42.6412C42.6446 42.6943 42.6446 42.7024 42.7137 42.7554C42.7543 42.7881 42.7746 42.837 42.7583 42.8778C42.7462 42.9145 42.7502 42.943 42.7746 42.943C42.8112 42.943 42.8721 43.1021 42.8802 43.2285C42.8843 43.2734 42.933 43.2897 43.0671 43.2897H43.2499L43.2702 43.0695C43.2905 42.8778 43.2824 42.8452 43.2174 42.8288C43.1768 42.8207 43.1077 42.7391 43.0671 42.6535C42.9777 42.4781 42.9533 42.4618 42.8558 42.4822Z" fill="#454647"/>
<path d="M39.1469 43.4365C39.1265 43.465 39.1144 43.5507 39.1184 43.6241C39.1265 43.6975 39.1103 43.7586 39.0859 43.7586C39.0209 43.7586 38.9559 43.9626 39.0006 44.0197C39.025 44.0441 39.0412 44.1298 39.0412 44.2072C39.0412 44.4112 39.0697 44.5906 39.1184 44.6844C39.1428 44.7293 39.1672 44.8067 39.1753 44.8638C39.1834 44.9168 39.2403 45.0433 39.2972 45.1452C39.3581 45.2472 39.4231 45.3777 39.4475 45.4389C39.4922 45.5571 39.4719 45.6754 39.4069 45.6754C39.354 45.6754 39.3865 46.3197 39.4434 46.3768C39.4719 46.4054 39.4922 46.4706 39.4922 46.5236C39.4922 46.6705 39.5815 46.9396 39.6181 46.9151C39.6547 46.8948 39.8578 47.2863 39.8578 47.376C39.8578 47.4045 39.8862 47.429 39.9228 47.429C39.9553 47.429 39.9756 47.4453 39.9594 47.4657C39.9472 47.4861 39.9553 47.5146 39.9797 47.531C40 47.5432 40.0203 47.6044 40.0203 47.6655C40.0203 47.7756 40.0244 47.7756 40.2884 47.7797C40.5078 47.7838 40.5728 47.8001 40.6256 47.8654C40.7353 47.9999 40.9953 48.0244 40.9953 47.898C40.9953 47.8735 41.0278 47.8164 41.0725 47.7797C41.1415 47.7145 41.1497 47.7145 41.174 47.7797C41.1903 47.8164 41.2106 47.8368 41.2269 47.8246C41.239 47.8083 41.2837 47.8164 41.3244 47.8409C41.3853 47.8735 41.4097 47.8572 41.4625 47.7593C41.495 47.6941 41.5112 47.6084 41.499 47.5758C41.4828 47.531 41.499 47.5106 41.5437 47.5106C41.6006 47.5106 41.6128 47.4861 41.5925 47.3719C41.5722 47.2455 41.5803 47.2251 41.69 47.1884C41.7956 47.1517 41.8078 47.1354 41.7834 47.0334C41.755 46.9315 41.759 46.9233 41.82 46.9763C41.8728 47.0171 41.8769 47.0497 41.8444 47.1068C41.7956 47.2006 41.82 47.4086 41.8931 47.4942C41.9297 47.5391 41.954 47.5432 41.9987 47.5065C42.0394 47.4698 42.0678 47.4698 42.1003 47.5024C42.1856 47.588 42.2222 47.5554 42.21 47.3882C42.2019 47.3026 42.21 47.2169 42.2262 47.2006C42.2709 47.1558 42.2587 47.0008 42.21 46.9519C42.149 46.8907 42.2059 46.805 42.2831 46.8377C42.3562 46.8621 42.4984 46.752 42.4984 46.6664C42.4984 46.5848 42.3765 46.5481 42.3319 46.6174C42.3034 46.6623 42.2953 46.6623 42.2953 46.6215C42.2953 46.593 42.3237 46.54 42.3562 46.5033C42.3887 46.4706 42.409 46.4258 42.3928 46.4054C42.3806 46.3809 42.3928 46.336 42.4212 46.3034C42.4456 46.2708 42.4578 46.2341 42.4456 46.2178C42.4009 46.177 42.5512 45.9609 42.6244 45.9609C42.6812 45.9609 42.6894 45.9853 42.6731 46.071C42.6325 46.2749 42.6406 46.3034 42.7178 46.3197C42.7747 46.332 42.7869 46.3197 42.7706 46.2708C42.7584 46.2382 42.7625 46.1974 42.7869 46.1811C42.8072 46.1688 42.8234 46.071 42.8234 45.969C42.8153 45.6999 42.8559 45.3614 42.9006 45.2716C42.925 45.2309 42.929 45.1615 42.9169 45.1126C42.9047 45.0596 42.925 44.978 42.9656 44.9168C43.0184 44.8353 43.0265 44.7863 42.994 44.717C42.9615 44.6477 42.9697 44.5987 43.0306 44.4968C43.12 44.3459 43.0834 44.2154 42.8884 44.0319C42.7544 43.9095 42.6609 43.8891 42.6609 43.9829C42.6609 44.0767 42.5472 44.1053 42.4334 44.0441C42.344 43.9952 42.3237 43.9993 42.2181 44.1012C42.1165 44.1991 42.0922 44.2072 42.019 44.1624C41.954 44.1216 41.9215 44.1216 41.8769 44.1583C41.8444 44.1869 41.7875 44.1991 41.755 44.1828C41.6859 44.1583 41.2431 44.2358 41.1781 44.2888C41.1009 44.3459 40.7231 44.3051 40.6053 44.2236C40.5403 44.1787 40.4387 44.1216 40.3778 44.0931C40.3128 44.0686 40.264 44.0197 40.264 43.9829C40.264 43.9503 40.2397 43.9218 40.2072 43.9218C40.1747 43.9218 40.1219 43.8973 40.0894 43.8647C40.0609 43.8321 39.9878 43.7994 39.935 43.7913C39.8822 43.7872 39.8334 43.7505 39.8334 43.7179C39.8294 43.6852 39.8253 43.6322 39.8212 43.6037C39.8172 43.5343 39.7359 43.5425 39.7359 43.6159C39.7359 43.6485 39.6994 43.6771 39.6547 43.6771C39.5572 43.6771 39.289 43.5303 39.224 43.4406C39.1875 43.3916 39.1753 43.3875 39.1469 43.4365ZM39.614 45.8793L39.6669 45.9812L39.5856 45.8997C39.5409 45.8548 39.5125 45.8018 39.5206 45.7855C39.545 45.7447 39.549 45.7488 39.614 45.8793ZM42.0272 47.1231C42.0394 47.1558 42.0312 47.1843 42.0109 47.1843C41.9865 47.1843 41.9703 47.1558 41.9703 47.1231C41.9703 47.0905 41.9784 47.062 41.9865 47.062C41.9947 47.062 42.0109 47.0905 42.0272 47.1231ZM41.2797 47.5717C41.2512 47.6044 41.2106 47.6329 41.1903 47.6329C41.1659 47.6329 41.17 47.6044 41.1984 47.5717C41.2269 47.5391 41.2675 47.5106 41.2878 47.5106C41.3122 47.5106 41.3081 47.5391 41.2797 47.5717Z" fill="#454647"/>
</g>
<defs>
<clipPath id="clip0_1132_12933">
<rect width="52" height="48" fill="white" transform="translate(0.32959)"/>
</clipPath>
</defs>
</svg>
