<svg width="24" height="24" viewBox="0 0 24 24" fill="none" xmlns="http://www.w3.org/2000/svg">
<path d="M16.75 3V3.5H17.25H19.5C19.7652 3.5 20.0196 3.60536 20.2071 3.79289C20.3946 3.98043 20.5 4.23478 20.5 4.5V19.5C20.5 19.7652 20.3946 20.0196 20.2071 20.2071C20.0196 20.3946 19.7652 20.5 19.5 20.5H4.5C4.23478 20.5 3.98043 20.3946 3.79289 20.2071C3.60536 20.0196 3.5 19.7652 3.5 19.5V4.5C3.5 4.23478 3.60536 3.98043 3.79289 3.79289C3.98043 3.60536 4.23478 3.5 4.5 3.5H6.75H7.25V3V2.25C7.25 2.1837 7.27634 2.12011 7.32322 2.07322C7.37011 2.02634 7.4337 2 7.5 2C7.5663 2 7.62989 2.02634 7.67678 2.07322C7.72366 2.12011 7.75 2.1837 7.75 2.25V3V3.5H8.25H15.75H16.25V3V2.25C16.25 2.18369 16.2763 2.12011 16.3232 2.07322C16.3701 2.02634 16.4337 2 16.5 2C16.5663 2 16.6299 2.02634 16.6768 2.07322C16.7237 2.12011 16.75 2.18369 16.75 2.25V3ZM7.25 4.5V4H6.75H4.5H4V4.5V7.5V8H4.5H19.5H20V7.5V4.5V4H19.5H17.25H16.75V4.5V5.25C16.75 5.31631 16.7237 5.37989 16.6768 5.42678L17.0303 5.78033L16.6768 5.42678C16.6299 5.47366 16.5663 5.5 16.5 5.5C16.4337 5.5 16.3701 5.47366 16.3232 5.42678L15.9697 5.78033L16.3232 5.42678C16.2763 5.37989 16.25 5.31631 16.25 5.25V4.5V4H15.75H8.25H7.75V4.5V5.25C7.75 5.3163 7.72366 5.37989 7.67678 5.42678L8.03033 5.78033L7.67678 5.42678C7.62989 5.47366 7.5663 5.5 7.5 5.5C7.4337 5.5 7.37011 5.47366 7.32322 5.42678C7.27634 5.37989 7.25 5.3163 7.25 5.25V4.5ZM19.5 20H20V19.5V9V8.5H19.5H4.5H4V9V19.5V20H4.5H19.5ZM10 11.2496V11.25V17.25C10 17.3163 9.97366 17.3799 9.92678 17.4268C9.87989 17.4737 9.8163 17.5 9.75 17.5C9.6837 17.5 9.62011 17.4737 9.57322 17.4268C9.52634 17.3799 9.5 17.3163 9.5 17.25V12.4631V11.6525L8.77558 12.0163L8.36202 12.224C8.3619 12.2241 8.36179 12.2242 8.36167 12.2242C8.30233 12.2538 8.23369 12.2586 8.17079 12.2376C8.10777 12.2166 8.05567 12.1714 8.02596 12.112C7.99625 12.0526 7.99137 11.9838 8.01237 11.9208C8.03338 11.8578 8.07856 11.8057 8.13798 11.776L9.63798 11.026L9.63812 11.0259C9.67625 11.0068 9.71863 10.9978 9.76122 10.9997L9.78367 10.5002L9.76122 10.9997C9.80382 11.0016 9.84521 11.0144 9.88147 11.0368L10.1444 10.6116L9.88148 11.0368C9.91774 11.0592 9.94767 11.0906 9.96841 11.1278L10.4052 10.8845L9.96841 11.1278C9.98916 11.1651 10 11.207 10 11.2496ZM10.5 11.25V17.25C10.5 17.4489 10.421 17.6397 10.2803 17.7803C10.1397 17.921 9.94891 18 9.75 18C9.55109 18 9.36032 17.921 9.21967 17.7803C9.07902 17.6397 9 17.4489 9 17.25V13.0226L9.22442 12.9099L9 12.4631H8.5L10.5 11.25ZM15.6481 13.8022L15.6462 13.8047L13.85 16.2L13.2501 17H14.25H15.75C15.8163 17 15.8799 17.0263 15.9268 17.0732C15.9737 17.1201 16 17.1837 16 17.25C16 17.3163 15.9737 17.3799 15.9268 17.4268C15.8799 17.4737 15.8163 17.5 15.75 17.5H12.75C12.7036 17.5 12.6581 17.4871 12.6186 17.4627C12.5791 17.4383 12.5472 17.4033 12.5264 17.3618C12.5056 17.3203 12.4968 17.2738 12.501 17.2275C12.5052 17.1813 12.5221 17.1371 12.55 17.1L15.2479 13.5031C15.3502 13.3669 15.4236 13.2113 15.4635 13.0458C15.5035 12.8802 15.5092 12.7082 15.4804 12.5404L14.9876 12.6252L15.4804 12.5404C15.4515 12.3726 15.3886 12.2124 15.2956 12.0697C15.2026 11.927 15.0814 11.8049 14.9395 11.7107C14.7976 11.6166 14.6379 11.5524 14.4703 11.5222C14.3027 11.492 14.1307 11.4963 13.9648 11.535C13.799 11.5736 13.6427 11.6457 13.5058 11.7469L13.8028 12.1491L13.5058 11.7469C13.3688 11.8481 13.2539 11.9762 13.1682 12.1234L13.1645 12.1299L13.1609 12.1364C13.145 12.1657 13.1233 12.1916 13.0973 12.2124C13.0712 12.2333 13.0412 12.2487 13.009 12.2577C12.9769 12.2668 12.9433 12.2693 12.9102 12.2652C12.877 12.261 12.8451 12.2503 12.8162 12.2336C12.7873 12.2169 12.762 12.1946 12.7418 12.1679C12.7217 12.1413 12.7071 12.1109 12.6989 12.0786C12.6907 12.0462 12.689 12.0125 12.6941 11.9795C12.6991 11.9465 12.7106 11.9149 12.7281 11.8864L12.7282 11.8865L12.7348 11.8752C12.9275 11.5417 13.2248 11.2811 13.5806 11.1338C13.9365 10.9865 14.331 10.9607 14.703 11.0604C15.075 11.1601 15.4037 11.3797 15.6382 11.6852C15.8727 11.9907 15.9999 12.365 16 12.7502L16 12.7516C16.0012 13.131 15.8776 13.5002 15.6481 13.8022Z" fill="#28292A" stroke="#28292A"/>
</svg>
