<svg width="68" height="68" viewBox="0 0 68 68" fill="none" xmlns="http://www.w3.org/2000/svg">
<rect width="68" height="68" rx="34" fill="#FEFEFE"/>
<path fill-rule="evenodd" clip-rule="evenodd" d="M26.5 36C26.5 34.0109 27.2902 32.1032 28.6967 30.6967C30.1032 29.2902 32.0109 28.5 34 28.5C35.9891 28.5 37.8968 29.2902 39.3033 30.6967C40.7098 32.1032 41.5 34.0109 41.5 36C41.5 37.9891 40.7098 39.8968 39.3033 41.3033C37.8968 42.7098 35.9891 43.5 34 43.5C32.0109 43.5 30.1032 42.7098 28.6967 41.3033C27.2902 39.8968 26.5 37.9891 26.5 36ZM34 31.5C32.8065 31.5 31.6619 31.9741 30.818 32.818C29.9741 33.6619 29.5 34.8065 29.5 36C29.5 37.1935 29.9741 38.3381 30.818 39.182C31.6619 40.0259 32.8065 40.5 34 40.5C35.1935 40.5 36.3381 40.0259 37.182 39.182C38.0259 38.3381 38.5 37.1935 38.5 36C38.5 34.8065 38.0259 33.6619 37.182 32.818C36.3381 31.9741 35.1935 31.5 34 31.5Z" fill="#27861D"/>
<path fill-rule="evenodd" clip-rule="evenodd" d="M31.232 21.5C30.7349 21.4995 30.2426 21.597 29.7833 21.787C29.324 21.9769 28.9066 22.2557 28.5551 22.6071C28.2037 22.9586 27.9249 23.376 27.735 23.8353C27.545 24.2946 27.4475 24.7869 27.448 25.284C27.4477 25.9264 27.2058 26.5451 26.7705 27.0175C26.3352 27.4899 25.7382 27.7813 25.098 27.834L20.638 28.194C20.2115 28.2283 19.8081 28.402 19.4901 28.6883C19.172 28.9745 18.9569 29.3574 18.878 29.778C17.9804 34.5178 17.9141 39.3775 18.682 44.14L18.876 45.348C19.06 46.488 19.998 47.358 21.15 47.452L25.036 47.768C31.0022 48.2523 36.9978 48.2523 42.964 47.768L46.848 47.452C47.4081 47.4067 47.9369 47.1748 48.3496 46.7933C48.7622 46.4118 49.0349 45.9029 49.124 45.348L49.318 44.14C50.0852 39.3774 50.0182 34.5176 49.12 29.778C49.0407 29.3578 48.8254 28.9754 48.5074 28.6895C48.1894 28.4036 47.7862 28.2302 47.36 28.196L42.902 27.834C42.2618 27.7813 41.6648 27.4899 41.2295 27.0175C40.7942 26.5451 40.5523 25.9264 40.552 25.284C40.5525 24.7869 40.455 24.2946 40.265 23.8353C40.0751 23.376 39.7963 22.9586 39.4449 22.6071C39.0934 22.2557 38.676 21.9769 38.2167 21.787C37.7574 21.597 37.2651 21.4995 36.768 21.5H31.232ZM24.46 24.876C24.5644 23.1507 25.3233 21.5302 26.5818 20.3453C27.8403 19.1604 29.5035 18.5004 31.232 18.5H36.768C40.378 18.5 43.328 21.32 43.54 24.876L47.604 25.206C48.6852 25.2933 49.7077 25.7334 50.5143 26.4587C51.3209 27.1839 51.8668 28.1541 52.068 29.22C53.03 34.3 53.102 39.51 52.28 44.616L52.086 45.826C51.89 47.0432 51.2915 48.1595 50.3861 48.9964C49.4807 49.8332 48.3208 50.3422 47.092 50.442L43.208 50.758C37.0794 51.2546 30.9206 51.2546 24.792 50.758L20.908 50.442C19.6792 50.3422 18.5193 49.8332 17.6139 48.9964C16.7085 48.1595 16.11 47.0432 15.914 45.826L15.72 44.616C14.8976 39.5105 14.9693 34.3009 15.932 29.22C16.1335 28.1543 16.6795 27.1843 17.4861 26.459C18.2926 25.7338 19.3149 25.2936 20.396 25.206L24.46 24.876Z" fill="#27861D"/>
</svg>
