<svg width="69" height="68" viewBox="0 0 69 68" fill="none" xmlns="http://www.w3.org/2000/svg">
<rect x="0.5" width="68" height="68" rx="34" fill="#FEFEFE"/>
<path d="M55.5 29.875C54.1204 29.875 52.8701 29.0625 52.3097 27.8018L47.9231 17.9331C47.7168 17.4694 47.3805 17.0754 46.9549 16.7988C46.5293 16.5223 46.0326 16.3751 45.525 16.375H23.475C22.9674 16.3751 22.4707 16.5223 22.0451 16.7988C21.6195 17.0754 21.2832 17.4694 21.0769 17.9331L16.6903 27.8018C16.1299 29.0625 14.8796 29.875 13.5 29.875C13.2016 29.875 12.9155 29.9935 12.7045 30.2045C12.4935 30.4155 12.375 30.7016 12.375 31C12.375 31.2984 12.4935 31.5845 12.7045 31.7955C12.9155 32.0065 13.2016 32.125 13.5 32.125C14.5355 32.125 15.375 32.9645 15.375 34V47.5C15.375 48.1962 15.6516 48.8639 16.1438 49.3562C16.6361 49.8484 17.3038 50.125 18 50.125H22.5C23.1962 50.125 23.8639 49.8484 24.3562 49.3562C24.8484 48.8639 25.125 48.1962 25.125 47.5C25.125 45.636 26.636 44.125 28.5 44.125H40.5C42.364 44.125 43.875 45.636 43.875 47.5C43.875 48.1962 44.1516 48.8639 44.6438 49.3562C45.1361 49.8484 45.8038 50.125 46.5 50.125H51C51.6962 50.125 52.3639 49.8484 52.8562 49.3562C53.3484 48.8639 53.625 48.1962 53.625 47.5V34C53.625 32.9645 54.4645 32.125 55.5 32.125C55.7984 32.125 56.0845 32.0065 56.2955 31.7955C56.5065 31.5845 56.625 31.2984 56.625 31C56.625 30.7016 56.5065 30.4155 56.2955 30.2045C56.0845 29.9935 55.7984 29.875 55.5 29.875ZM23.1319 18.8481C23.1613 18.7817 23.2094 18.7252 23.2703 18.6856C23.3312 18.646 23.4023 18.625 23.475 18.625H45.525C45.5977 18.625 45.6688 18.646 45.7297 18.6856C45.7906 18.7252 45.8387 18.7817 45.8681 18.8481L48.2693 24.2503C49.445 26.8955 47.5088 29.875 44.6141 29.875H24.3859C21.4912 29.875 19.555 26.8955 20.7307 24.2503L23.1319 18.8481ZM22.875 47.5C22.875 47.5995 22.8355 47.6948 22.7652 47.7652C22.6948 47.8355 22.5995 47.875 22.5 47.875H18C17.9005 47.875 17.8052 47.8355 17.7348 47.7652C17.6645 47.6948 17.625 47.5995 17.625 47.5V46.75C17.625 45.3003 18.8003 44.125 20.25 44.125C21.6997 44.125 22.875 45.3003 22.875 46.75V47.5ZM51 47.875H46.5C46.4005 47.875 46.3052 47.8355 46.2348 47.7652C46.1645 47.6948 46.125 47.5995 46.125 47.5V46.75C46.125 45.3003 47.3003 44.125 48.75 44.125C50.1997 44.125 51.375 45.3003 51.375 46.75V47.5C51.375 47.5995 51.3355 47.6948 51.2652 47.7652C51.1948 47.8355 51.0995 47.875 51 47.875ZM51.375 37.875C51.375 40.0841 49.5841 41.875 47.375 41.875H21.625C19.4159 41.875 17.625 40.0841 17.625 37.875V36.125C17.625 33.9159 19.4159 32.125 21.625 32.125H47.375C49.5841 32.125 51.375 33.9159 51.375 36.125V37.875ZM21.375 37C21.375 36.7016 21.4935 36.4155 21.7045 36.2045C21.9155 35.9935 22.2016 35.875 22.5 35.875H25.5C25.7984 35.875 26.0845 35.9935 26.2955 36.2045C26.5065 36.4155 26.625 36.7016 26.625 37C26.625 37.2984 26.5065 37.5845 26.2955 37.7955C26.0845 38.0065 25.7984 38.125 25.5 38.125H22.5C22.2016 38.125 21.9155 38.0065 21.7045 37.7955C21.4935 37.5845 21.375 37.2984 21.375 37ZM42.375 37C42.375 36.7016 42.4935 36.4155 42.7045 36.2045C42.9155 35.9935 43.2016 35.875 43.5 35.875H46.5C46.7984 35.875 47.0845 35.9935 47.2955 36.2045C47.5065 36.4155 47.625 36.7016 47.625 37C47.625 37.2984 47.5065 37.5845 47.2955 37.7955C47.0845 38.0065 46.7984 38.125 46.5 38.125H43.5C43.2016 38.125 42.9155 38.0065 42.7045 37.7955C42.4935 37.5845 42.375 37.2984 42.375 37Z" fill="#27861D"/>
</svg>
