<svg width="24" height="25" viewBox="0 0 24 25" fill="none" xmlns="http://www.w3.org/2000/svg">
<mask id="path-1-inside-1_587_882" fill="white">
<path d="M19.5 3.22461H17.0625V2.28711C17.0625 2.13793 17.0032 1.99485 16.8977 1.88936C16.7923 1.78387 16.6492 1.72461 16.5 1.72461C16.3508 1.72461 16.2077 1.78387 16.1023 1.88936C15.9968 1.99485 15.9375 2.13793 15.9375 2.28711V3.22461H8.0625V2.28711C8.0625 2.13793 8.00324 1.99485 7.89775 1.88936C7.79226 1.78387 7.64918 1.72461 7.5 1.72461C7.35082 1.72461 7.20774 1.78387 7.10225 1.88936C6.99676 1.99485 6.9375 2.13793 6.9375 2.28711V3.22461H4.5C4.1519 3.22461 3.81806 3.36289 3.57192 3.60903C3.32578 3.85517 3.1875 4.18901 3.1875 4.53711V19.5371C3.1875 19.8852 3.32578 20.219 3.57192 20.4652C3.81806 20.7113 4.1519 20.8496 4.5 20.8496H19.5C19.8481 20.8496 20.1819 20.7113 20.4281 20.4652C20.6742 20.219 20.8125 19.8852 20.8125 19.5371V4.53711C20.8125 4.18901 20.6742 3.85517 20.4281 3.60903C20.1819 3.36289 19.8481 3.22461 19.5 3.22461ZM4.5 4.34961H6.9375V5.28711C6.9375 5.43629 6.99676 5.57937 7.10225 5.68486C7.20774 5.79035 7.35082 5.84961 7.5 5.84961C7.64918 5.84961 7.79226 5.79035 7.89775 5.68486C8.00324 5.57937 8.0625 5.43629 8.0625 5.28711V4.34961H15.9375V5.28711C15.9375 5.43629 15.9968 5.57937 16.1023 5.68486C16.2077 5.79035 16.3508 5.84961 16.5 5.84961C16.6492 5.84961 16.7923 5.79035 16.8977 5.68486C17.0032 5.57937 17.0625 5.43629 17.0625 5.28711V4.34961H19.5C19.5497 4.34961 19.5974 4.36936 19.6326 4.40453C19.6677 4.43969 19.6875 4.48738 19.6875 4.53711V7.72461H4.3125V4.53711C4.3125 4.48738 4.33225 4.43969 4.36742 4.40453C4.40258 4.36936 4.45027 4.34961 4.5 4.34961ZM19.5 19.7246H4.5C4.45027 19.7246 4.40258 19.7049 4.36742 19.6697C4.33225 19.6345 4.3125 19.5868 4.3125 19.5371V8.84961H19.6875V19.5371C19.6875 19.5868 19.6677 19.6345 19.6326 19.6697C19.5974 19.7049 19.5497 19.7246 19.5 19.7246ZM10.3125 11.2871V17.2871C10.3125 17.4363 10.2532 17.5794 10.1477 17.6849C10.0423 17.7903 9.89918 17.8496 9.75 17.8496C9.60082 17.8496 9.45774 17.7903 9.35225 17.6849C9.24676 17.5794 9.1875 17.4363 9.1875 17.2871V12.1974L8.50125 12.5405C8.43514 12.5735 8.36317 12.5932 8.28947 12.5984C8.21576 12.6036 8.14176 12.5942 8.07168 12.5708C8.0016 12.5473 7.93682 12.5103 7.88103 12.4619C7.82525 12.4134 7.77956 12.3545 7.74656 12.2884C7.71357 12.2222 7.69392 12.1503 7.68874 12.0766C7.68355 12.0029 7.69294 11.9289 7.71636 11.8588C7.73977 11.7887 7.77676 11.7239 7.82522 11.6681C7.87367 11.6124 7.93264 11.5667 7.99875 11.5337L9.49875 10.7837C9.58452 10.7409 9.67982 10.7207 9.77558 10.725C9.87135 10.7294 9.96442 10.7581 10.0459 10.8086C10.1275 10.859 10.1948 10.9295 10.2414 11.0132C10.2881 11.097 10.3125 11.1912 10.3125 11.2871ZM15.8972 14.0293L13.875 16.7246H15.75C15.8992 16.7246 16.0423 16.7839 16.1477 16.8894C16.2532 16.9949 16.3125 17.1379 16.3125 17.2871C16.3125 17.4363 16.2532 17.5794 16.1477 17.6849C16.0423 17.7903 15.8992 17.8496 15.75 17.8496H12.75C12.6455 17.8496 12.5431 17.8205 12.4543 17.7656C12.3654 17.7107 12.2936 17.6321 12.2469 17.5387C12.2002 17.4452 12.1804 17.3406 12.1898 17.2366C12.1992 17.1326 12.2373 17.0332 12.3 16.9496L15 13.3496C15.0777 13.2475 15.1337 13.1304 15.1643 13.0058C15.195 12.8811 15.1997 12.7515 15.1782 12.6249C15.1568 12.4983 15.1095 12.3775 15.0394 12.27C14.9693 12.1624 14.8779 12.0704 14.7708 11.9996C14.6636 11.9289 14.5431 11.8809 14.4167 11.8586C14.2903 11.8363 14.1606 11.8402 14.0358 11.8701C13.9109 11.9 13.7935 11.9552 13.6909 12.0323C13.5882 12.1094 13.5025 12.2068 13.4391 12.3184C13.4055 12.3883 13.3579 12.4505 13.2991 12.5012C13.2404 12.5518 13.1718 12.5898 13.0976 12.6126C13.0235 12.6355 12.9455 12.6428 12.8684 12.634C12.7913 12.6252 12.7169 12.6006 12.6498 12.5617C12.5827 12.5228 12.5243 12.4705 12.4784 12.4079C12.4325 12.3454 12.4001 12.2741 12.3831 12.1984C12.3661 12.1227 12.3649 12.0443 12.3796 11.9682C12.3944 11.892 12.4247 11.8197 12.4688 11.7559C12.6101 11.5132 12.7996 11.3019 13.0255 11.135C13.2514 10.9681 13.509 10.8492 13.7825 10.7854C14.056 10.7216 14.3397 10.7143 14.6161 10.7641C14.8925 10.8138 15.1559 10.9194 15.39 11.0746C15.6242 11.2297 15.8242 11.431 15.9777 11.6661C16.1313 11.9013 16.2353 12.1653 16.2832 12.442C16.3311 12.7188 16.322 13.0024 16.2565 13.2755C16.1909 13.5486 16.0702 13.8054 15.9019 14.0302L15.8972 14.0293Z"/>
</mask>
<path d="M19.5 3.22461H17.0625V2.28711C17.0625 2.13793 17.0032 1.99485 16.8977 1.88936C16.7923 1.78387 16.6492 1.72461 16.5 1.72461C16.3508 1.72461 16.2077 1.78387 16.1023 1.88936C15.9968 1.99485 15.9375 2.13793 15.9375 2.28711V3.22461H8.0625V2.28711C8.0625 2.13793 8.00324 1.99485 7.89775 1.88936C7.79226 1.78387 7.64918 1.72461 7.5 1.72461C7.35082 1.72461 7.20774 1.78387 7.10225 1.88936C6.99676 1.99485 6.9375 2.13793 6.9375 2.28711V3.22461H4.5C4.1519 3.22461 3.81806 3.36289 3.57192 3.60903C3.32578 3.85517 3.1875 4.18901 3.1875 4.53711V19.5371C3.1875 19.8852 3.32578 20.219 3.57192 20.4652C3.81806 20.7113 4.1519 20.8496 4.5 20.8496H19.5C19.8481 20.8496 20.1819 20.7113 20.4281 20.4652C20.6742 20.219 20.8125 19.8852 20.8125 19.5371V4.53711C20.8125 4.18901 20.6742 3.85517 20.4281 3.60903C20.1819 3.36289 19.8481 3.22461 19.5 3.22461ZM4.5 4.34961H6.9375V5.28711C6.9375 5.43629 6.99676 5.57937 7.10225 5.68486C7.20774 5.79035 7.35082 5.84961 7.5 5.84961C7.64918 5.84961 7.79226 5.79035 7.89775 5.68486C8.00324 5.57937 8.0625 5.43629 8.0625 5.28711V4.34961H15.9375V5.28711C15.9375 5.43629 15.9968 5.57937 16.1023 5.68486C16.2077 5.79035 16.3508 5.84961 16.5 5.84961C16.6492 5.84961 16.7923 5.79035 16.8977 5.68486C17.0032 5.57937 17.0625 5.43629 17.0625 5.28711V4.34961H19.5C19.5497 4.34961 19.5974 4.36936 19.6326 4.40453C19.6677 4.43969 19.6875 4.48738 19.6875 4.53711V7.72461H4.3125V4.53711C4.3125 4.48738 4.33225 4.43969 4.36742 4.40453C4.40258 4.36936 4.45027 4.34961 4.5 4.34961ZM19.5 19.7246H4.5C4.45027 19.7246 4.40258 19.7049 4.36742 19.6697C4.33225 19.6345 4.3125 19.5868 4.3125 19.5371V8.84961H19.6875V19.5371C19.6875 19.5868 19.6677 19.6345 19.6326 19.6697C19.5974 19.7049 19.5497 19.7246 19.5 19.7246ZM10.3125 11.2871V17.2871C10.3125 17.4363 10.2532 17.5794 10.1477 17.6849C10.0423 17.7903 9.89918 17.8496 9.75 17.8496C9.60082 17.8496 9.45774 17.7903 9.35225 17.6849C9.24676 17.5794 9.1875 17.4363 9.1875 17.2871V12.1974L8.50125 12.5405C8.43514 12.5735 8.36317 12.5932 8.28947 12.5984C8.21576 12.6036 8.14176 12.5942 8.07168 12.5708C8.0016 12.5473 7.93682 12.5103 7.88103 12.4619C7.82525 12.4134 7.77956 12.3545 7.74656 12.2884C7.71357 12.2222 7.69392 12.1503 7.68874 12.0766C7.68355 12.0029 7.69294 11.9289 7.71636 11.8588C7.73977 11.7887 7.77676 11.7239 7.82522 11.6681C7.87367 11.6124 7.93264 11.5667 7.99875 11.5337L9.49875 10.7837C9.58452 10.7409 9.67982 10.7207 9.77558 10.725C9.87135 10.7294 9.96442 10.7581 10.0459 10.8086C10.1275 10.859 10.1948 10.9295 10.2414 11.0132C10.2881 11.097 10.3125 11.1912 10.3125 11.2871ZM15.8972 14.0293L13.875 16.7246H15.75C15.8992 16.7246 16.0423 16.7839 16.1477 16.8894C16.2532 16.9949 16.3125 17.1379 16.3125 17.2871C16.3125 17.4363 16.2532 17.5794 16.1477 17.6849C16.0423 17.7903 15.8992 17.8496 15.75 17.8496H12.75C12.6455 17.8496 12.5431 17.8205 12.4543 17.7656C12.3654 17.7107 12.2936 17.6321 12.2469 17.5387C12.2002 17.4452 12.1804 17.3406 12.1898 17.2366C12.1992 17.1326 12.2373 17.0332 12.3 16.9496L15 13.3496C15.0777 13.2475 15.1337 13.1304 15.1643 13.0058C15.195 12.8811 15.1997 12.7515 15.1782 12.6249C15.1568 12.4983 15.1095 12.3775 15.0394 12.27C14.9693 12.1624 14.8779 12.0704 14.7708 11.9996C14.6636 11.9289 14.5431 11.8809 14.4167 11.8586C14.2903 11.8363 14.1606 11.8402 14.0358 11.8701C13.9109 11.9 13.7935 11.9552 13.6909 12.0323C13.5882 12.1094 13.5025 12.2068 13.4391 12.3184C13.4055 12.3883 13.3579 12.4505 13.2991 12.5012C13.2404 12.5518 13.1718 12.5898 13.0976 12.6126C13.0235 12.6355 12.9455 12.6428 12.8684 12.634C12.7913 12.6252 12.7169 12.6006 12.6498 12.5617C12.5827 12.5228 12.5243 12.4705 12.4784 12.4079C12.4325 12.3454 12.4001 12.2741 12.3831 12.1984C12.3661 12.1227 12.3649 12.0443 12.3796 11.9682C12.3944 11.892 12.4247 11.8197 12.4688 11.7559C12.6101 11.5132 12.7996 11.3019 13.0255 11.135C13.2514 10.9681 13.509 10.8492 13.7825 10.7854C14.056 10.7216 14.3397 10.7143 14.6161 10.7641C14.8925 10.8138 15.1559 10.9194 15.39 11.0746C15.6242 11.2297 15.8242 11.431 15.9777 11.6661C16.1313 11.9013 16.2353 12.1653 16.2832 12.442C16.3311 12.7188 16.322 13.0024 16.2565 13.2755C16.1909 13.5486 16.0702 13.8054 15.9019 14.0302L15.8972 14.0293Z" fill="black" stroke="#27861D" stroke-width="2" mask="url(#path-1-inside-1_587_882)"/>
</svg>
