<svg width="24" height="24" viewBox="0 0 24 24" fill="none" xmlns="http://www.w3.org/2000/svg">
<path d="M17.7325 6.06C16.2528 4.83466 14.4184 4.11739 12.5 4.014V6.5H11.5V4.0135C9.58156 4.11752 7.74727 4.83511 6.26751 6.0605L7.76751 7.5605L7.06051 8.268L5.53251 6.7395C4.14497 8.16897 3.27309 10.0199 3.05451 12H5.02651V13H3.00001C2.99793 15.0194 3.67881 16.9801 4.93201 18.5635L6.39151 17.1045L7.09851 17.8115L5.59601 19.3145L5.60501 19.324L4.89501 20.0275C3.03781 18.1585 1.99683 15.6298 2.00001 12.995C2.00001 7.475 6.47751 3 12 3C17.5225 3 22 7.4745 22 12.995C22.0014 14.3346 21.7327 15.6608 21.21 16.8942C20.6872 18.1276 19.9211 19.2429 18.9575 20.1735L18.262 19.455L18.268 19.449L16.5295 17.7105L17.237 17.0035L18.947 18.7135C20.2761 17.1064 21.0023 15.0855 21 13H18.842V12H20.9455C20.7268 10.0201 19.8549 8.16934 18.4675 6.74L17 8.2065L16.293 7.5L17.7325 6.06Z" fill="#E1C83F"/>
<path d="M10.3135 18.852C10.299 19.048 10.357 19.2425 10.476 19.399L11.4375 20.505C12 20.75 12.25 20.75 12.7215 20.505L13.6825 19.399C13.8015 19.2425 13.8595 19.048 13.8455 18.852L12.655 11.951C12.5825 10.9525 11.57 10.9435 11.498 11.942L10.3135 18.852Z" fill="#E1C83F"/>
</svg>
