<svg width="24" height="24" viewBox="0 0 24 24" fill="none" xmlns="http://www.w3.org/2000/svg">
<path d="M3.05451 12C3.27319 10.0201 4.14507 8.16934 5.53251 6.74L7.06051 8.2675L7.76801 7.5605L6.26751 6.0605C7.74727 4.83511 9.58156 4.11752 11.5 4.0135V6.5H12.5V4.0135C14.4185 4.11717 16.2529 4.8348 17.7325 6.0605L16.2925 7.5L17 8.207L18.4675 6.7395C19.855 8.16897 20.7269 10.0199 20.9455 12H18.842V13H21C21.0023 15.0855 20.2761 17.1064 18.947 18.7135L17.237 17.0035L16.5295 17.7105L18.2685 19.449L18.262 19.455L18.9575 20.1735C19.9211 19.2429 20.6872 18.1276 21.21 16.8942C21.7327 15.6608 22.0014 14.3346 22 12.995C22 7.475 17.5225 3 12 3C6.47751 3 2.00001 7.4745 2.00001 12.995C1.99683 15.6298 3.03781 18.1585 4.89501 20.0275L5.60501 19.324L5.59551 19.314L7.09851 17.8115L6.39151 17.1045L4.93201 18.5635C3.67881 16.9801 2.99793 15.0194 3.00001 13H5.02651V12H3.05451Z" fill="#138900"/>
<path d="M12.816 18.2495C12.6367 18.3309 12.4338 18.3433 12.246 18.2845L5.78296 15.568C4.82646 15.272 5.06446 14.288 6.05296 14.443L13.045 14.8435C13.239 14.874 13.4155 14.9745 13.541 15.126L14.401 16.312C14.533 16.827 14.4765 17.0705 14.1105 17.563L12.816 18.2495Z" fill="#138900"/>
</svg>
