<svg width="25" height="25" viewBox="0 0 25 25" fill="none" xmlns="http://www.w3.org/2000/svg">
<g clip-path="url(#clip0_423_1596)">
<path d="M12.25 1.03687C12.4489 1.03687 12.6397 1.11588 12.7803 1.25654C12.921 1.39719 13 1.58795 13 1.78687V4.03687H19.532C19.952 4.03687 20.358 4.18687 20.675 4.46187L23.862 7.21187C24.0524 7.37615 24.2052 7.57954 24.3099 7.80819C24.4146 8.03684 24.4688 8.28538 24.4688 8.53687C24.4688 8.78835 24.4146 9.03689 24.3099 9.26554C24.2052 9.49419 24.0524 9.69758 23.862 9.86187L20.675 12.6119C20.3573 12.886 19.9516 13.0368 19.532 13.0369H13V22.2869C13 22.4858 12.921 22.6765 12.7803 22.8172C12.6397 22.9578 12.4489 23.0369 12.25 23.0369C12.0511 23.0369 11.8603 22.9578 11.7197 22.8172C11.579 22.6765 11.5 22.4858 11.5 22.2869V13.0369H4.25C3.78587 13.0369 3.34075 12.8525 3.01256 12.5243C2.68437 12.1961 2.5 11.751 2.5 11.2869V5.78687C2.5 4.81987 3.284 4.03687 4.25 4.03687H11.5V1.78687C11.5 1.58795 11.579 1.39719 11.7197 1.25654C11.8603 1.11588 12.0511 1.03687 12.25 1.03687ZM19.532 5.53687H4.25C4.1837 5.53687 4.12011 5.5632 4.07322 5.61009C4.02634 5.65697 4 5.72056 4 5.78687V11.2869C4 11.4249 4.112 11.5369 4.25 11.5369H19.532C19.592 11.5369 19.65 11.5159 19.695 11.4769L22.883 8.72686C22.9107 8.70359 22.9331 8.67451 22.9484 8.64169C22.9637 8.60886 22.9716 8.57308 22.9716 8.53687C22.9716 8.50065 22.9637 8.46487 22.9484 8.43204C22.9331 8.39922 22.9107 8.37014 22.883 8.34687L19.695 5.59687C19.6496 5.55803 19.5918 5.53674 19.532 5.53687Z" fill="#27861D"/>
</g>
<defs>
<clipPath id="clip0_423_1596">
<rect width="24" height="24" fill="white" transform="translate(0.5 0.0368652)"/>
</clipPath>
</defs>
</svg>
