<svg width="24" height="24" viewBox="0 0 24 24" fill="none" xmlns="http://www.w3.org/2000/svg">
<path fill-rule="evenodd" clip-rule="evenodd" d="M15.7072 11.2932C15.8947 11.4807 16 11.735 16 12.0002C16 12.2653 15.8947 12.5197 15.7072 12.7072L10.0502 18.3642C9.86161 18.5463 9.60901 18.6471 9.34681 18.6449C9.08462 18.6426 8.8338 18.5374 8.64839 18.352C8.46299 18.1666 8.35782 17.9158 8.35554 17.6536C8.35326 17.3914 8.45405 17.1388 8.63621 16.9502L13.5862 12.0002L8.63621 7.05018C8.45406 6.86158 8.35326 6.60898 8.35554 6.34678C8.35782 6.08458 8.46299 5.83377 8.64839 5.64836C8.8338 5.46295 9.08462 5.35778 9.34681 5.35551C9.60901 5.35323 9.86161 5.45402 10.0502 5.63618L15.7072 11.2932Z" fill="#FEFEFE"/>
</svg>
