<svg width="24" height="25" viewBox="0 0 24 25" fill="none" xmlns="http://www.w3.org/2000/svg">
<path fill-rule="evenodd" clip-rule="evenodd" d="M15.7073 11.7927C15.8948 11.9802 16.0001 12.2345 16.0001 12.4997C16.0001 12.7648 15.8948 13.0191 15.7073 13.2067L10.0503 18.8637C9.9581 18.9592 9.84775 19.0353 9.72575 19.0878C9.60374 19.1402 9.47252 19.1678 9.33974 19.1689C9.20696 19.1701 9.07529 19.1448 8.95239 19.0945C8.82949 19.0442 8.71784 18.9699 8.62395 18.8761C8.53005 18.7822 8.4558 18.6705 8.40552 18.5476C8.35524 18.4247 8.32994 18.293 8.33109 18.1603C8.33225 18.0275 8.35983 17.8963 8.41224 17.7743C8.46465 17.6522 8.54083 17.5419 8.63634 17.4497L13.5863 12.4997L8.63634 7.54966C8.45418 7.36105 8.35339 7.10845 8.35567 6.84626C8.35795 6.58406 8.46312 6.33325 8.64852 6.14784C8.83393 5.96243 9.08474 5.85726 9.34694 5.85498C9.60914 5.8527 9.86174 5.9535 10.0503 6.13566L15.7073 11.7927Z" fill="#040506"/>
</svg>
