<svg width="25" height="25" viewBox="0 0 25 25" fill="none" xmlns="http://www.w3.org/2000/svg">
<path d="M9.5 20.5371C8.528 20.5371 7.70167 20.1968 7.021 19.5161C6.34033 18.8354 6 18.0091 6 17.0371V8.51611C5.41667 8.29944 4.93767 7.96911 4.563 7.52511C4.18833 7.08111 4.00067 6.58711 4 6.04311C4 5.34711 4.243 4.75544 4.729 4.26811C5.21433 3.78078 5.804 3.53711 6.498 3.53711C7.192 3.53711 7.78233 3.78078 8.269 4.26811C8.75567 4.75544 8.99933 5.34744 9 6.04411C9 6.58678 8.81267 7.08011 8.438 7.52411C8.06333 7.96811 7.584 8.29911 7 8.51711V17.0371C7 17.7244 7.24533 18.3131 7.736 18.8031C8.226 19.2924 8.81533 19.5371 9.504 19.5371C10.1927 19.5371 10.7807 19.2924 11.268 18.8031C11.7553 18.3138 11.9993 17.7251 12 17.0371V7.03711C12 6.06511 12.3403 5.23878 13.021 4.55811C13.7017 3.87744 14.528 3.53711 15.5 3.53711C16.472 3.53711 17.2983 3.87744 17.979 4.55811C18.6597 5.23878 19 6.06511 19 7.03711V15.5581C19.5833 15.7748 20.0627 16.1051 20.438 16.5491C20.8133 16.9931 21.0007 17.4868 21 18.0301C21 18.7268 20.7573 19.3188 20.272 19.8061C19.786 20.2934 19.196 20.5371 18.502 20.5371C17.808 20.5371 17.2177 20.2934 16.731 19.8061C16.2443 19.3188 16.0007 18.7271 16 18.0311C16 17.4878 16.1877 16.9898 16.563 16.5371C16.9383 16.0844 17.4173 15.7581 18 15.5581V7.03711C18 6.34978 17.755 5.76111 17.265 5.27111C16.7743 4.78178 16.1847 4.53711 15.496 4.53711C14.8073 4.53711 14.2193 4.78211 13.732 5.27211C13.2447 5.76211 13.0007 6.35044 13 7.03711V17.0371C13 18.0091 12.6597 18.8354 11.979 19.5161C11.2983 20.1968 10.472 20.5371 9.5 20.5371ZM6.5 7.53711C6.91133 7.53711 7.26433 7.39011 7.559 7.09611C7.853 6.80144 8 6.44844 8 6.03711C8 5.62578 7.853 5.27278 7.559 4.97811C7.26433 4.68411 6.91133 4.53711 6.5 4.53711C6.08867 4.53711 5.73567 4.68411 5.441 4.97811C5.147 5.27278 5 5.62578 5 6.03711C5 6.44844 5.147 6.80144 5.441 7.09611C5.73567 7.39011 6.08867 7.53711 6.5 7.53711ZM18.5 19.5371C18.9113 19.5371 19.2643 19.3901 19.559 19.0961C19.853 18.8014 20 18.4484 20 18.0371C20 17.6258 19.853 17.2728 19.559 16.9781C19.2643 16.6841 18.9113 16.5371 18.5 16.5371C18.0887 16.5371 17.7357 16.6841 17.441 16.9781C17.147 17.2728 17 17.6258 17 18.0371C17 18.4484 17.147 18.8014 17.441 19.0961C17.7357 19.3901 18.0887 19.5371 18.5 19.5371Z" fill="#27861D"/>
</svg>
