<svg width="24" height="24" viewBox="0 0 24 24" fill="none" xmlns="http://www.w3.org/2000/svg">
<path d="M6 21C5.44772 21 5 20.5523 5 20V5C5 4.44772 5.44772 4 6 4H13.1802C13.6569 4 14.0673 4.33646 14.1608 4.80388L14.2392 5.19612C14.3327 5.66354 14.7431 6 15.2198 6H19C19.5523 6 20 6.44772 20 7V15C20 15.5523 19.5523 16 19 16H13.8198C13.3431 16 12.9327 15.6635 12.8392 15.1961L12.7608 14.8039C12.6673 14.3365 12.2569 14 11.7802 14H8C7.44771 14 7 14.4477 7 15V20C7 20.5523 6.55228 21 6 21ZM14.4892 13.1961C14.5827 13.6635 14.9931 14 15.4698 14H17C17.5523 14 18 13.5523 18 13V9C18 8.44772 17.5523 8 17 8H13.5698C13.0931 8 12.6827 7.66354 12.5892 7.19612L12.5108 6.80388C12.4173 6.33646 12.0069 6 11.5302 6H8C7.44771 6 7 6.44772 7 7V11C7 11.5523 7.44772 12 8 12H13.4302C13.9069 12 14.3173 12.3365 14.4108 12.8039L14.4892 13.1961Z" fill="#7E7F80"/>
</svg>
