<svg width="82" height="80" viewBox="0 0 82 80" fill="none" xmlns="http://www.w3.org/2000/svg">
<path d="M5.35986 55.5144C7.04667 56.7863 12.1371 59.954 14.8359 60.3356C17.1653 60.9716 21.792 62.1335 23.7198 61.9427C25.6475 61.7519 28.1645 61.2231 29.1685 61.0243L36.1571 57.351L45.5879 54.5663C47.3952 53.2546 51.2267 50.6074 52.0942 50.512C52.9617 50.4166 54.4637 49.9953 55.1063 49.7965C57.7972 48.9221 63.9741 47.2685 67.1549 47.6501C71.1309 48.1271 74.625 48.3656 76.7938 49.7965C77.6327 50.35 78.0735 50.5913 78.2823 50.6659L78.3601 50.512C78.4638 50.6352 78.5054 50.7456 78.2823 50.6659L72.0948 62.9134H68.4803H66.191L64.2632 63.3904H62.6969H62.0945L60.4396 62.9134C60.0781 62.7147 59.8032 61.5207 59.6104 61.1391C59.4177 60.7575 57.4041 59.7 57.123 59.3025L56.5307 57.5806L56.1754 57.351H55.3462L53.781 56.8919V55.878L51.6742 55.6292L51.9111 54.5961L51.5558 54.0893L50.8451 54.5961L49.323 54.0893L47.1542 58.7399L43.4192 60.4093L42.5758 61.9595L40.0456 62.9134L38.8407 64.5828L37.8768 64.2251L37.1539 63.3904C36.7925 63.2314 35.9972 62.9134 35.7081 62.9134C35.4189 62.9134 31.8927 63.2314 30.1657 63.3904L20.5268 62.9134L16.6713 64.5828L10.2855 62.9134L5.35986 55.5144Z" fill="#5BB351"/>
<path d="M16.6234 37.5469C9.71855 41.0946 4.33774 39.0252 2.51044 37.5469C0.760899 38.5483 1.69399 52.9965 6.35943 56.4298C11.0249 59.863 12.3079 60.0061 19.306 61.7227C26.3042 63.4393 30.9696 60.8644 36.2183 59.0047C41.4669 57.145 47.6486 53.1396 49.3981 51.9952C51.1477 50.8508 57.3294 48.848 64.5608 48.1328C70.346 47.5606 75.4415 49.4729 77.852 50.808C79.7566 40.2162 79.3261 42.5653 79.0539 39.5135C77.6932 39.5135 75.2214 39.9788 70.7425 39.9788C65.144 39.9788 53.597 33.6845 49.3981 31.8249C45.1992 29.9652 38.0844 29.6791 30.3865 30.8235C22.6885 31.9679 25.2545 33.1123 16.6234 37.5469Z" fill="#3DA630"/>
<path d="M21.6084 30.3252C18.0645 31.942 9.90001 31.8979 4.47637 31.5708C3.10705 31.4882 2.2726 30.0703 2.90258 28.8517C11.412 12.3914 33.8747 -11.0912 61.348 8.12367C63.0214 9.29403 61.0316 13.7068 58.9899 13.6686C52.8416 13.5538 46.6934 17.6892 42.8814 19.1825C39.0695 20.6759 26.8959 27.9128 21.6084 30.3252Z" fill="#F5F6F6"/>
<path d="M19.225 19.7508C16.2295 22.841 16.0718 27.1026 16.6298 30.0428C16.8225 31.0576 17.8593 31.6143 18.859 31.3543C20.6829 30.88 22.9792 30.2528 24.0815 29.8522C25.9768 29.1635 32.4916 26.0641 33.3207 25.4902C33.77 25.1792 35.2226 24.254 36.5305 23.4276C37.4463 22.849 37.7495 21.6332 37.0901 20.7737C33.39 15.951 28.7451 16.0755 27.722 16.1685C27.5826 16.1812 27.4466 16.1886 27.3066 16.1898C26.3643 16.1984 22.433 16.4413 19.225 19.7508Z" fill="#E1C83F"/>
<path d="M16.7432 29.0373C11.0576 30.8739 9.6115 29.6189 3.86484 30.0704C2.86108 30.1493 1.43842 32.4217 1.30421 33.4195C0.768497 37.4025 0.762073 41.46 4.43659 43.8986C4.57501 43.9905 4.73375 44.0623 4.89209 44.1126C21.2871 49.3183 26.8417 49.5791 32.971 48.4369C39.1305 47.289 45.053 44.1896 49.5542 42.2382C54.0553 40.2867 57.1351 40.5163 63.0576 39.7128C66.8833 39.1937 73.4041 40.4601 77.7689 41.2087C79.0994 41.4369 80.208 40.275 79.9622 38.9476L78.7997 32.6711L76.0753 23.9471C73.9432 18.8963 69.9349 15.328 68.5135 14.2163C61.7618 8.93601 72.7297 11.3626 60.0811 8.59472C45.3052 5.36139 30.602 24.4074 26.8116 25.8232C25.3507 26.2823 21.2918 27.568 16.7432 29.0373Z" fill="#C5E3C1"/>
<path d="M35.7415 0.886833C23.4434 2.54374 12.7624 9.21555 6.34008 19.2232C-2.2913 32.6994 -1.6764 49.9312 7.88872 62.9214C19.253 78.3195 40.6151 83.6437 58.2423 75.4476C70.6769 69.6594 78.9667 58.7239 80.9708 45.4244C81.5402 41.713 81.3124 35.5051 80.5153 31.8599C77.4408 18.1186 67.2836 7.02843 53.7558 2.6542C49.5881 1.30658 46.8097 0.864738 41.7766 0.776375C39.2714 0.732185 36.5613 0.776375 35.7415 0.886833ZM45.6482 3.11813C50.5674 3.69253 56.0332 5.54826 60.383 8.06676C74.4347 16.2629 81.4946 31.5948 78.4201 47.2802C77.5775 51.6102 75.4139 56.6693 72.7266 60.6017L71.2007 62.7888L69.0144 62.6563C67.3975 62.5458 66.532 62.59 65.6894 62.833C65.0745 63.0097 63.8447 63.1865 62.9565 63.2306C61.3851 63.2969 61.3623 63.2969 61.0207 62.59C60.8385 62.2144 60.2008 61.4854 59.6087 60.9773C58.9938 60.4691 58.5156 59.9168 58.5156 59.718C58.5156 59.5413 58.265 59.0773 57.969 58.7018C57.6729 58.3041 57.3769 57.7297 57.2858 57.4204C57.1036 56.6693 56.762 56.5367 55.6232 56.846C54.7123 57.067 54.6667 57.067 53.7785 56.1612C53.2775 55.6531 52.7537 55.2333 52.5943 55.2333C52.4349 55.2333 52.3893 54.9682 52.4804 54.4822C52.6171 53.8415 52.5715 53.709 52.1616 53.5764C51.9111 53.5101 51.5239 53.5322 51.2962 53.6427C51.0684 53.7752 50.3169 53.9299 49.6337 54.0183C48.5405 54.1508 48.3128 54.1066 47.9711 53.7311C47.7434 53.488 47.584 53.1567 47.6068 52.9799C47.6979 52.4718 47.3107 51.4777 47.083 51.6102C46.9691 51.6765 46.6275 51.6765 46.3542 51.6102C45.8076 51.4777 45.6026 51.08 44.5095 48.0976C44.0995 46.993 43.5757 46.6174 42.437 46.6174C41.8905 46.6174 41.8905 46.6174 41.8905 44.1873C41.8905 42.7513 42.0043 41.5804 42.141 41.3595C42.3232 41.0944 42.3459 40.5642 42.2548 39.9235C42.1182 39.1061 42.0043 38.8852 41.6399 38.8852C41.3667 38.8852 41.2072 39.0398 41.2072 39.3049C41.2072 39.8351 39.7497 41.0944 39.1348 41.0944C38.7249 41.0944 38.6793 41.006 38.8387 40.034C38.9071 39.4596 39.0665 38.8189 39.1803 38.6201C39.2942 38.4213 39.3853 37.9794 39.3853 37.648C39.3853 37.162 39.4309 37.0957 39.7269 37.3387C40.228 37.7364 40.1824 37.0957 39.6131 36.0132C38.9981 34.8423 39.0209 34.4668 39.7269 34.4668C40.1369 34.4668 40.319 34.3121 40.4329 33.9145C40.5012 33.6052 40.6379 33.3622 40.7518 33.3622C41.0023 33.3622 40.9795 31.3297 40.7062 30.6448C40.5696 30.3135 40.1824 29.8937 39.818 29.717C39.0892 29.3414 37.199 29.2751 36.994 29.6065C36.9257 29.717 36.6524 29.8274 36.4019 29.8274C36.1058 29.8274 35.9692 29.6728 35.9692 29.3193C35.9692 28.6345 35.4682 28.2368 33.8284 27.5299C32.052 26.7787 31.5966 26.8008 30.4806 27.7729C29.3419 28.7891 28.8409 29.6949 28.0666 32.3018C27.7477 33.4284 27.2923 34.5993 27.0645 34.8865C26.814 35.1737 26.6318 35.5272 26.6318 35.6597C26.609 35.7923 26.2902 36.1016 25.8803 36.3446C25.2654 36.7202 25.1287 36.9411 25.0832 37.7364C25.0148 38.4875 25.0832 38.6643 25.402 38.6643C25.7208 38.6643 25.7664 38.8189 25.6297 39.7026C25.5614 40.277 25.3565 40.9398 25.1743 41.1828C25.0148 41.4479 24.8099 42.0885 24.7416 42.6408C24.6505 43.1931 24.5366 44.0989 24.4455 44.6512C24.2861 45.7337 24.7871 47.0593 25.3565 47.0593C25.7208 47.0593 26.1308 46.2198 26.313 45.0931L26.4496 44.2315L27.1784 45.0489C27.5883 45.4907 27.9983 46.0209 28.0666 46.2198C28.226 46.6616 28.7043 46.7279 29.0686 46.3744C29.4103 46.043 30.2529 46.507 30.3668 47.1255C30.4351 47.3906 30.5262 48.2522 30.5717 49.0254C30.6401 50.1521 30.7539 50.5277 31.1639 50.837C31.5055 51.1242 31.7332 51.6323 31.8926 52.5602C32.0748 53.7311 32.0293 54.0845 31.5282 55.5868C31.2094 56.5147 30.9589 57.6855 30.9817 58.1937C31.0044 58.6797 30.9817 60.0273 30.9589 61.1319L30.9133 63.1865H29.843C29.2736 63.1865 28.226 63.0318 27.5428 62.8551C26.609 62.6121 25.6753 62.5458 23.785 62.6563C22.4186 62.7446 21.1205 62.8772 20.9155 62.9876C20.7105 63.076 19.8224 63.3632 18.9114 63.5841C17.636 63.9155 17.0895 63.9597 16.429 63.805C15.9735 63.6946 15.0853 63.4957 14.4477 63.3632C13.8328 63.2527 12.8079 63.0097 12.193 62.833C11.6009 62.6563 10.8949 62.5237 10.6672 62.5237C10.3711 62.5237 9.77897 61.8609 8.84523 60.4691C0.191073 47.722 0.39604 31.6611 9.34626 18.8477C11.4415 15.8873 15.6319 11.734 18.6609 9.65739C21.0977 8.00048 25.8575 5.63663 28.5221 4.77504C30.5262 4.11227 33.8512 3.36115 35.8553 3.11813C37.9278 2.83093 43.348 2.85303 45.6482 3.11813ZM41.3894 42.4199C41.435 42.7071 41.4122 43.7896 41.3211 44.7838L41.1617 46.5953L40.4557 46.4628C39.2031 46.2418 38.6565 45.8 38.7249 45.0047C38.7704 44.607 38.7249 44.1873 38.6338 44.0326C38.3832 43.6571 38.6565 43.171 39.2942 42.8397C39.6131 42.685 39.9774 42.3536 40.0913 42.1327C40.4329 41.5362 41.2983 41.7351 41.3894 42.4199ZM42.3459 49.8208C42.3459 50.1521 43.0975 51.4998 43.7579 52.3393C43.9857 52.6265 44.1679 53.0904 44.1679 53.3555C44.1679 53.6427 44.5323 54.3496 44.965 54.924C45.7621 56.0065 46.4908 57.3321 46.7641 58.2599C46.9008 58.6797 46.8097 58.768 46.0581 58.8785C44.0995 59.1878 42.8242 60.0273 42.4143 61.2865C42.3004 61.6621 42.0727 61.9935 41.936 62.0377C41.731 62.104 41.6627 61.3086 41.6627 59.0332C41.6627 54.5485 41.936 49.2685 42.1637 49.401C42.2548 49.4673 42.3459 49.644 42.3459 49.8208ZM41.3211 50.2626C41.3894 50.6161 41.435 53.466 41.3894 56.5588L41.3211 62.1923L40.6834 62.2586C40.2507 62.3028 39.9547 62.5237 39.7952 62.9214C39.2259 64.2248 38.0189 65.0201 38.0189 64.0922C38.0189 63.562 37.6772 63.319 36.5385 62.9655C35.081 62.5237 34.6027 62.1481 34.6027 61.4412C34.6027 61.0877 34.4661 60.7563 34.3295 60.7121C34.1245 60.6459 34.17 60.447 34.4661 59.9831L34.8988 59.3424L34.2839 58.8785C33.5324 58.3041 33.5324 58.0611 34.375 55.5205C34.7622 54.3938 35.0582 53.2671 35.0582 53.0462C35.0582 52.8253 35.2404 52.5823 35.4682 52.5381C35.8098 52.4497 35.8781 52.273 35.787 51.7207C35.7415 51.3451 35.7642 50.7044 35.8326 50.3068L35.9692 49.5557L38.5882 49.5777L41.2072 49.5998L41.3211 50.2626Z" fill="#28292A"/>
<path d="M53.7732 15.6674C53.2678 16.1572 52.8572 16.8612 52.8572 17.1979C52.8572 17.7183 52.6992 17.7795 51.6885 17.6265C50.5829 17.4428 50.5197 17.4734 50.9304 17.9632C51.4358 18.5448 51.4673 18.5142 50.0775 19.1876C48.4666 19.9835 48.2139 20.8712 49.0983 22.6467L49.8248 24.116L50.0775 22.4936C50.5197 19.6774 51.3726 18.9121 53.2362 19.7999C54.6892 20.5345 54.8471 20.4427 54.626 19.0652C54.4365 17.8408 54.784 16.7082 55.5105 16.2184C55.7 16.096 56.4265 15.8511 57.1214 15.6674C58.1954 15.3613 58.2901 15.2695 57.7531 15.0552C56.3001 14.5042 54.7524 14.7491 53.7732 15.6674Z" fill="#3B3B3B"/>
<path d="M65.7448 20.9018C65.5237 21.2385 65.2394 21.514 65.113 21.514C64.9867 21.514 64.5129 21.8507 64.0391 22.2793C63.2494 22.9833 63.2178 23.1058 63.5969 23.9017L64.0391 24.7281L64.197 23.6568C64.3865 22.6466 64.4813 22.5854 65.4289 22.6772C66.0922 22.7078 66.4081 22.616 66.2818 22.4323C65.9659 21.912 66.4081 21.0242 67.1662 20.6569C67.8295 20.3508 67.8295 20.3202 67.0083 20.3202C66.4397 20.2896 65.9659 20.5345 65.7448 20.9018Z" fill="#3B3B3B"/>
<path d="M56.3636 34.9522C55.3212 35.8705 55.0685 36.2684 55.2896 36.6664C55.5423 37.0949 55.6371 37.0337 55.9529 36.3603C56.2372 35.748 56.4899 35.595 56.9637 35.748C57.4691 35.9011 57.5954 35.8093 57.5954 35.1664C57.5954 34.6767 57.785 34.3706 58.0692 34.3706C58.3219 34.3706 58.5431 34.2175 58.5431 34.0645C58.5431 33.4216 57.6586 33.789 56.3636 34.9522Z" fill="#3B3B3B"/>
</svg>
