<svg width="108" height="88" viewBox="0 0 108 88" fill="none" xmlns="http://www.w3.org/2000/svg">
<g clip-path="url(#clip0_334_1671)">
<path d="M50.6036 13.9885C40.311 14.7157 31.5607 21.3723 28.2924 30.9536C27.4453 33.4469 27.0298 35.9641 27.0298 38.6331C27.0298 41.2782 27.3175 43.2839 28.0766 45.8651C28.2844 46.5603 29.0515 48.5021 29.3552 49.1174L29.5869 49.5809H29.0196C28.5002 49.5809 28.4362 49.5969 28.2205 49.8127C27.9328 50.1003 27.9248 50.372 28.1965 50.6917L28.4043 50.9394H30.1543H31.9124L32.1041 50.7396C32.4078 50.444 32.3599 50.1403 31.9044 49.3412C30.5299 46.9439 29.6509 44.2349 29.2913 41.3101C29.1235 39.8877 29.1235 37.3066 29.2993 35.9561C29.9545 30.9616 32.2 26.4307 35.812 22.8027C38.6968 19.9099 42.5086 17.7283 46.4082 16.7374C53.5363 14.9235 60.8002 16.4577 66.5219 20.9807C67.7285 21.9397 69.8622 24.1132 70.6932 25.224C73.2744 28.7081 74.8646 32.8236 75.2162 36.915C75.4639 39.8797 75.1123 42.7245 74.1294 45.6813C73.9296 46.2886 73.7379 46.8 73.7059 46.824C73.6579 46.848 71.6522 44.8742 70.3416 43.5157C70.1898 43.3558 69.4706 42.5967 68.7434 41.8375L67.4249 40.4551L67.0573 40.495L66.6897 40.543L65.8107 39.5681C65.3232 39.0326 64.5481 38.2016 64.0926 37.7301L63.2695 36.8591L62.8699 37.0189C62.6462 37.1068 62.2626 37.2746 62.0149 37.3865L61.5594 37.5863L59.4897 35.4127C58.355 34.214 57.1883 32.9914 56.9006 32.6877C56.6049 32.3681 56.3492 32.1603 56.2933 32.1923C56.2133 32.2402 54.5112 34.4218 53.5603 35.7004L53.2087 36.1718L52.7692 36.1239L52.3217 36.0759L51.7143 36.8511C51.3867 37.2826 50.6435 38.2255 50.0762 38.9447L49.0453 40.2473L48.5658 40.2073L48.0864 40.1674L46.8717 41.7097L45.6571 43.252L45.6491 44.7623C45.6491 45.5854 45.6411 46.2886 45.6491 46.3285C45.6491 46.3605 46.0327 45.945 46.5041 45.4096C46.9756 44.8662 47.9266 43.7954 48.6058 43.0202C49.285 42.2531 50.1001 41.3101 50.4038 40.9265C50.7155 40.551 50.9872 40.2393 51.0271 40.2393C51.0591 40.2313 51.083 40.3112 51.083 40.4071C51.083 40.511 51.131 40.7348 51.1869 40.9186L51.2828 41.2462L52.042 40.1674C52.4575 39.5681 52.8411 39.0726 52.889 39.0566C52.929 39.0406 53.2886 39.2244 53.6722 39.4722C54.0637 39.7119 54.3994 39.9117 54.4313 39.9117C54.4553 39.9117 54.8069 38.9527 55.1985 37.778C55.8617 35.8042 56.2533 34.7894 56.2693 35.0051C56.2773 35.0531 56.3492 35.4287 56.4371 35.8442C56.517 36.2597 56.7008 37.2586 56.8366 38.0737L57.0924 39.5521L53.784 42.8124L50.4837 46.0728L51.083 45.8011C51.4107 45.6413 52.4176 45.1938 53.3206 44.7942C56.8127 43.252 56.8207 43.252 57.0045 42.9083C57.2042 42.5407 58.1072 41.1902 58.1552 41.1902C58.1712 41.1902 58.4748 41.5578 58.8264 42.0053C59.5536 42.9323 59.5536 42.9003 59.3538 44.107C59.2899 44.4986 59.234 44.8662 59.234 44.9061C59.234 44.9541 59.5456 45.3696 59.9372 45.8331C60.5205 46.5363 64.9476 51.7225 65.6189 52.4897C65.7547 52.6415 65.6508 52.5856 65.3392 52.3299C65.0675 52.1141 64.3003 51.5068 63.6291 50.9794C62.9578 50.452 61.919 49.6209 61.3197 49.1414C57.7636 46.2566 56.0056 44.8662 55.9257 44.8662C55.8457 44.8662 55.8777 47.1836 55.9576 47.7829C56.0056 48.0866 56.1095 48.622 56.2053 48.9736C56.2933 49.3172 56.3492 49.6129 56.3332 49.6289C56.3172 49.6448 56.0056 49.3012 55.646 48.8617C55.2784 48.4222 54.9587 48.0626 54.9268 48.0626C54.9028 48.0626 54.5192 48.4781 54.0797 48.9896L53.2806 49.9086L52.8491 48.59C52.6093 47.8628 52.3856 47.2635 52.3456 47.2635C52.3137 47.2635 52.002 47.5112 51.6664 47.8069C50.7314 48.622 48.2542 50.7476 46.616 52.1301L45.1616 53.3607L46.0406 53.5445C48.6058 54.0559 50.9632 55.0229 53.1288 56.4373L54.0797 57.0526L61.1518 57.0446C70.5334 57.0286 69.9501 57.0366 69.8941 56.8928C69.8542 56.7969 69.7023 56.7729 69.2229 56.7729C68.6235 56.7729 68.5836 56.7649 68.3119 56.5012C67.9203 56.1416 67.9123 55.766 68.2879 55.3745C68.4877 55.1587 68.6395 55.0788 68.9752 55.0149C69.2389 54.9669 72.0917 54.935 76.3829 54.935H83.3592L83.5589 54.7512C83.7827 54.5594 83.8306 54.3676 83.7427 54.04C83.6149 53.5605 83.7987 53.5765 77.0622 53.5765H70.901L71.4844 52.8333C71.796 52.4258 72.2275 51.8504 72.4273 51.5627L72.8029 51.0433L74.3851 50.9874C75.9594 50.9314 75.9754 50.9314 76.1911 50.7236C76.4708 50.4599 76.4788 50.1483 76.2231 49.8446C76.0473 49.6448 75.9754 49.6209 75.392 49.5969L74.7527 49.5649L75.1123 48.8298C76.1911 46.6482 76.9503 43.9951 77.2619 41.2702C77.4457 39.656 77.3818 36.4675 77.1421 35.0531C75.9993 28.3965 72.5312 22.7867 67.0653 18.7592C63.677 16.274 59.5297 14.6438 55.2784 14.1403C54.2555 14.0205 51.4666 13.9246 50.6036 13.9885ZM60.5046 38.4893C60.9041 38.8329 61.2637 39.1126 61.3037 39.1126C61.3436 39.1126 61.7592 38.9288 62.2227 38.705C62.6941 38.4813 63.0937 38.3055 63.1097 38.3214C63.1496 38.3694 63.3894 40.2952 63.3894 40.6069C63.3894 40.9585 63.3414 40.8946 65.6029 43.6515C68.4717 47.1516 69.4227 48.3343 69.5026 48.4622C69.6784 48.7658 65.1314 44.5785 62.0868 41.6298C60.7843 40.3752 60.1769 39.7359 59.9772 39.3922C59.6016 38.761 58.7545 37.1547 58.7545 37.0828C58.7545 37.0269 58.9783 37.2027 60.5046 38.4893Z" fill="#3DA630"/>
<path d="M51.3708 18.3836C51.171 18.5754 51.219 18.6473 51.5226 18.5994C51.7624 18.5594 51.8103 18.5834 51.8902 18.7672C52.0181 19.0389 52.2019 19.0389 52.2019 18.7672C52.2019 18.5674 52.2179 18.5594 52.5215 18.5994C52.7453 18.6233 52.8412 18.6074 52.8412 18.5434C52.8412 18.3836 52.6654 18.2557 52.4416 18.2557C52.3297 18.2557 52.1939 18.2957 52.1379 18.3516C52.066 18.4236 52.0181 18.4236 51.9462 18.3516C51.8103 18.2158 51.5146 18.2318 51.3708 18.3836Z" fill="#3DA630"/>
<path d="M49.485 18.8951C49.3891 18.991 49.2852 19.1508 49.2452 19.2547C49.2053 19.3665 49.1014 19.4544 49.0215 19.4544C48.6858 19.4544 48.3742 19.6302 48.2543 19.894C48.1824 20.0378 48.1265 20.1976 48.1265 20.2456C48.1265 20.3894 48.4461 20.3494 48.6619 20.1736C48.9495 19.9499 49.2212 19.9739 49.5409 20.2536C49.6847 20.3814 49.8605 20.4933 49.9245 20.4933C50.1083 20.4933 50.0683 20.2136 49.8446 19.9499C49.7327 19.814 49.6448 19.6622 49.6448 19.6063C49.6528 19.3905 49.8845 19.1907 50.1802 19.1428L50.4838 19.0948L50.3 18.911C50.0763 18.6873 49.7007 18.6793 49.485 18.8951Z" fill="#3DA630"/>
<path d="M43.7793 23.0584C43.4676 23.1463 43.1959 23.418 43.092 23.7376L42.9961 24.0093H41.8134C40.6867 24.0093 40.6148 24.0173 40.455 24.1851C40.2632 24.3929 40.2552 24.5527 40.423 24.7925L40.5429 24.9683H44.2427H47.9426L48.1104 24.7845C48.3262 24.5527 48.3342 24.3769 48.1264 24.1692C47.9746 24.0173 47.8627 24.0093 46.5282 24.0093C45.2257 24.0093 45.0818 23.9933 45.0419 23.8655C44.8501 23.2262 44.3307 22.8986 43.7793 23.0584Z" fill="#3DA630"/>
<path d="M65.0674 24.0093C63.7728 24.281 62.3504 25.5037 61.8789 26.7663C61.3675 28.1248 61.4874 29.691 62.1906 30.8817C63.9646 33.9103 68.3518 33.9263 70.1817 30.9137C70.6052 30.2105 70.7651 29.6671 70.805 28.7641C70.869 27.1419 70.2137 25.7594 68.9191 24.8085C68.0561 24.1692 67.5207 23.9934 66.3859 23.9614C65.8585 23.9454 65.2672 23.9694 65.0674 24.0093ZM67.0092 24.8484C67.6325 25.0082 68.152 25.2879 68.5835 25.6875L68.9431 26.0151L68.5755 25.7754C68.0401 25.4238 67.3209 25.208 66.7296 25.216C66.37 25.216 66.2821 25.24 66.4259 25.2799C67.0812 25.4797 67.8723 26.1989 68.2159 26.9101C68.6634 27.8211 68.6794 29.0358 68.2479 29.8748C67.8004 30.7459 66.7136 31.497 65.7466 31.6009L65.2672 31.6489L65.6907 31.7447C66.5617 31.9445 67.5287 31.8327 68.3038 31.4411L68.7833 31.2014L68.5036 31.4491C68.3518 31.5769 68.0161 31.7927 67.7684 31.9126C65.5469 33.0313 62.8858 31.6089 62.4943 29.0997C62.0867 26.4626 64.492 24.1931 67.0092 24.8484Z" fill="#3DA630"/>
<path d="M44.0988 25.9192C43.8911 26.143 44.0029 26.3827 44.3546 26.4866C44.5543 26.5505 45.5852 26.5665 47.4152 26.5505C50.3639 26.5265 50.4438 26.5106 50.4438 26.135C50.4438 25.7674 50.4198 25.7674 47.2473 25.7674C44.3705 25.7674 44.2267 25.7754 44.0988 25.9192Z" fill="#3DA630"/>
<path d="M38.4173 27.877C37.9059 27.9969 37.6502 28.1727 37.3785 28.5642C37.1547 28.8839 37.1388 29.1476 37.3066 29.7309C37.3385 29.8668 37.2826 29.9387 36.9949 30.1065C36.8031 30.2184 36.5954 30.3782 36.5314 30.4501C36.4276 30.578 36.4435 30.586 36.6993 30.5381C36.8511 30.5141 37.0908 30.4661 37.2187 30.4422C37.4424 30.3942 37.4744 30.4102 37.5783 30.6979C37.6422 30.8657 37.7061 31.0255 37.7221 31.0495C37.7301 31.0735 37.5383 31.0814 37.2986 31.0575C36.891 31.0255 36.8271 31.0415 36.6193 31.2413L36.3876 31.457L36.3077 31.1374C36.1958 30.7458 35.7803 30.3543 35.3647 30.2664C35.1969 30.2344 34.7015 30.2024 34.262 30.2104C33.2711 30.2104 32.6637 30.4182 32.3201 30.8577C32.1283 31.1134 32.1044 31.2333 32.0724 31.8566C32.0564 32.2961 32.0884 32.6557 32.1443 32.7995C32.2242 32.9913 32.2242 33.0632 32.1443 33.1591C32.0964 33.2231 32.0724 33.311 32.1044 33.3669C32.1443 33.4149 32.0644 33.5347 31.9365 33.6386L31.7048 33.8224V35.4286C31.7048 37.0268 31.7048 37.0348 31.8806 37.0348C32.0245 37.0348 32.0564 36.9949 32.0484 36.7711C32.0404 36.6353 32.0484 36.1238 32.0484 35.6364C32.0644 34.7414 32.1443 34.6055 32.2882 35.2528C32.3521 35.5165 32.3441 35.5964 32.2562 35.6284C32.1683 35.6604 32.1443 35.8921 32.1443 36.6273V37.5862L31.9286 37.6901C31.7288 37.786 31.7048 37.8419 31.6968 38.2095C31.6888 38.4972 31.6409 38.681 31.513 38.8328C31.3132 39.0965 31.3052 39.1924 31.4651 39.4002C31.5769 39.544 31.5769 39.536 31.5849 39.2963C31.5849 39.1605 31.6249 39.0166 31.6648 38.9927C31.7448 38.9447 31.7687 39.3123 31.7847 40.4311C31.7847 41.0624 31.9206 41.1103 32.0245 40.519L32.1044 40.0395L32.2562 40.3751C32.3361 40.5589 32.472 40.7667 32.5519 40.8386C32.6877 40.9585 32.7037 41.1103 32.7037 42.245C32.7037 43.4517 32.7117 43.5076 32.8635 43.5076C33.0153 43.5076 33.0233 43.4517 33.0233 42.309C33.0233 41.2541 33.0393 41.1103 33.1512 41.1103C33.2631 41.1103 33.2791 41.1822 33.2471 41.5498C33.2231 41.8774 33.2391 41.9973 33.327 42.0293C33.4788 42.0852 33.7186 41.9494 33.5907 41.8774C33.5428 41.8455 33.5028 41.6777 33.5028 41.4939C33.5028 41.2222 33.5268 41.1822 33.6466 41.2302C33.7186 41.2621 33.9743 41.3021 34.206 41.3261L34.6216 41.374V41.9014C34.6216 42.2131 34.5816 42.4768 34.5257 42.5327C34.4537 42.6046 34.4537 42.6526 34.5257 42.7245C34.5816 42.7804 34.6216 42.9483 34.6216 43.1001C34.6216 43.5076 34.7015 43.7474 34.8293 43.7474C34.9172 43.7474 34.9412 43.5236 34.9412 42.6046L34.9492 41.4699L35.125 41.9094C35.2928 42.3249 35.3008 42.4528 35.2768 43.9871C35.2609 45.2017 35.2209 45.7292 35.125 46.0168C35.0291 46.3125 35.0211 46.4404 35.093 46.6002C35.165 46.76 35.149 46.8639 35.0131 47.1676C34.9252 47.3753 34.8453 47.663 34.8453 47.8148C34.8453 47.9667 34.7974 48.1665 34.7414 48.2544C34.5976 48.4861 34.4218 51.0353 34.5417 51.251C34.5816 51.3389 34.6216 51.4908 34.6216 51.5946C34.6216 51.6985 34.6615 51.8264 34.7175 51.8823C34.7894 51.9542 34.7734 52.0102 34.6695 52.13C34.5736 52.2339 34.5417 52.3858 34.5576 52.6255C34.5736 52.8173 34.5496 53.3767 34.5177 53.8641L34.4537 54.7511L33.5587 54.9669C32.464 55.2386 30.8977 55.742 29.9867 56.1096C29.2915 56.3973 28.0688 57.0046 28.0688 57.0606C28.0688 57.0765 33.5028 57.0925 40.1354 57.0925C46.7761 57.0845 52.202 57.0606 52.202 57.0286C52.202 56.9327 50.3561 56.0217 49.4451 55.6621C47.7989 55.0148 46.0808 54.5593 44.2908 54.2956C43.6995 54.2077 43.18 54.1358 43.1401 54.1358C43.1001 54.1358 43.0921 53.8641 43.1161 53.5125C43.1481 53.1769 43.3319 50.9554 43.5237 48.582C43.7234 46.2086 43.9392 43.5316 44.0111 42.6286C44.155 40.7507 44.1709 40.6308 44.3308 40.6308C44.3947 40.6308 44.4506 40.5589 44.4506 40.471C44.4506 40.3831 44.3947 40.3112 44.3308 40.3112C44.2349 40.3112 44.2269 40.2313 44.2589 39.9276C44.3308 39.2883 44.3707 39.1924 44.5705 39.0965C44.8102 38.9927 44.8502 38.8808 44.8742 38.2495C44.8901 37.8339 44.9141 37.754 45.042 37.738C45.2577 37.7061 45.2897 37.5463 45.0899 37.4903C44.9541 37.4584 44.9301 37.3864 44.9301 37.0508C44.9301 36.7072 44.8981 36.6193 44.7223 36.4834C44.4746 36.2917 44.2509 36.2757 43.9712 36.4355C43.8593 36.4994 43.6915 36.5474 43.5956 36.5554C43.3319 36.5554 43.3718 36.7312 43.6915 36.9389C44.0271 37.1547 44.0511 37.3784 43.7714 37.6981C43.6196 37.8659 43.5237 37.9139 43.3878 37.8739C43.1161 37.786 42.1412 37.1227 42.0533 36.9469C42.0054 36.867 41.8695 36.7471 41.7416 36.6832C41.414 36.5074 41.0784 36.0279 40.9665 35.5645C40.9106 35.3407 40.8307 35.045 40.7827 34.9172C40.7428 34.7813 40.6469 34.3818 40.5829 34.0142C40.4631 33.319 40.1834 32.8155 39.8877 32.7436C39.7758 32.7116 39.7519 32.6477 39.7918 32.4799C39.8238 32.2961 39.7918 32.2322 39.624 32.1203C39.4642 32.0164 39.4162 31.9125 39.4162 31.7127V31.4331L39.8398 31.457L40.2553 31.481L40.3272 30.9376C40.3752 30.578 40.4391 30.4022 40.511 30.4022C40.6628 30.4022 40.6389 30.3063 40.4151 29.9147C40.3032 29.723 40.2153 29.5232 40.2153 29.4832C40.2153 29.4353 40.3991 29.2914 40.6229 29.1636C41.0304 28.9238 41.3261 28.6042 41.2222 28.5083C41.1983 28.4843 40.9186 28.5083 40.6069 28.5642C40.0715 28.6681 40.0315 28.6681 39.9516 28.5163C39.9037 28.4364 39.7359 28.2286 39.5761 28.0608C39.2484 27.7332 39.0966 27.7092 38.4173 27.877ZM44.5625 36.9709C44.6504 37.4024 44.6664 37.5942 44.6025 37.5942C44.5066 37.5942 44.4267 37.4344 44.3707 37.0988C44.3228 36.867 44.3388 36.7951 44.4187 36.7951C44.4826 36.7951 44.5465 36.875 44.5625 36.9709ZM40.1994 37.7221C40.2553 37.826 40.3911 37.9618 40.503 38.0097C40.6229 38.0657 40.8227 38.2175 40.9505 38.3374C41.1263 38.5132 41.2302 38.5611 41.398 38.5292C41.5179 38.5052 41.9814 38.5611 42.4369 38.657L43.26 38.8248L43.212 39.3523C43.18 39.6399 43.1401 39.9356 43.1241 40.0075C43.0921 40.1194 43.1321 40.1514 43.2999 40.1514C43.5077 40.1514 43.5157 40.1434 43.4677 39.7598C43.4038 39.2164 43.4677 39.0166 43.6595 39.1205C43.7874 39.1844 43.8113 39.2883 43.8113 39.7039C43.8113 40.0555 43.7714 40.2393 43.6915 40.3112C43.5396 40.439 43.5396 40.6788 43.6835 40.7347C43.7714 40.7667 43.7954 40.8865 43.7634 41.2062C43.7474 41.4379 43.6755 42.309 43.6116 43.148C43.5476 43.9791 43.4198 45.5613 43.3319 46.6641C43.244 47.7589 43.1001 49.5969 43.0122 50.7396C42.9243 51.8823 42.8284 53.097 42.8045 53.4326L42.7565 54.0559H42.3809C42.1812 54.0559 41.8775 54.0319 41.7177 54.008C41.446 53.96 41.414 53.928 41.414 53.7283C41.414 53.3926 41.1503 53.1929 40.6229 53.1369C40.1035 53.081 39.9596 53.0171 39.5761 52.6894C39.3123 52.4657 39.3044 52.4417 39.4402 52.3378C39.5761 52.2419 39.5761 52.2259 39.4162 52.1141C39.2644 52.0102 39.2564 51.9702 39.3523 51.8264C39.4322 51.6905 39.4322 51.6266 39.3523 51.4987C39.2324 51.307 39.2244 51.0992 39.3363 51.0992C39.3843 51.0992 39.4162 50.9713 39.4003 50.8115C39.3923 50.6597 39.4162 50.5079 39.4642 50.4759C39.5041 50.4439 39.624 50.2042 39.7279 49.9405C39.8318 49.6768 40.1195 49.0455 40.3592 48.542C40.6069 48.0386 40.7987 47.5751 40.7827 47.5192C40.7747 47.4632 40.8307 47.3514 40.9186 47.2794C40.9985 47.2075 41.1343 46.9278 41.2062 46.6721C41.3501 46.2086 41.3501 46.1847 41.1823 45.6732C41.0944 45.3855 40.9425 44.6983 40.8466 44.1469C40.7507 43.5955 40.535 42.7325 40.3752 42.2211C40.1674 41.5498 40.1035 41.2621 40.1674 41.1742C40.2233 41.0863 40.1994 40.8865 40.0795 40.503L39.9197 39.9516L40.1035 39.7278C40.3991 39.3762 40.3672 38.9207 40.0315 38.6011C39.7918 38.3693 39.7758 38.3374 39.8717 38.1536C39.9357 38.0417 39.9596 37.8419 39.9357 37.6981C39.8957 37.4903 39.9117 37.4504 39.9996 37.4823C40.0635 37.5063 40.1514 37.6102 40.1994 37.7221ZM32.1443 38.0257C32.1443 38.0897 32.1683 38.1935 32.1923 38.2655C32.2242 38.3534 32.1923 38.3933 32.0804 38.3933C31.8886 38.3933 31.8167 38.2495 31.9206 38.0497C32.0085 37.8819 32.1443 37.8659 32.1443 38.0257ZM38.3774 45.1538C38.5052 45.4495 38.6171 45.7372 38.6171 45.7931C38.6171 45.857 38.6811 45.9689 38.769 46.0568C38.9288 46.2166 38.9368 46.7201 38.7849 46.9918C38.6251 47.2874 38.0737 48.8297 37.9778 49.2612C37.9219 49.501 37.786 49.8766 37.6742 50.1003C37.4984 50.4519 37.4824 50.5558 37.5303 51.1072C37.5783 51.7145 37.5783 51.7225 37.3785 51.7704C37.1707 51.8264 37.1228 51.9702 37.2586 52.1061C37.3226 52.17 37.3146 52.2659 37.2586 52.4177C37.2107 52.5456 37.1468 52.9292 37.1228 53.2728C37.0988 53.6164 37.0509 53.8961 37.0109 53.8961C36.923 53.8961 36.6353 53.4726 36.4595 53.065C36.3237 52.7693 36.3157 52.6734 36.3876 52.5056C36.4595 52.3458 36.4595 52.2739 36.3796 52.178C36.2917 52.0741 36.2997 52.0102 36.4196 51.7784C36.5474 51.5547 36.5554 51.4748 36.4755 51.291C36.3956 51.1232 36.3956 50.8435 36.4995 49.8686C36.6353 48.55 36.8351 47.9667 37.2187 47.711C37.3945 47.5991 37.4185 47.5192 37.4185 47.1356C37.4185 46.8319 37.5223 46.3525 37.7461 45.6572C37.9219 45.0899 38.0817 44.6264 38.1057 44.6264C38.1217 44.6264 38.2415 44.8661 38.3774 45.1538Z" fill="#3DA630"/>
<path d="M49.0613 28.8999C48.9894 28.9559 48.9015 29.0917 48.8615 29.1956C48.8216 29.3155 48.6857 29.4193 48.5179 29.4753C48.1823 29.5792 47.8627 30.0906 48.0305 30.2584C48.1024 30.3303 48.1743 30.3064 48.3501 30.1385C48.6298 29.8668 48.8216 29.8668 49.0933 30.1305C49.309 30.3383 49.4849 30.3303 49.4849 30.1226C49.4849 30.0586 49.4049 29.9388 49.309 29.8429C49.1652 29.707 49.1492 29.6431 49.2132 29.4593C49.2531 29.3394 49.389 29.1956 49.5088 29.1396C49.6926 29.0517 49.7166 29.0118 49.6367 28.9159C49.5248 28.78 49.2371 28.7721 49.0613 28.8999Z" fill="#3DA630"/>
<path d="M63.1579 35.085C62.9741 35.3167 63.03 35.5245 63.3097 35.6763C63.4056 35.7243 64.8919 35.7562 67.4891 35.7562C71.4447 35.7562 71.5246 35.7562 71.7323 35.5884C71.9801 35.3886 71.996 35.2528 71.7803 35.037C71.6285 34.8852 71.5166 34.8772 67.4731 34.8772H63.3177L63.1579 35.085Z" fill="#3DA630"/>
<path d="M67.1928 37.0028C67.025 37.1706 67.033 37.3784 67.2088 37.5382C67.3446 37.6581 67.6803 37.6741 70.4052 37.6741C73.4339 37.6741 73.4498 37.6741 73.6177 37.4983C73.8094 37.2905 73.8094 37.2745 73.6496 37.0508L73.5298 36.875H70.4212C67.7042 36.875 67.2967 36.8909 67.1928 37.0028Z" fill="#3DA630"/>
<path d="M20.4292 49.6368C19.9657 49.7247 19.8138 50.372 20.1575 50.7396L20.3413 50.9393H22.7306H25.12L25.3117 50.7396C25.5834 50.4758 25.5834 50.0763 25.3037 49.8126L25.096 49.6208L22.8505 49.6128C21.6119 49.6048 20.5171 49.6128 20.4292 49.6368Z" fill="#3DA630"/>
<path d="M79.3317 49.6608C79.2038 49.7007 79.044 49.7966 78.9961 49.8765C78.8362 50.0923 78.8682 50.5957 79.052 50.7795C79.2038 50.9313 79.3157 50.9393 81.5692 50.9393H83.9346L84.1263 50.7396C84.398 50.4758 84.398 50.0763 84.1184 49.8126L83.9106 49.6208L81.745 49.6048C80.5463 49.5968 79.4675 49.6208 79.3317 49.6608Z" fill="#3DA630"/>
<path d="M20.7566 53.7762C20.4849 54.0399 20.4849 54.5194 20.7406 54.7591L20.9244 54.9349H25.2636C29.1473 54.9349 29.6187 54.919 29.8505 54.7991C29.9943 54.7272 30.3939 54.5514 30.7455 54.4075C31.5047 54.1039 31.6325 53.96 31.3448 53.7363C31.153 53.5844 30.9613 53.5764 26.0467 53.5764H20.9484L20.7566 53.7762Z" fill="#3DA630"/>
<path d="M4.91406 80.4184V64.4644H7.26389V71.1879H15.2086V64.4644H17.5584V80.4184H15.2086V73.467H7.26389V80.4184H4.91406Z" fill="#3DA630"/>
<path d="M20.688 80.4184V69.0227H22.9259V80.4184H20.688ZM20.5761 66.8575V64.4644H23.0378V66.8575H20.5761Z" fill="#3DA630"/>
<path d="M25.9576 80.4184V64.4644H28.1956V74.2647L32.8952 69.0227H35.5807L30.5454 74.6066L35.8045 80.4184H33.119L28.1956 74.9485V80.4184H25.9576Z" fill="#3DA630"/>
<path d="M38.386 73.8089H44.9879C44.8686 72.882 44.518 72.1375 43.9361 71.5753C43.3542 71.0131 42.6232 70.732 41.7429 70.732C40.8179 70.732 40.0719 71.0131 39.505 71.5753C38.938 72.1223 38.5651 72.8668 38.386 73.8089ZM44.4284 77.1137H46.7783C46.45 78.0253 45.8533 78.8458 44.9879 79.5752C44.1375 80.2893 43.0558 80.6464 41.7429 80.6464C40.1167 80.6464 38.7739 80.0994 37.7146 79.0054C36.6703 77.9114 36.1481 76.4831 36.1481 74.7206C36.1481 72.958 36.6703 71.5297 37.7146 70.4357C38.7739 69.3417 40.1167 68.7948 41.7429 68.7948C43.2647 68.7948 44.5403 69.3266 45.5698 70.3902C46.5992 71.4538 47.114 72.7833 47.114 74.3787C47.114 74.5154 47.0916 74.7889 47.0468 75.1992L47.0021 75.5183H38.386C38.5054 76.4907 38.8709 77.2656 39.4826 77.843C40.0943 78.4204 40.8478 78.7091 41.7429 78.7091C42.3695 78.7091 42.9216 78.5571 43.399 78.2533C43.8913 77.9342 44.2345 77.5543 44.4284 77.1137Z" fill="#3DA630"/>
<path d="M53.3872 80.4184V66.7435H48.4637V64.4644H60.6604V66.7435H55.737V80.4184H53.3872Z" fill="#3DA630"/>
<path d="M61.2287 80.4184V69.0227H63.1309L63.3547 70.0483H63.4666C63.4815 70.0331 63.5263 69.9799 63.6009 69.8887C63.6904 69.7976 63.7426 69.7368 63.7575 69.7064C63.7874 69.676 63.8471 69.6228 63.9366 69.5469C64.0261 69.4557 64.1007 69.3949 64.1604 69.3645C64.2201 69.3342 64.3021 69.2962 64.4065 69.2506C64.511 69.1898 64.6154 69.1518 64.7199 69.1366C64.8392 69.1062 64.9735 69.0834 65.1227 69.0683C65.2719 69.0379 65.4285 69.0227 65.5926 69.0227H67.6068V71.0739H65.8164C64.2499 71.0739 63.4666 71.864 63.4666 73.4442V80.4184H61.2287Z" fill="#3DA630"/>
<path d="M76.1293 80.4184L75.9055 79.1649H75.7936C75.5698 79.4536 75.3013 79.7043 74.9879 79.917C74.2718 80.4033 73.4214 80.6464 72.4367 80.6464C71.2133 80.6464 70.2361 80.3197 69.505 79.6663C68.774 79.013 68.4084 78.1621 68.4084 77.1137C68.4084 75.9437 68.7889 75.0244 69.5498 74.3559C70.3256 73.6873 71.4744 73.3531 72.9962 73.3531H75.7936V73.1251C75.7936 72.3806 75.5847 71.7956 75.167 71.3702C74.7492 70.9448 74.1748 70.732 73.4438 70.732C72.7276 70.732 72.1756 70.8992 71.7877 71.2334C71.3998 71.5525 71.1685 71.9172 71.0939 72.3274H68.856C68.9157 71.3246 69.3558 70.4889 70.1764 69.8204C70.997 69.1366 72.0861 68.7948 73.4438 68.7948C74.891 68.7948 76.0174 69.1822 76.8231 69.9571C77.6287 70.732 78.0315 71.788 78.0315 73.1251V80.4184H76.1293ZM75.7936 75.6322V75.1764H73.1081C72.2875 75.1764 71.6684 75.3435 71.2506 75.6778C70.8478 76.0121 70.6464 76.4527 70.6464 76.9997C70.6464 77.5315 70.8179 77.9494 71.1611 78.2533C71.5042 78.5571 72.004 78.7091 72.6605 78.7091C73.675 78.7091 74.4508 78.4432 74.9879 77.9114C75.525 77.3644 75.7936 76.6047 75.7936 75.6322Z" fill="#3DA630"/>
<path d="M88.7771 76.4299H91.015C90.9106 76.901 90.739 77.3644 90.5003 77.8202C90.2765 78.276 89.9632 78.7243 89.5604 79.1649C89.1725 79.6055 88.6578 79.9626 88.0162 80.2361C87.3747 80.5096 86.6585 80.6464 85.8678 80.6464C84.2416 80.6464 82.8988 80.0994 81.8395 79.0054C80.7952 77.9114 80.273 76.4831 80.273 74.7206C80.273 72.958 80.7952 71.5297 81.8395 70.4357C82.8988 69.3417 84.2416 68.7948 85.8678 68.7948C87.3597 68.7948 88.5309 69.2278 89.3814 70.0939C90.2318 70.9448 90.7763 71.8792 91.015 72.8972H88.7771C88.2997 71.5297 87.3299 70.846 85.8678 70.846C84.898 70.846 84.0924 71.2031 83.4508 71.9172C82.8242 72.6161 82.5109 73.5506 82.5109 74.7206C82.5109 75.8905 82.8242 76.8326 83.4508 77.5467C84.0924 78.2457 84.898 78.5951 85.8678 78.5951C86.6735 78.5951 87.3225 78.3748 87.8148 77.9342C88.3071 77.4935 88.6279 76.9921 88.7771 76.4299Z" fill="#3DA630"/>
<path d="M93.3579 80.4184V64.4644H95.5958V74.2647L100.295 69.0227H102.981L97.9456 74.6066L103.205 80.4184H100.519L95.5958 74.9485V80.4184H93.3579Z" fill="#3DA630"/>
</g>
<defs>
<clipPath id="clip0_334_1671">
<rect width="108" height="88" fill="white"/>
</clipPath>
</defs>
</svg>
