<svg width="269" height="104" viewBox="0 0 269 104" fill="none" xmlns="http://www.w3.org/2000/svg">
<g clip-path="url(#clip0_1033_9160)">
<path d="M6.53809 72.5264C8.70331 74.2111 15.2375 78.4069 18.7018 78.9123C21.6919 79.7547 27.6308 81.2937 30.1053 81.041C32.5799 80.7883 35.8107 80.0879 37.0995 79.8246L46.0703 74.9591L58.1759 71.2706C60.4958 69.5331 65.4139 66.0267 66.5274 65.9004C67.641 65.774 69.5691 65.2159 70.3939 64.9527C73.848 63.7944 81.7768 61.6042 85.8598 62.1096C90.9636 62.7414 95.4487 63.0573 98.2325 64.9527C99.3094 65.6859 99.8752 66.0054 100.143 66.1043L100.243 65.9004C100.376 66.0635 100.43 66.2098 100.143 66.1043L92.2008 82.3268H87.5611H84.6225L82.148 82.9586H80.1374H79.3641L77.2398 82.3268C76.7759 82.0636 76.423 80.4821 76.1755 79.9767C75.9281 79.4712 73.3434 78.0704 72.9825 77.5439L72.2223 75.2632L71.7662 74.9591H70.7018L68.6927 74.3509V73.008L65.9884 72.6784L66.2925 71.31L65.8363 70.6388L64.9241 71.31L62.9703 70.6388L60.1864 76.7987L55.392 79.0099L54.3094 81.0633L51.0616 82.3268L49.515 84.5381L48.2777 84.0642L47.3497 82.9586C46.8858 82.748 45.865 82.3268 45.4938 82.3268C45.1227 82.3268 40.5963 82.748 38.3795 82.9586L26.0068 82.3268L21.0577 84.5381L12.8608 82.3268L6.53809 72.5264Z" fill="#5BB351"/>
<path d="M20.9962 48.7274C12.1329 53.4265 5.22599 50.6854 2.88043 48.7274C0.634672 50.0538 1.83241 69.1913 7.82109 73.7389C13.8098 78.2864 15.4567 78.4759 24.4397 80.7497C33.4227 83.0235 39.4114 79.6128 46.1486 77.1495C52.8859 74.6863 60.8209 69.3808 63.0667 67.865C65.3124 66.3491 73.2474 63.6964 82.5299 62.749C89.9559 61.9911 96.4966 64.524 99.5908 66.2925C102.036 52.263 101.483 55.3745 101.134 51.3323C99.3869 51.3323 96.214 51.9486 90.4649 51.9486C83.2785 51.9486 68.4565 43.6114 63.0667 41.1482C57.6769 38.6849 48.5441 38.306 38.6628 39.8218C28.7815 41.3377 32.0752 42.8535 20.9962 48.7274Z" fill="#3DA630"/>
<path d="M27.3951 39.1617C22.6603 41.3907 11.5002 41.2364 4.56945 40.7568C3.21318 40.6629 2.38327 39.2574 2.9771 38.0344C13.7541 15.8397 43.6728 -17.1005 80.2037 11.097C81.9792 12.4675 79.6864 17.2558 77.4454 17.1619C76.784 17.1342 76.0951 17.1129 75.3789 17.0991C67.4869 16.9469 59.5948 22.4245 54.7017 24.4025C49.8086 26.3806 34.1823 35.9664 27.3951 39.1617Z" fill="#F5F6F6"/>
<path d="M24.3354 25.1554C20.3066 29.4441 20.2768 35.4361 21.1127 39.3335C21.3321 40.3562 22.3813 40.9205 23.3922 40.6515C25.7944 40.0124 29.057 39.1025 30.5693 38.5354C33.002 37.6232 41.3646 33.5179 42.4289 32.7577C43.0668 32.3021 45.2804 30.851 47.0754 29.6828C47.9652 29.1037 48.2591 27.9221 47.6543 27.0495C42.7865 20.0252 36.4322 20.2894 35.1932 20.4153C35.0496 20.4299 34.9095 20.4381 34.7651 20.4384C33.6643 20.4407 28.5204 20.7004 24.3354 25.1554Z" fill="#E1C83F"/>
<path d="M21.1499 37.4558C13.8517 39.8886 11.9955 38.2262 4.61889 38.8242C3.35367 38.9268 1.51402 41.8834 1.34757 43.1418C0.641918 48.4766 0.600409 53.9297 5.41009 57.1795C5.55052 57.2744 5.71196 57.3501 5.873 57.4029C26.968 64.3186 34.1046 64.6663 41.9804 63.1518C49.8868 61.6313 57.4891 57.526 63.2669 54.9412C69.0447 52.3564 72.9979 52.6605 80.6003 51.5962C85.7406 50.8765 94.6716 52.748 100.251 53.7119C101.58 53.9415 102.694 52.781 102.456 51.4537L100.807 42.269L97.3101 30.7135C94.5732 24.0234 89.4281 19.297 87.6036 17.8246C78.9369 10.8305 93.0156 14.0446 76.7795 10.3784C57.8128 6.09565 38.9394 31.3233 34.0739 33.1985C32.1987 33.8067 26.9885 35.5096 21.1499 37.4558Z" fill="#C5E3C1"/>
<path d="M45.5364 0.168732C29.7504 2.3634 16.0399 11.2006 7.79608 24.4564C-3.28339 42.3064 -2.49409 65.131 9.78395 82.3373C24.3714 102.733 51.7924 109.785 74.4191 98.929C90.3805 91.2623 101.021 76.7774 103.594 59.1615C104.325 54.2455 104.033 46.0228 103.009 41.1945C99.0629 22.9933 86.0247 8.30365 68.6601 2.50972C63.3104 0.724716 59.7439 0.139473 53.2833 0.0224228C50.0676 -0.0361023 46.5888 0.0224228 45.5364 0.168732ZM58.253 3.12423C64.5674 3.88505 71.5834 6.34308 77.167 9.67898C95.204 20.5353 104.266 40.8433 100.32 61.6196C99.2383 67.355 96.4611 74.056 93.0115 79.2647L91.0529 82.1617L88.2465 81.9861C86.1709 81.8398 85.06 81.8983 83.9784 82.2202C83.1891 82.4543 81.6105 82.6884 80.4704 82.7469C78.4533 82.8347 78.424 82.8347 77.9855 81.8983C77.7517 81.4009 76.9331 80.4352 76.1731 79.7622C75.3838 79.0892 74.7699 78.3576 74.7699 78.0942C74.7699 77.8601 74.4483 77.2456 74.0683 76.7482C73.6882 76.2214 73.3082 75.4606 73.1913 75.051C72.9574 74.056 72.5189 73.8805 71.0572 74.2901C69.8879 74.5828 69.8294 74.5828 68.6893 73.383C68.0462 72.71 67.3738 72.154 67.1692 72.154C66.9645 72.154 66.9061 71.8028 67.023 71.1591C67.1984 70.3105 67.1399 70.1349 66.6137 69.9593C66.2922 69.8715 65.7952 69.9008 65.5029 70.0471C65.2105 70.2227 64.2458 70.4275 63.3688 70.5446C61.9656 70.7201 61.6733 70.6616 61.2348 70.1642C60.9425 69.8423 60.7378 69.4033 60.7671 69.1692C60.884 68.4962 60.387 67.1794 60.0947 67.355C59.9485 67.4428 59.51 67.4428 59.1592 67.355C58.4576 67.1794 58.1945 66.6527 56.7913 62.7023C56.2651 61.2392 55.5927 60.7417 54.1311 60.7417C53.4295 60.7417 53.4295 60.7417 53.4295 57.5228C53.4295 55.6208 53.5756 54.0699 53.751 53.7773C53.9849 53.4261 54.0141 52.7238 53.8972 51.8752C53.7218 50.7925 53.5756 50.4999 53.1079 50.4999C52.7571 50.4999 52.5525 50.7047 52.5525 51.0559C52.5525 51.7582 50.6815 53.4261 49.8922 53.4261C49.366 53.4261 49.3075 53.3091 49.5122 52.0215C49.5999 51.2607 49.8045 50.4121 49.9507 50.1487C50.0969 49.8854 50.2138 49.3001 50.2138 48.8612C50.2138 48.2174 50.2723 48.1296 50.6523 48.4515C51.2954 48.9782 51.237 48.1296 50.5061 46.6958C49.7168 45.1449 49.7461 44.6474 50.6523 44.6474C51.1785 44.6474 51.4124 44.4426 51.5585 43.9159C51.6462 43.5062 51.8216 43.1843 51.9678 43.1843C52.2894 43.1843 52.2601 40.4922 51.9093 39.5851C51.7339 39.1461 51.237 38.5901 50.7692 38.356C49.8338 37.8586 47.4074 37.7708 47.1443 38.2097C47.0566 38.356 46.7058 38.5023 46.3842 38.5023C46.0042 38.5023 45.8288 38.2975 45.8288 37.8293C45.8288 36.9222 45.1856 36.3955 43.0808 35.4591C40.8006 34.4641 40.216 34.4934 38.7835 35.781C37.3218 37.127 36.6787 38.3268 35.6848 41.7797C35.2755 43.2721 34.6908 44.823 34.3985 45.2034C34.0769 45.5838 33.8431 46.052 33.8431 46.2276C33.8138 46.4032 33.4046 46.8128 32.8784 47.1347C32.0891 47.6322 31.9137 47.9248 31.8552 48.9782C31.7675 49.9732 31.8552 50.2073 32.2645 50.2073C32.6737 50.2073 32.7322 50.4121 32.5568 51.5826C32.4691 52.3434 32.206 53.2213 31.9721 53.5432C31.7675 53.8943 31.5044 54.7429 31.4167 55.4745C31.2998 56.206 31.1536 57.4058 31.0367 58.1373C30.832 59.5712 31.4752 61.3269 32.206 61.3269C32.6737 61.3269 33.1999 60.215 33.4338 58.7226L33.6092 57.5814L34.5447 58.6641C35.0709 59.2493 35.5971 59.9516 35.6848 60.215C35.8894 60.8002 36.5033 60.888 36.971 60.4198C37.4095 59.9809 38.4912 60.5954 38.6373 61.4147C38.725 61.7659 38.842 62.9071 38.9004 63.9313C38.9881 65.4237 39.1343 65.9211 39.6605 66.3308C40.099 66.7112 40.3914 67.3842 40.596 68.6133C40.8299 70.1642 40.7714 70.6324 40.1283 72.6222C39.719 73.8512 39.3974 75.4021 39.4267 76.0751C39.4559 76.7189 39.4267 78.5039 39.3974 79.967L39.3389 82.6884H37.965C37.2341 82.6884 35.8894 82.4836 35.0124 82.2495C33.8138 81.9276 32.6153 81.8398 30.1889 81.9861C28.4349 82.1032 26.7686 82.2787 26.5055 82.4251C26.2424 82.5421 25.1023 82.9225 23.9329 83.2151C22.2959 83.6541 21.5943 83.7126 20.7465 83.5078C20.1618 83.3615 19.0217 83.0981 18.2032 82.9225C17.4139 82.7762 16.0984 82.4543 15.3091 82.2202C14.549 81.9861 13.6428 81.8105 13.3504 81.8105C12.9704 81.8105 12.2103 80.9327 11.0118 79.0892C-0.0969499 62.2048 0.166151 40.9311 11.6549 23.959C14.3444 20.0378 19.7233 14.5365 23.6114 11.7859C26.7393 9.59119 32.8491 6.46013 36.2694 5.3189C38.842 4.44103 43.1101 3.44611 45.6826 3.12423C48.3428 2.74381 55.3004 2.77308 58.253 3.12423ZM52.7863 55.1819C52.8448 55.5623 52.8156 56.9961 52.6986 58.3129L52.494 60.7124L51.5878 60.5369C49.9799 60.2442 49.2783 59.659 49.366 58.6055C49.4245 58.0788 49.366 57.5228 49.2491 57.318C48.9275 56.8205 49.2783 56.1768 50.0969 55.7378C50.5061 55.533 50.9739 55.0941 51.12 54.8014C51.5585 54.0114 52.6694 54.2747 52.7863 55.1819ZM54.0141 64.9847C54.0141 65.4237 54.9788 67.2087 55.8266 68.3206C56.1189 68.701 56.3528 69.3155 56.3528 69.6667C56.3528 70.0471 56.8205 70.9835 57.376 71.7443C58.3991 73.1782 59.3346 74.9339 59.6854 76.1629C59.8608 76.7189 59.7439 76.836 58.7792 76.9823C56.2651 77.3919 54.628 78.5039 54.1018 80.1719C53.9557 80.6693 53.6633 81.1083 53.4879 81.1668C53.2248 81.2546 53.1371 80.2011 53.1371 77.1871C53.1371 71.2469 53.4879 64.2532 53.7803 64.4287C53.8972 64.5165 54.0141 64.7506 54.0141 64.9847ZM52.6986 65.57C52.7863 66.0382 52.8448 69.813 52.7863 73.9097L52.6986 81.3716L51.8801 81.4594C51.3247 81.5179 50.9446 81.8105 50.74 82.3373C50.0092 84.0637 48.4598 85.1172 48.4598 83.8882C48.4598 83.1859 48.0213 82.864 46.5596 82.3958C44.6887 81.8105 44.0748 81.3131 44.0748 80.3767C44.0748 79.9085 43.8994 79.4696 43.724 79.411C43.4609 79.3233 43.5193 79.0599 43.8994 78.4454L44.4548 77.5968L43.6655 76.9823C42.7008 76.2214 42.7008 75.8996 43.7824 72.5344C44.2794 71.042 44.6594 69.5496 44.6594 69.257C44.6594 68.9644 44.8933 68.6425 45.1856 68.584C45.6241 68.4669 45.7118 68.2328 45.5949 67.5013C45.5364 67.0038 45.5657 66.1552 45.6534 65.6285L45.8288 64.6336L49.1906 64.6628L52.5525 64.6921L52.6986 65.57Z" fill="#28292A"/>
<path d="M68.6824 19.7469C68.0336 20.3956 67.5065 21.3281 67.5065 21.7741C67.5065 22.4634 67.3038 22.5445 66.0064 22.3418C64.5872 22.0985 64.5062 22.1391 65.0333 22.7878C65.682 23.5582 65.7225 23.5176 63.9385 24.4096C61.8707 25.4638 61.5463 26.6396 62.6816 28.9913L63.6141 30.9375L63.9385 28.7886C64.5062 25.0584 65.6009 24.0447 67.9931 25.2205C69.8582 26.1936 70.0609 26.072 69.7771 24.2474C69.5338 22.6256 69.9798 21.1254 70.9124 20.4767C71.1557 20.3145 72.0882 19.9901 72.9802 19.7469C74.3588 19.3414 74.4804 19.2198 73.7911 18.9359C71.926 18.2061 69.9393 18.5305 68.6824 19.7469Z" fill="#3B3B3B"/>
<path d="M84.0492 26.6801C83.7654 27.1261 83.4005 27.491 83.2383 27.491C83.0761 27.491 82.4679 27.937 81.8597 28.5046C80.8461 29.4372 80.8056 29.5994 81.2921 30.6536L81.8597 31.7483L82.0625 30.3292C82.3057 28.9912 82.4274 28.9101 83.6438 29.0317C84.4952 29.0723 84.9007 28.9506 84.7385 28.7074C84.333 28.0181 84.9007 26.8422 85.8738 26.3557C86.7252 25.9502 86.7252 25.9097 85.671 25.9097C84.9412 25.8691 84.333 26.1935 84.0492 26.6801Z" fill="#3B3B3B"/>
<path d="M72.0072 45.2905C70.6692 46.5069 70.3448 47.034 70.6286 47.5611C70.953 48.1287 71.0746 48.0476 71.4801 47.1556C71.845 46.3447 72.1694 46.142 72.7776 46.3447C73.4263 46.5474 73.5885 46.4258 73.5885 45.5743C73.5885 44.9256 73.8318 44.5201 74.1967 44.5201C74.521 44.5201 74.8049 44.3174 74.8049 44.1147C74.8049 43.2632 73.6696 43.7498 72.0072 45.2905Z" fill="#3B3B3B"/>
<path d="M148.591 43.7981H152.841V62.2887H148.591V43.7981ZM140.25 62.2887H136V43.7981H140.25V62.2887ZM148.906 54.7075H139.935V51.0887H148.906V54.7075Z" fill="#27861D"/>
<path d="M156.897 62.2887V48.0774H160.989V62.2887H156.897ZM158.943 46.0962C158.191 46.0962 157.579 45.8761 157.106 45.4359C156.634 44.9956 156.398 44.4497 156.398 43.7981C156.398 43.1465 156.634 42.6006 157.106 42.1604C157.579 41.7201 158.191 41.5 158.943 41.5C159.695 41.5 160.307 41.7113 160.779 42.134C161.251 42.539 161.487 43.0673 161.487 43.7189C161.487 44.4057 161.251 44.978 160.779 45.4359C160.324 45.8761 159.712 46.0962 158.943 46.0962Z" fill="#27861D"/>
<path d="M168.17 59.383L168.275 54.3642L174.86 48.0774H179.739L173.417 54.5491L171.292 56.2925L168.17 59.383ZM164.787 62.2887V42.6887H168.879V62.2887H164.787ZM175.305 62.2887L170.531 56.3189L173.102 53.1226L180.263 62.2887H175.305Z" fill="#27861D"/>
<path d="M188.518 62.5C186.909 62.5 185.493 62.183 184.269 61.5491C183.062 60.9151 182.126 60.0522 181.462 58.9604C180.797 57.8509 180.465 56.5918 180.465 55.183C180.465 53.7566 180.789 52.4975 181.436 51.4057C182.1 50.2962 183.001 49.4333 184.138 48.817C185.274 48.183 186.56 47.866 187.994 47.866C189.375 47.866 190.617 48.1654 191.718 48.7642C192.838 49.3453 193.721 50.1906 194.368 51.3C195.015 52.3918 195.338 53.7038 195.338 55.2358C195.338 55.3943 195.33 55.5792 195.312 55.7906C195.295 55.9843 195.277 56.1692 195.26 56.3453H183.797V53.9415H193.109L191.535 54.6547C191.535 53.9151 191.386 53.2723 191.089 52.7264C190.792 52.1805 190.381 51.7579 189.856 51.4585C189.331 51.1415 188.719 50.983 188.02 50.983C187.32 50.983 186.699 51.1415 186.157 51.4585C185.633 51.7579 185.222 52.1893 184.924 52.7528C184.627 53.2987 184.479 53.9503 184.479 54.7075V55.3415C184.479 56.1164 184.645 56.8031 184.977 57.4019C185.327 57.983 185.808 58.4321 186.42 58.7491C187.049 59.0484 187.784 59.1981 188.623 59.1981C189.375 59.1981 190.031 59.0836 190.591 58.8547C191.168 58.6258 191.692 58.2824 192.164 57.8245L194.342 60.2019C193.695 60.9415 192.881 61.5138 191.902 61.9189C190.923 62.3063 189.795 62.5 188.518 62.5Z" fill="#27861D"/>
<path d="M199.721 62.2887V47.2849H193.846V43.7981H209.847V47.2849H203.971V62.2887H199.721Z" fill="#27861D"/>
<path d="M211.537 62.2887V48.0774H215.446V52.0925L214.895 50.9302C215.315 49.9264 215.988 49.1692 216.915 48.6585C217.842 48.1302 218.97 47.866 220.299 47.866V51.6698C220.124 51.6522 219.966 51.6434 219.827 51.6434C219.687 51.6258 219.538 51.617 219.381 51.617C218.261 51.617 217.352 51.9428 216.652 52.5943C215.97 53.2283 215.629 54.2233 215.629 55.5792V62.2887H211.537Z" fill="#27861D"/>
<path d="M230.466 62.2887V59.5151L230.204 58.9075V53.9415C230.204 53.061 229.933 52.3742 229.391 51.8811C228.866 51.3881 228.053 51.1415 226.951 51.1415C226.199 51.1415 225.456 51.2648 224.721 51.5113C224.004 51.7403 223.392 52.0572 222.885 52.4623L221.416 49.583C222.186 49.0371 223.113 48.6145 224.197 48.3151C225.281 48.0157 226.383 47.866 227.502 47.866C229.653 47.866 231.323 48.3767 232.512 49.3981C233.701 50.4195 234.296 52.0132 234.296 54.1792V62.2887H230.466ZM226.164 62.5C225.062 62.5 224.118 62.3151 223.331 61.9453C222.544 61.5579 221.941 61.0384 221.521 60.3868C221.101 59.7352 220.892 59.0044 220.892 58.1943C220.892 57.3491 221.093 56.6094 221.495 55.9755C221.915 55.3415 222.57 54.8484 223.462 54.4962C224.354 54.1264 225.517 53.9415 226.951 53.9415H230.702V56.3453H227.397C226.435 56.3453 225.771 56.5038 225.403 56.8208C225.054 57.1377 224.879 57.534 224.879 58.0094C224.879 58.5377 225.08 58.9604 225.482 59.2774C225.902 59.5767 226.47 59.7264 227.187 59.7264C227.869 59.7264 228.481 59.5679 229.023 59.2509C229.565 58.9164 229.959 58.4321 230.204 57.7981L230.833 59.7C230.536 60.6157 229.994 61.3113 229.207 61.7868C228.42 62.2623 227.406 62.5 226.164 62.5Z" fill="#27861D"/>
<path d="M244.922 62.5C243.401 62.5 242.045 62.1918 240.856 61.5755C239.667 60.9415 238.732 60.0698 238.05 58.9604C237.385 57.8509 237.053 56.5918 237.053 55.183C237.053 53.7566 237.385 52.4975 238.05 51.4057C238.732 50.2962 239.667 49.4333 240.856 48.817C242.045 48.183 243.401 47.866 244.922 47.866C246.409 47.866 247.703 48.183 248.804 48.817C249.906 49.4333 250.719 50.3226 251.244 51.4849L248.07 53.2019C247.703 52.5327 247.239 52.0396 246.68 51.7226C246.138 51.4057 245.543 51.2472 244.896 51.2472C244.196 51.2472 243.567 51.4057 243.007 51.7226C242.448 52.0396 242.002 52.4887 241.669 53.0698C241.355 53.6509 241.197 54.3553 241.197 55.183C241.197 56.0107 241.355 56.7151 241.669 57.2962C242.002 57.8774 242.448 58.3264 243.007 58.6434C243.567 58.9604 244.196 59.1189 244.896 59.1189C245.543 59.1189 246.138 58.9692 246.68 58.6698C247.239 58.3528 247.703 57.8509 248.07 57.1642L251.244 58.9075C250.719 60.0522 249.906 60.9415 248.804 61.5755C247.703 62.1918 246.409 62.5 244.922 62.5Z" fill="#27861D"/>
<path d="M256.907 59.383L257.012 54.3642L263.596 48.0774H268.475L262.154 54.5491L260.029 56.2925L256.907 59.383ZM253.523 62.2887V42.6887H257.615V62.2887H253.523ZM264.042 62.2887L259.268 56.3189L261.839 53.1226L269 62.2887H264.042Z" fill="#27861D"/>
</g>
<defs>
<clipPath id="clip0_1033_9160">
<rect width="269" height="104" fill="white"/>
</clipPath>
</defs>
</svg>
