<svg width="24" height="24" viewBox="0 0 24 24" fill="none" xmlns="http://www.w3.org/2000/svg">
<path d="M6 22C5.44772 22 5 21.5523 5 21V3C5 2.44772 5.44772 2 6 2C6.55228 2 7 2.44772 7 3C7 3.55228 7.44772 4 8 4H19.523C20.2304 4 20.7142 4.71453 20.4514 5.37139L19.1486 8.62861C19.0532 8.86702 19.0532 9.13298 19.1486 9.37139L20.4514 12.6286C20.7142 13.2855 20.2304 14 19.523 14H8C7.44772 14 7 14.4477 7 15V21C7 21.5523 6.55228 22 6 22ZM12.5 11C13.05 11 13.521 10.8043 13.913 10.413C14.305 10.0217 14.5007 9.55067 14.5 9C14.4993 8.44933 14.3037 7.97867 13.913 7.588C13.5223 7.19733 13.0513 7.00133 12.5 7C11.9487 6.99867 11.478 7.19467 11.088 7.588C10.698 7.98133 10.502 8.452 10.5 9C10.498 9.548 10.694 10.019 11.088 10.413C11.482 10.807 11.9527 11.0027 12.5 11ZM7 11C7 11.5523 7.44772 12 8 12H16.573C17.2804 12 17.7642 11.2855 17.5014 10.6286L16.9986 9.37139C16.9032 9.13298 16.9032 8.86702 16.9986 8.62861L17.5014 7.37139C17.7642 6.71452 17.2804 6 16.573 6H8C7.44772 6 7 6.44772 7 7V11Z" fill="#FEFEFE"/>
</svg>
