<svg width="44" height="44" viewBox="0 0 44 44" fill="none" xmlns="http://www.w3.org/2000/svg">
<rect width="44" height="44" rx="22" fill="#FEFEFE"/>
<path d="M23.6003 13.2004C23.1648 12.7981 22.5937 12.5747 22.0008 12.5747C21.408 12.5747 20.8369 12.7981 20.4014 13.2004L13.6051 19.4781C13.2793 19.7791 13.0194 20.1444 12.8416 20.5508C12.6639 20.9572 12.5722 21.396 12.5723 21.8395V29.0712C12.5723 29.6964 12.8206 30.2959 13.2627 30.738C13.7047 31.18 14.3043 31.4284 14.9294 31.4284H29.0723C29.6974 31.4284 30.297 31.18 30.739 30.738C31.1811 30.2959 31.4294 29.6964 31.4294 29.0712V21.8395C31.4295 21.396 31.3378 20.9572 31.16 20.5508C30.9823 20.1444 30.7223 19.7791 30.3966 19.4781L23.6003 13.2004ZM28.6471 30.1427L28.5597 30.1281L28.1586 30.0595C27.6787 29.9748 27.1998 29.8848 26.722 29.7895C25.2578 29.5015 23.805 29.1581 22.3668 28.7601C20.7786 28.3135 19.2297 27.7778 18.0888 27.1761C17.5171 26.8735 17.0808 26.5718 16.7963 26.2812C16.5117 25.9907 16.4294 25.7644 16.4294 25.5998C16.4294 25.3847 16.5006 25.233 16.6386 25.0975C16.7946 24.9432 17.056 24.7941 17.4494 24.6655C18.2423 24.4058 19.3437 24.2961 20.5523 24.2138L21.2011 24.171C22.174 24.1092 23.1708 24.0458 23.9834 23.901C24.4831 23.811 24.9674 23.6824 25.3617 23.4741C25.7611 23.2641 26.1383 22.9307 26.2677 22.413C26.4031 21.8687 26.2231 21.3835 25.9446 20.9987C25.6746 20.6267 25.2811 20.2984 24.8663 20.007C24.3288 19.6298 23.6448 19.2415 22.9763 18.8627C22.6334 18.6672 22.2931 18.4752 21.9803 18.2875C20.9868 17.6927 20.2403 17.1407 19.9171 16.5972C19.7714 16.3521 19.7311 16.1387 19.7714 15.9261C19.8134 15.699 19.9626 15.3904 20.3551 14.997L20.3843 14.967L21.274 14.1441C21.4719 13.9613 21.7314 13.8598 22.0008 13.8598C22.2702 13.8598 22.5298 13.9613 22.7277 14.1441L29.524 20.4227C29.7194 20.6033 29.8754 20.8224 29.9821 21.0663C30.0887 21.3101 30.1438 21.5734 30.1437 21.8395V29.0712C30.1437 29.6627 29.6637 30.1427 29.0723 30.1427H28.6471ZM18.5526 16.659C18.6137 16.8681 18.7003 17.0664 18.8123 17.2538C19.3231 18.1135 20.3517 18.8104 21.3194 19.3907C21.6966 19.6161 22.0694 19.8278 22.426 20.0292C23.0534 20.385 23.6363 20.715 24.1266 21.0587C24.5028 21.3235 24.7591 21.5541 24.9031 21.753C25.0386 21.9398 25.036 22.0384 25.0197 22.101C25.0111 22.1361 24.9768 22.2235 24.7608 22.3375C24.5414 22.4547 24.2068 22.5538 23.7571 22.635C23.0234 22.7661 22.1226 22.8235 21.1531 22.8861C20.9263 22.8998 20.6966 22.9147 20.464 22.9307C19.2768 23.0121 18.0177 23.1261 17.0483 23.4441C16.5606 23.6035 16.0908 23.8324 15.7368 24.1812C15.5464 24.3647 15.3955 24.5852 15.2935 24.8292C15.1915 25.0731 15.1405 25.3354 15.1437 25.5998C15.1437 26.2255 15.4626 26.7561 15.8774 27.1804C16.2931 27.6055 16.8588 27.9801 17.4888 28.3127C18.7497 28.9787 20.4031 29.5427 22.018 29.9978C22.194 30.047 22.3697 30.0952 22.5451 30.1427H14.9294C14.338 30.1427 13.858 29.6627 13.858 29.0712V21.8395C13.858 21.3012 14.0826 20.7878 14.4777 20.4227L18.5526 16.659Z" fill="#040506"/>
</svg>
