<svg width="24" height="24" viewBox="0 0 24 24" fill="none" xmlns="http://www.w3.org/2000/svg">
<path d="M16.5756 15.9633L16.5724 15.9629C16.4238 15.9455 16.2732 15.9619 16.1319 16.0111C15.9906 16.0602 15.8623 16.1407 15.7565 16.2465L15.7562 16.2469L13.9162 18.0869L13.4107 18.5923C15.1276 19.3678 17.0059 19.8489 18.9809 19.9717L16.5756 15.9633ZM16.5756 15.9633L19.1111 16.2528C19.1117 16.2529 19.1124 16.2529 19.1131 16.253C19.6262 16.315 19.9939 16.742 19.9891 17.2299H19.9891M16.5756 15.9633L19.9891 17.2299M5.40616 10.5885L5.91196 10.0827L7.76196 8.23266C7.97567 8.01895 8.08082 7.72164 8.04562 7.41409L5.40616 10.5885ZM5.40616 10.5885C4.63091 8.872 4.14977 6.9938 4.02714 5.01783L5.40616 10.5885ZM19.9891 17.2299V17.2398M19.9891 17.2299V17.2398M19.9891 17.2398V18.9698C19.9891 19.5607 19.4986 20.0036 18.9811 19.9717L19.9891 17.2398ZM12.7556 18.2711L13.1514 18.4724C9.80743 16.8892 7.09984 14.1804 5.51927 10.8333L5.72777 11.2432C7.26778 14.2704 9.72843 16.7311 12.7556 18.2711Z" stroke="#7E7F80" stroke-width="2"/>
</svg>
