<svg width="69" height="68" viewBox="0 0 69 68" fill="none" xmlns="http://www.w3.org/2000/svg">
<rect x="0.5" width="68" height="68" rx="34" fill="#FEFEFE"/>
<path d="M43.5003 27.232C42.948 27.232 42.5003 26.7843 42.5003 26.232V24.232C42.5003 22.5751 41.1572 21.232 39.5003 21.232H29.5003C27.8434 21.232 26.5003 22.5751 26.5003 24.232V26.232C26.5003 26.7843 26.0526 27.232 25.5003 27.232C24.948 27.232 24.5003 26.7843 24.5003 26.232V23.232C24.5003 21.0229 26.2912 19.232 28.5003 19.232H40.5003C42.7094 19.232 44.5003 21.0229 44.5003 23.232V26.232C44.5003 26.7843 44.0526 27.232 43.5003 27.232ZM45.7303 34.232C46.297 34.232 46.7723 34.04 47.1563 33.656C47.5403 33.272 47.7316 32.7973 47.7303 32.232C47.729 31.6667 47.5376 31.1913 47.1563 30.806C46.775 30.4207 46.2996 30.2287 45.7303 30.23C45.161 30.2313 44.6863 30.4233 44.3063 30.806C43.9263 31.1887 43.7343 31.664 43.7303 32.232C43.7263 32.8 43.9183 33.2747 44.3063 33.656C44.6943 34.0373 45.1676 34.2293 45.7303 34.232ZM38.5003 48C40.7094 48 42.5003 46.2091 42.5003 44V42.924C42.5003 40.7149 40.7094 38.924 38.5003 38.924H30.5003C28.2912 38.924 26.5003 40.7149 26.5003 42.924V44C26.5003 46.2091 28.2912 48 30.5003 48H38.5003ZM44.5003 46C44.5003 48.2091 42.7094 50 40.5003 50H28.5003C26.2912 50 24.5003 48.2091 24.5003 46V45.423C24.5003 43.5325 22.9678 42 21.0773 42C19.1868 42 17.6543 40.4675 17.6543 38.577V31.232C17.6543 30.0987 18.039 29.1487 18.8083 28.382C19.5776 27.6153 20.5263 27.2313 21.6543 27.23H47.3463C48.4796 27.23 49.4296 27.614 50.1963 28.382C50.963 29.15 51.3463 30.0993 51.3463 31.23V38.577C51.3463 40.4675 49.8138 42 47.9233 42C46.0328 42 44.5003 43.5325 44.5003 45.423V46ZM46.9233 40C48.2615 40 49.3463 38.9152 49.3463 37.577V31.232C49.3463 30.6653 49.155 30.19 48.7723 29.806C48.3896 29.422 47.9143 29.23 47.3463 29.23H21.6543C21.0876 29.23 20.613 29.422 20.2303 29.806C19.8476 30.19 19.6556 30.6653 19.6543 31.232V37.577C19.6543 38.9152 20.7391 40 22.0773 40H22.9623C23.8117 40 24.5003 39.3114 24.5003 38.462C24.5003 37.6126 25.1889 36.924 26.0383 36.924H42.9623C43.8117 36.924 44.5003 37.6126 44.5003 38.462C44.5003 39.3114 45.1889 40 46.0383 40H46.9233Z" fill="#27861D"/>
</svg>
