<svg width="65" height="64" viewBox="0 0 65 64" fill="none" xmlns="http://www.w3.org/2000/svg">
<rect x="0.5" width="64" height="64" rx="32" fill="#ECF1F5"/>
<g clip-path="url(#clip0_582_9042)">
<path d="M48.5 32C48.5 23.1635 41.3365 16 32.5 16C23.6635 16 16.5 23.1635 16.5 32C16.5 39.986 22.351 46.6054 30 47.8056V36.625H25.9375V32H30V28.475C30 24.465 32.3888 22.25 36.0435 22.25C37.794 22.25 39.625 22.5625 39.625 22.5625V26.5H37.6075C35.6199 26.5 35 27.7334 35 28.9987V32H39.4375L38.7281 36.625H35V47.8056C42.649 46.6054 48.5 39.9861 48.5 32Z" fill="#1877F2"/>
<path d="M38.7281 36.625L39.4375 32H35V28.9987C35 27.7334 35.6199 26.5 37.6075 26.5H39.625V22.5625C39.625 22.5625 37.794 22.25 36.0434 22.25C32.3888 22.25 30 24.465 30 28.475V32H25.9375V36.625H30V47.8056C30.827 47.9352 31.6629 48.0002 32.5 48C33.3371 48.0003 34.173 47.9353 35 47.8056V36.625H38.7281Z" fill="white"/>
</g>
<defs>
<clipPath id="clip0_582_9042">
<rect width="32" height="32" fill="white" transform="translate(16.5 16)"/>
</clipPath>
</defs>
</svg>
