<svg width="65" height="64" viewBox="0 0 65 64" fill="none" xmlns="http://www.w3.org/2000/svg">
<rect x="0.5" width="64" height="64" rx="32" fill="#ECF1F5"/>
<g clip-path="url(#clip0_582_9040)">
<path d="M48.4848 32.2994C48.4848 30.9883 48.3759 30.0316 48.1402 29.0395H32.8188V34.9568H41.8121C41.6309 36.4274 40.6518 38.642 38.4759 40.1301L38.4454 40.3282L43.2897 43.9951L43.6254 44.0278C46.7078 41.2463 48.4848 37.1537 48.4848 32.2994Z" fill="#4285F4"/>
<path d="M32.8188 47.8901C37.2248 47.8901 40.9236 46.4727 43.6254 44.0278L38.4759 40.1301C37.0979 41.0691 35.2484 41.7246 32.8188 41.7246C28.5034 41.7246 24.8407 38.9431 23.5351 35.0986L23.3438 35.1145L18.3065 38.9236L18.2406 39.1025C20.9241 44.3112 26.4363 47.8901 32.8188 47.8901Z" fill="#34A853"/>
<path d="M23.5351 35.0986C23.1906 34.1065 22.9913 33.0434 22.9913 31.945C22.9913 30.8465 23.1906 29.7836 23.517 28.7915L23.5079 28.5802L18.4075 24.7099L18.2406 24.7874C17.1346 26.9489 16.5 29.3761 16.5 31.945C16.5 34.514 17.1346 36.9411 18.2406 39.1025L23.5351 35.0986Z" fill="#FBBC05"/>
<path d="M32.8188 22.1654C35.883 22.1654 37.95 23.4587 39.1286 24.5395L43.7341 20.1457C40.9056 17.5768 37.2248 16 32.8188 16C26.4363 16 20.9241 19.5787 18.2406 24.7874L23.517 28.7915C24.8407 24.9469 28.5034 22.1654 32.8188 22.1654Z" fill="#EB4335"/>
</g>
<defs>
<clipPath id="clip0_582_9040">
<rect width="32" height="32" fill="white" transform="translate(16.5 16)"/>
</clipPath>
</defs>
</svg>
