<svg width="24" height="24" viewBox="0 0 24 24" fill="none" xmlns="http://www.w3.org/2000/svg">
<path d="M15.9773 19.2103C15.2109 19.2192 14.4844 18.8689 14.014 18.2638C13.5436 17.6586 13.3834 16.8682 13.581 16.1276L9.14687 13.5932C8.38066 14.2952 7.25752 14.4438 6.33513 13.9652C5.41274 13.4866 4.88757 12.4827 5.02038 11.4521C5.15319 10.4214 5.91569 9.58351 6.92928 9.35437C7.94286 9.12523 8.99164 9.55368 9.55487 10.427L13.5803 8.1256C13.5282 7.92881 13.5007 7.72635 13.4982 7.5228C13.488 6.33756 14.3112 5.30795 15.4696 5.05697C16.628 4.80599 17.8035 5.40258 18.2848 6.48574C18.7661 7.56891 18.4211 8.84117 17.4584 9.5327C16.4958 10.2242 15.1799 10.1451 14.3071 9.34322L9.95012 11.833C9.94581 12.0167 9.92013 12.1993 9.87362 12.377L14.3071 14.9107C15.1233 14.1617 16.3377 14.0461 17.2806 14.6276C18.2234 15.2092 18.6652 16.3463 18.3622 17.4119C18.0591 18.4774 17.0851 19.2119 15.9773 19.2103ZM15.9773 15.6686C15.3905 15.6686 14.9148 16.1443 14.9148 16.7311C14.9148 17.3179 15.3905 17.7936 15.9773 17.7936C16.5641 17.7936 17.0398 17.3179 17.0398 16.7311C17.0398 16.1443 16.5641 15.6686 15.9773 15.6686ZM7.47733 10.7103C6.89053 10.7103 6.41483 11.186 6.41483 11.7728C6.41483 12.3596 6.89053 12.8353 7.47733 12.8353C8.06413 12.8353 8.53983 12.3596 8.53983 11.7728C8.53983 11.186 8.06413 10.7103 7.47733 10.7103ZM15.9773 6.4603C15.3905 6.4603 14.9148 6.936 14.9148 7.5228C14.9148 8.10961 15.3905 8.5853 15.9773 8.5853C16.5641 8.5853 17.0398 8.10961 17.0398 7.5228C17.0398 6.936 16.5641 6.4603 15.9773 6.4603Z" fill="#7E7F80"/>
</svg>
