<svg width="25" height="24" viewBox="0 0 25 24" fill="none" xmlns="http://www.w3.org/2000/svg">
<path d="M12.5 15.2C14.2673 15.2 15.7 13.7673 15.7 12C15.7 10.2327 14.2673 8.8 12.5 8.8C10.7327 8.8 9.3 10.2327 9.3 12C9.3 13.7673 10.7327 15.2 12.5 15.2Z" fill="#333333"/>
<path d="M9.5 2L7.67 4H4.5C3.4 4 2.5 4.9 2.5 6V18C2.5 19.1 3.4 20 4.5 20H20.5C21.6 20 22.5 19.1 22.5 18V6C22.5 4.9 21.6 4 20.5 4H17.33L15.5 2H9.5ZM12.5 17C9.74 17 7.5 14.76 7.5 12C7.5 9.24 9.74 7 12.5 7C15.26 7 17.5 9.24 17.5 12C17.5 14.76 15.26 17 12.5 17Z" fill="#333333"/>
</svg>
