<svg width="32" height="48" viewBox="0 0 32 48" fill="none" xmlns="http://www.w3.org/2000/svg">
<g clip-path="url(#clip0_289_808)">
<path d="M16.9062 47.8664C16.6306 47.7628 16.0919 47.3417 15.7091 46.9307C15.2605 46.449 14.881 46.1834 14.6414 46.1834C14.074 46.1834 12.6642 44.6086 12.3297 43.6012C12.1804 43.1514 11.8468 42.5859 11.5885 42.3445C11.1624 41.9462 11.1411 41.8804 11.3584 41.6329C11.8025 41.1269 11.8375 40.6801 11.473 40.1683C11.2851 39.9043 11.1724 39.5813 11.2226 39.4504C11.2784 39.305 11.0582 38.9352 10.6564 38.4993C10.111 37.9076 9.99396 37.6667 9.96977 37.086C9.95373 36.701 9.85837 36.287 9.75785 36.1659C9.63123 36.0133 9.60541 35.4657 9.67377 34.383C9.74786 33.2097 9.7047 32.4855 9.50054 31.4762C9.19735 29.9773 9.04248 27.1845 9.12126 24.6366C9.13807 24.093 9.06472 23.3359 8.95825 22.9541C8.70512 22.0465 7.5992 20.9677 6.13105 20.1962C5.11675 19.6632 4.97263 19.525 4.57449 18.7029C4.33317 18.2046 3.87197 17.46 3.54961 17.0481C3.22724 16.6362 2.87675 16.0313 2.77074 15.7039C2.43428 14.6647 1.84116 13.6205 1.43684 13.3556C1.22169 13.2146 0.976915 12.8503 0.892902 12.5461C0.760836 12.0678 0.795776 11.9088 1.15089 11.3722L1.56163 10.7515L1.19146 10.3575L0.821289 9.96343L1.18381 9.21725C1.3832 8.80686 1.88764 8.04215 2.30479 7.51791C3.26302 6.31368 3.49585 5.52117 3.24558 4.31562L3.06131 3.42798L3.86916 2.68133C4.31348 2.27067 4.67702 1.85316 4.67702 1.75352C4.67702 1.45424 5.489 0.79676 5.85861 0.79676C6.04819 0.79676 6.37044 0.618851 6.57472 0.401407C6.92836 0.0249755 7.36737 -0.129014 7.36371 0.124659C7.36277 0.189892 7.25891 0.583002 7.13292 0.998236C6.87899 1.8351 6.95562 2.26211 7.34579 2.18441C7.5262 2.14848 7.60264 1.9626 7.60264 1.55985C7.60264 1.12786 7.70629 0.904549 8.02293 0.654389C8.55586 0.233356 8.66415 0.237952 9.21941 0.705178C9.74512 1.14753 11.4572 1.63818 11.9998 1.50199C12.7735 1.30781 14.864 2.57888 15.6495 3.72104C16.0235 4.2649 17.2183 4.81221 17.7437 4.68034C18.8466 4.40352 20.2457 5.45882 20.7062 6.91492C21.0689 8.06215 21.0457 8.1806 20.333 8.82042C19.6206 9.45995 19.4891 9.903 20.0555 9.75486C20.2643 9.70027 20.6893 9.79695 21.087 9.98947C21.8243 10.3464 21.6784 10.3832 22.8344 9.54836C23.1806 9.29829 23.2395 9.30247 23.9018 9.62428C24.5593 9.94371 24.6739 10.092 24.6174 10.5501C24.581 10.8449 24.8839 10.9478 25.2351 10.7599C25.4682 10.6351 25.9097 10.6355 26.8285 10.7613C27.9917 10.9205 28.1516 10.9874 28.7142 11.5501C29.0778 11.9137 29.6072 12.2443 30.0101 12.3593C30.8666 12.6039 31.1845 12.87 31.2981 13.4377C31.4344 14.1194 31.1262 14.9888 30.4407 15.856C30.1001 16.2868 29.8215 16.6974 29.8215 16.7683C29.8215 16.8392 29.5657 17.2034 29.2531 17.5776C28.7015 18.2379 28.6877 18.2861 28.785 19.2135C28.9685 20.9619 28.1932 23.9654 27.322 24.8815C26.9613 25.2607 26.8182 25.31 26.3217 25.2261C25.9556 25.1643 25.7008 25.1954 25.6296 25.3106C25.5676 25.4109 25.2222 25.6225 24.8622 25.7809C24.5021 25.9392 23.966 26.275 23.6709 26.527C23.1601 26.9634 23.143 27.0117 23.3149 27.5325C23.5131 28.1331 23.3796 28.8441 22.9548 29.4506C22.8175 29.6466 22.7051 29.9802 22.7051 30.1918C22.7051 30.4034 22.5411 30.7968 22.3406 31.0659C22.1401 31.3351 21.7751 31.9111 21.5295 32.346C21.0407 33.2116 20.5569 33.6812 20.1485 33.6867C20.0035 33.6886 19.5559 33.5492 19.154 33.3769C18.5228 33.1063 18.4107 33.0959 18.3322 33.3005C18.2781 33.4416 18.4003 33.6625 18.6345 33.8467C19.2233 34.3098 19.5982 35.188 19.3806 35.5945C19.107 36.1058 18.2668 36.5355 17.5392 36.5361C16.8408 36.5368 16.6405 36.7415 16.8808 37.2088C17.1898 37.8095 16.506 38.3434 15.9104 37.9666C15.7639 37.874 15.6049 37.881 15.4788 37.9857C15.2359 38.1872 15.454 38.6933 15.9553 39.0916C16.2316 39.3112 16.2518 39.3933 16.08 39.6003C15.9673 39.736 15.9076 39.9384 15.9473 40.0501C15.987 40.1617 15.8435 40.5574 15.6284 40.9295L15.2374 41.6059L15.8255 42.1606C16.5156 42.8114 16.552 43.1299 16.0617 44.2284L15.6992 45.0408L16.0529 45.6132C16.4056 46.1839 18.2938 47.5375 19.0679 47.7746C19.4208 47.8827 19.4017 47.8972 18.89 47.9093C18.5747 47.9168 18.1121 47.9526 17.8621 47.9888C17.612 48.0251 17.1819 47.97 16.9062 47.8664ZM21.1554 9.46291C20.8682 9.17575 20.9271 8.8955 21.2995 8.77731C21.705 8.64862 22.1585 9.04254 22.0201 9.40321C21.9069 9.69825 21.424 9.73158 21.1554 9.46291Z" fill="#040506"/>
</g>
<defs>
<clipPath id="clip0_289_808">
<rect width="30.5084" height="48" fill="white" transform="translate(0.821289)"/>
</clipPath>
</defs>
</svg>
