<svg width="32" height="48" viewBox="0 0 32 48" fill="none" xmlns="http://www.w3.org/2000/svg">
<g clip-path="url(#clip0_625_5366)">
<path d="M16.906 47.8664C16.6303 47.7628 16.0916 47.3417 15.7089 46.9307C15.2603 46.449 14.8808 46.1834 14.6412 46.1834C14.0738 46.1834 12.664 44.6086 12.3295 43.6012C12.1801 43.1514 11.8466 42.5859 11.5883 42.3445C11.1621 41.9462 11.1408 41.8804 11.3581 41.6329C11.8022 41.1269 11.8372 40.6801 11.4728 40.1683C11.2848 39.9043 11.1721 39.5813 11.2223 39.4504C11.2781 39.305 11.058 38.9352 10.6562 38.4993C10.1108 37.9076 9.99371 37.6667 9.96952 37.086C9.95349 36.701 9.85812 36.287 9.75761 36.1659C9.63099 36.0133 9.60516 35.4657 9.67352 34.383C9.74761 33.2097 9.70446 32.4855 9.5003 31.4762C9.1971 29.9773 9.04224 27.1845 9.12102 24.6366C9.13783 24.093 9.06447 23.3359 8.95801 22.9541C8.70488 22.0465 7.59896 20.9677 6.13081 20.1962C5.11651 19.6632 4.97239 19.525 4.57425 18.7029C4.33293 18.2046 3.87173 17.46 3.54936 17.0481C3.22699 16.6362 2.8765 16.0313 2.7705 15.7039C2.43403 14.6647 1.84091 13.6205 1.4366 13.3556C1.22144 13.2146 0.97667 12.8503 0.892658 12.5461C0.760592 12.0678 0.795532 11.9088 1.15065 11.3722L1.56139 10.7515L1.19122 10.3575L0.821045 9.96343L1.18357 9.21725C1.38295 8.80686 1.88739 8.04215 2.30454 7.51791C3.26278 6.31368 3.49561 5.52117 3.24534 4.31562L3.06106 3.42798L3.86892 2.68133C4.31324 2.27067 4.67677 1.85316 4.67677 1.75352C4.67677 1.45424 5.48876 0.79676 5.85836 0.79676C6.04794 0.79676 6.37019 0.618851 6.57447 0.401407C6.92811 0.0249755 7.36713 -0.129014 7.36347 0.124659C7.36253 0.189892 7.25867 0.583002 7.13268 0.998236C6.87875 1.8351 6.95538 2.26211 7.34554 2.18441C7.52595 2.14848 7.60239 1.9626 7.60239 1.55985C7.60239 1.12786 7.70605 0.904549 8.02269 0.654389C8.55561 0.233356 8.6639 0.237952 9.21917 0.705178C9.74487 1.14753 11.457 1.63818 11.9996 1.50199C12.7733 1.30781 14.8638 2.57888 15.6492 3.72104C16.0232 4.2649 17.218 4.81221 17.7434 4.68034C18.8464 4.40352 20.2454 5.45882 20.7059 6.91492C21.0687 8.06215 21.0455 8.1806 20.3328 8.82042C19.6204 9.45995 19.4888 9.903 20.0553 9.75486C20.264 9.70027 20.6891 9.79695 21.0868 9.98947C21.8241 10.3464 21.6781 10.3832 22.8341 9.54836C23.1804 9.29829 23.2392 9.30247 23.9016 9.62428C24.5591 9.94371 24.6737 10.092 24.6171 10.5501C24.5807 10.8449 24.8837 10.9478 25.2348 10.7599C25.468 10.6351 25.9094 10.6355 26.8283 10.7613C27.9914 10.9205 28.1513 10.9874 28.714 11.5501C29.0776 11.9137 29.607 12.2443 30.0099 12.3593C30.8664 12.6039 31.1843 12.87 31.2978 13.4377C31.4342 14.1194 31.1259 14.9888 30.4404 15.856C30.0999 16.2868 29.8213 16.6974 29.8213 16.7683C29.8213 16.8392 29.5655 17.2034 29.2529 17.5776C28.7012 18.2379 28.6874 18.2861 28.7847 19.2135C28.9682 20.9619 28.193 23.9654 27.3217 24.8815C26.9611 25.2607 26.818 25.31 26.3215 25.2261C25.9554 25.1643 25.7005 25.1954 25.6293 25.3106C25.5673 25.4109 25.222 25.6225 24.8619 25.7809C24.5019 25.9392 23.9658 26.275 23.6706 26.527C23.1598 26.9634 23.1427 27.0117 23.3146 27.5325C23.5128 28.1331 23.3793 28.8441 22.9546 29.4506C22.8173 29.6466 22.7049 29.9802 22.7049 30.1918C22.7049 30.4034 22.5409 30.7968 22.3404 31.0659C22.1399 31.3351 21.7749 31.9111 21.5293 32.346C21.0405 33.2116 20.5567 33.6812 20.1482 33.6867C20.0032 33.6886 19.5557 33.5492 19.1537 33.3769C18.5225 33.1063 18.4105 33.0959 18.332 33.3005C18.2778 33.4416 18.4001 33.6625 18.6343 33.8467C19.2231 34.3098 19.598 35.188 19.3804 35.5945C19.1067 36.1058 18.2665 36.5355 17.5389 36.5361C16.8406 36.5368 16.6402 36.7415 16.8806 37.2088C17.1895 37.8095 16.5058 38.3434 15.9101 37.9666C15.7636 37.874 15.6047 37.881 15.4786 37.9857C15.2357 38.1872 15.4537 38.6933 15.9551 39.0916C16.2314 39.3112 16.2515 39.3933 16.0798 39.6003C15.9671 39.736 15.9074 39.9384 15.947 40.0501C15.9867 40.1617 15.8432 40.5574 15.6282 40.9295L15.2371 41.6059L15.8253 42.1606C16.5154 42.8114 16.5517 43.1299 16.0615 44.2284L15.6989 45.0408L16.0527 45.6132C16.4054 46.1839 18.2936 47.5375 19.0676 47.7746C19.4206 47.8827 19.4015 47.8972 18.8897 47.9093C18.5744 47.9168 18.1119 47.9526 17.8618 47.9888C17.6118 48.0251 17.1816 47.97 16.906 47.8664ZM21.1551 9.46291C20.8679 9.17575 20.9269 8.8955 21.2993 8.77731C21.7047 8.64862 22.1583 9.04254 22.0199 9.40321C21.9066 9.69825 21.4238 9.73158 21.1551 9.46291Z" fill="#27861D"/>
</g>
<defs>
<clipPath id="clip0_625_5366">
<rect width="30.5084" height="48" fill="white" transform="translate(0.821045)"/>
</clipPath>
</defs>
</svg>
