<svg width="44" height="44" viewBox="0 0 44 44" fill="none" xmlns="http://www.w3.org/2000/svg">
<rect width="44" height="44" rx="22" fill="#FEFEFE"/>
<path d="M28.4266 16.0085C27.9069 14.7303 27.0178 13.6361 25.873 12.8658C24.7283 12.0955 23.3798 11.6841 22 11.6841C20.6202 11.6841 19.2718 12.0955 18.127 12.8658C16.9822 13.6361 16.0932 14.7303 15.5735 16.0085C14.4172 16.5213 13.4346 17.3585 12.7449 18.4187C12.0551 19.4789 11.6878 20.7165 11.6875 21.9813C11.6781 25.4604 14.606 28.4688 18.0803 28.5626C19.2532 28.59 20.4122 28.3039 21.4375 27.7338V31.7501C21.4375 31.8992 21.4968 32.0423 21.6023 32.1478C21.7078 32.2533 21.8508 32.3126 22 32.3126C22.1492 32.3126 22.2923 32.2533 22.3978 32.1478C22.5033 32.0423 22.5625 31.8992 22.5625 31.7501V27.7338C23.5375 28.2761 24.6344 28.5613 25.75 28.5626H25.916C29.3941 28.4688 32.3219 25.4594 32.3125 21.9813C32.3123 20.7165 31.945 19.4789 31.2552 18.4187C30.5654 17.3585 29.5828 16.5213 28.4266 16.0085ZM25.8906 27.4376C24.6981 27.469 23.5284 27.1066 22.5625 26.4063V22.3479L26.7513 20.2535C26.8848 20.1869 26.9864 20.0699 27.0337 19.9284C27.081 19.7869 27.0701 19.6323 27.0035 19.4988C26.9368 19.3653 26.8199 19.2637 26.6783 19.2164C26.5368 19.1691 26.3823 19.18 26.2488 19.2466L22.5625 21.0897V18.2501C22.5625 18.1009 22.5033 17.9578 22.3978 17.8523C22.2923 17.7468 22.1492 17.6876 22 17.6876C21.8508 17.6876 21.7078 17.7468 21.6023 17.8523C21.4968 17.9578 21.4375 18.1009 21.4375 18.2501V23.3397L17.7513 21.4966C17.6178 21.43 17.4632 21.4191 17.3217 21.4664C17.1802 21.5137 17.0632 21.6153 16.9966 21.7488C16.9299 21.8823 16.9191 22.0369 16.9664 22.1784C17.0137 22.3199 17.1153 22.4369 17.2488 22.5035L21.4375 24.5979V26.4063C20.471 27.1052 19.3018 27.4675 18.1094 27.4376C15.2303 27.3654 12.805 24.8688 12.8125 21.9869C12.8125 20.9034 13.1373 19.8448 13.7452 18.9479C14.353 18.0509 15.2158 17.3569 16.2222 16.9554C16.2953 16.9258 16.3613 16.8813 16.4161 16.8246C16.4708 16.7679 16.5131 16.7004 16.54 16.6263C16.9488 15.5067 17.6918 14.5399 18.6685 13.8567C19.6451 13.1736 20.8082 12.8072 22 12.8072C23.1919 12.8072 24.3549 13.1736 25.3316 13.8567C26.3082 14.5399 27.0513 15.5067 27.46 16.6263C27.487 16.7004 27.5292 16.7679 27.584 16.8246C27.6387 16.8813 27.7048 16.9258 27.7778 16.9554C28.7838 17.3566 29.6464 18.0502 30.2543 18.9466C30.8621 19.843 31.1871 20.9011 31.1875 21.9841C31.195 24.8669 28.7697 27.3626 25.8906 27.4376Z" fill="#040506"/>
</svg>
