<svg width="48" height="48" viewBox="0 0 48 48" fill="none" xmlns="http://www.w3.org/2000/svg">
<g clip-path="url(#clip0_289_811)">
<path d="M34.9768 10.6759L35.0232 11.0323L34.4892 11.1428L34.4181 11.9019H35.0578L35.9087 11.82L36.348 11.2978L35.881 11.1162L35.6254 10.822L35.2414 10.2001L35.0578 9.32056L34.3362 9.46764L34.1338 9.7776V10.1271L34.4813 10.365L34.9768 10.6759Z" fill="#040506"/>
<path d="M34.3619 10.9682L34.4004 10.4924L33.9769 10.3098L33.3846 10.447L32.9453 11.1519V11.6089H33.4576L34.3619 10.9682Z" fill="#040506"/>
<path d="M22.1703 12.9888L22.04 13.3245H21.4092V13.6502H21.5592C21.5592 13.6502 21.5681 13.7193 21.5809 13.8101L21.9679 13.7776L22.2098 13.6275L22.2729 13.3245L22.5859 13.2978L22.7093 13.0431L22.422 12.9839L22.1703 12.9888Z" fill="#040506"/>
<path d="M20.5442 13.5801L20.5195 13.899L20.9766 13.8605L21.024 13.5406L20.7495 13.3245L20.5442 13.5801Z" fill="#040506"/>
<path d="M47.9941 23.7517C47.9872 23.0499 47.9516 22.3529 47.8855 21.6669C47.6634 19.3797 47.1165 17.1872 46.2972 15.132C46.236 14.979 46.1797 14.824 46.1146 14.6729C45.0228 12.0935 43.4897 9.74511 41.6132 7.7185C41.4898 7.58622 41.3644 7.45592 41.239 7.32759C40.8847 6.95938 40.5204 6.60006 40.1433 6.25555C35.8769 2.37113 30.2106 0 23.9995 0C17.7361 0 12.0294 2.41357 7.75107 6.35722C6.75406 7.27626 5.83798 8.2792 5.00681 9.35321C1.87163 13.4084 0 18.4883 0 23.9995C0 37.2342 10.7668 48 24.0005 48C33.3093 48 41.3911 42.6694 45.3693 34.9025C46.2202 33.2422 46.8825 31.4722 47.3287 29.6174C47.4423 29.1465 47.54 28.6736 47.6249 28.1949C47.8667 26.8316 47.999 25.4299 47.999 23.9995C48 23.9166 47.9951 23.8347 47.9941 23.7517ZM43.4769 14.1596L43.6161 14.0037C43.7987 14.358 43.9695 14.7184 44.1324 15.0836L43.9053 15.0747L43.4769 15.1339V14.1596ZM40.009 9.97215L40.013 8.90011C40.3901 9.29991 40.7534 9.71155 41.1008 10.138L40.6685 10.7816L39.1571 10.7678L39.0624 10.4529L40.009 9.97215ZM11.058 7.30785V7.26737H11.5388L11.5802 7.10252H12.367V7.44605L12.1409 7.74811H11.057L11.058 7.30785ZM11.826 8.3789C11.826 8.3789 12.3068 8.29697 12.3482 8.29697C12.3897 8.29697 12.3482 8.77672 12.3482 8.77672L11.2643 8.84483L11.058 8.59805L11.826 8.3789ZM45.006 17.9059H43.2499L42.1798 17.1092L41.0535 17.2188V17.9059H40.6971L40.3121 17.6314L38.3615 17.1369V15.8733L35.8897 16.0658L35.1237 16.4774H34.1424L33.6617 16.4291L32.4702 17.0905V18.3353L30.0349 20.0924L30.2373 20.8426H30.7309L30.6015 21.5573L30.2541 21.6846L30.2353 23.5523L32.3399 25.9491H33.256L33.3113 25.803H34.9578L35.4326 25.3637H36.3665L36.8788 25.8771L38.2707 26.0212L38.0861 27.8721L39.631 30.5996L38.8176 32.1543L38.8728 32.8868L39.5135 33.5255V35.2865L40.3546 36.4178V37.8808H41.0811C37.0377 42.8451 30.8839 46.0247 23.9985 46.0247C11.8546 46.0257 1.97429 36.1444 1.97429 23.9995C1.97429 20.9423 2.60212 18.0283 3.7324 15.3797V14.6927L4.52014 13.7361C4.79358 13.2199 5.08677 12.7164 5.39969 12.2258L5.43523 12.6256L4.52014 13.7361C4.23683 14.2712 3.97326 14.8181 3.73339 15.3797V16.6334L4.64847 17.0737V18.816L5.52605 20.3135L6.23975 20.4231L6.33156 19.9098L5.48952 18.6107L5.32467 17.3481H5.81824L6.02653 18.6472L7.24368 20.4231L6.92977 20.9966L7.70369 22.1802L9.62567 22.656V22.345L10.3947 22.4546L10.3216 23.0035L10.9257 23.114L11.8586 23.3687L13.1764 24.8702L14.8595 24.9975L15.0244 26.3706L13.8724 27.1761L13.8181 28.4022L13.6532 29.1524L15.3195 31.2383L15.4469 31.9529C15.4469 31.9529 16.051 32.1168 16.125 32.1168C16.1981 32.1168 17.4794 33.0872 17.4794 33.0872V36.8571L17.9365 36.9854L17.6255 38.7248L18.3945 39.7504L18.2523 41.474L19.2681 43.2597L20.5721 44.3989L21.8831 44.4226L22.0114 44.0011L21.0479 43.1896L21.1032 42.7869L21.276 42.2933L21.3125 41.7899L20.661 41.7701L20.3323 41.3575L20.8732 40.8373L20.9463 40.4444L20.3421 40.2716L20.3777 39.9064L21.2385 39.7761L22.5474 39.1473L22.9867 38.3418L24.3598 36.5846L24.0479 35.2105L24.4694 34.4791L25.7319 34.5176L26.5819 33.8443L26.8563 31.1928L27.799 29.9954L27.9639 29.2264L27.1041 28.951L26.5365 28.0202L24.5967 28.0004L23.0588 27.414L22.9857 26.3173L22.4724 25.42L21.0815 25.3993L20.278 24.1377L19.5643 23.7892L19.5277 24.1742L18.2286 24.2512L17.7528 23.5889L16.3975 23.3134L15.281 24.6036L13.5239 24.3055L13.3966 22.3253L12.1143 22.1062L12.6286 21.1348L12.4815 20.5771L10.7964 21.7034L9.73623 21.5741L9.35815 20.7459L9.58914 19.892L10.1735 18.815L11.519 18.1339L14.1172 18.1329L14.1103 18.9256L15.0441 19.3599L14.9701 18.0056L15.6433 17.3284L17.0016 16.436L17.0944 15.8082L18.4488 14.3985L19.889 13.6009L19.7617 13.4963L20.737 12.5782L21.0943 12.673L21.2582 12.8783L21.6284 12.4677L21.7192 12.4272L21.3135 12.3699L20.9018 12.2327V11.8379L21.12 11.6592H21.6007L21.8209 11.7559L22.0114 12.1409L22.2444 12.1054V12.0718L22.3115 12.0945L22.9867 11.9909L23.0824 11.6612L23.4674 11.7579V12.1152L23.1101 12.361H23.1111L23.1634 12.7529L24.3865 13.13C24.3865 13.13 24.3875 13.135 24.3894 13.1448L24.6708 13.1212L24.6895 12.5911L23.7201 12.1498L23.6649 11.8951L24.4694 11.6207L24.5049 10.8507L23.6639 10.3384L23.6086 9.04029L22.4556 9.60691H22.0351L22.1456 8.61878L20.5761 8.2486L19.9265 8.73921V10.2357L18.7587 10.6059L18.2908 11.5812L17.7834 11.6631V10.4154L16.6857 10.2634L16.1369 9.90602L15.9158 9.09754L17.8792 7.9485L18.8397 7.65631L18.9364 8.3019L19.4715 8.27426L19.5129 7.94949L20.0726 7.86953L20.0825 7.75601L19.8416 7.65631L19.7864 7.31278L20.4744 7.25454L20.89 6.82217L20.9127 6.79058L20.9176 6.79256L21.044 6.66225L22.4902 6.47963L23.1298 7.02256L21.4527 7.91593L23.5869 8.41937L23.8633 7.70567H24.7961L25.1258 7.08376L24.4664 6.91891V6.13215L22.3984 5.21608L20.9709 5.38094L20.1654 5.80245L20.2207 6.82711L19.3787 6.69878L19.2494 6.13215L20.0559 5.39969L18.5919 5.32664L18.1714 5.45398L17.9888 5.94756L18.5376 6.04035L18.4281 6.5892L17.4952 6.64448L17.3491 7.00973L15.9957 7.04724C15.9957 7.04724 15.9582 6.27924 15.9039 6.27924C15.8496 6.27924 16.9651 6.26048 16.9651 6.26048L17.7716 5.47274L17.3313 5.25261L16.746 5.8212L15.7746 5.76592L15.1892 4.96041H13.9444L12.6453 5.93078H13.8358L13.9444 6.27924L13.6355 6.5665L14.9533 6.60302L15.1547 7.07883L13.671 7.02355L13.5989 6.65732L12.6661 6.45594L12.1715 6.18151L11.061 6.1904C14.6966 3.54188 19.1674 1.97429 23.9995 1.97429C29.569 1.97429 34.6577 4.05619 38.5402 7.47665L38.2786 7.94456L37.2628 8.34238L36.8344 8.80732L36.9331 9.34927L37.4573 9.42231L37.7732 10.212L38.6774 9.84777L38.8265 10.904H38.554L37.8117 10.7944L36.9884 10.9326L36.1918 12.058L35.0526 12.2367L34.8877 13.212L35.3685 13.3255L35.2293 13.9523L34.098 13.7253L33.0605 13.9523L32.8404 14.5298L33.0201 15.742L33.6291 16.0273L34.6508 16.0214L35.3408 15.9592L35.5511 15.4103L36.6291 14.0096L37.3388 14.1547L38.0377 13.5229L38.168 14.0165L39.8876 15.1764L39.6774 15.4587L38.9025 15.4173L39.2006 15.8398L39.6774 15.9444L40.2361 15.7114L40.2243 15.0382L40.472 14.9138L40.2726 14.7026L39.1256 14.0629L38.8235 13.213H39.7771L40.0821 13.515L40.9034 14.2228L40.938 15.0787L41.7889 15.9849L42.1057 14.743L42.6951 14.4212L42.8056 15.437L43.3811 16.0688L44.5292 16.049C44.7513 16.6206 44.9507 17.202 45.1254 17.7953L45.006 17.9059ZM13.0906 10.904L13.667 10.6296L14.1883 10.754L14.0086 11.4539L13.4459 11.6325L13.0906 10.904ZM16.1497 12.5516V13.0047H14.8329L14.3393 12.8675L14.4627 12.5516L15.0954 12.29H15.9602V12.5516H16.1497ZM16.7558 13.1833V13.6226L16.4261 13.8349L16.0155 13.9109C16.0155 13.9109 16.0155 13.2524 16.0155 13.1833H16.7558ZM16.3847 13.0047V12.4825L16.8378 12.8951L16.3847 13.0047ZM16.591 14.0609V14.4883L16.2761 14.8042H15.5762L15.6858 14.3245L16.0165 14.2959L16.0846 14.131L16.591 14.0609ZM14.8477 13.1833H15.5752L14.6423 14.4874L14.2574 14.281L14.3403 13.7322L14.8477 13.1833ZM17.8269 13.9109V14.3373H17.127L16.9355 14.0609V13.6641H16.9908L17.8269 13.9109ZM17.1803 13.3245L17.3797 13.1152L17.7163 13.3245L17.4468 13.5466L17.1803 13.3245ZM45.3633 19.0174L45.4324 18.9364C45.4611 19.0608 45.4917 19.1852 45.5193 19.3115L45.3633 19.0174Z" fill="#040506"/>
<path d="M3.7334 14.6926V15.3797C3.97328 14.819 4.23783 14.2721 4.52114 13.7361L3.7334 14.6926Z" fill="#040506"/>
</g>
<defs>
<clipPath id="clip0_289_811">
<rect width="48" height="48" fill="white"/>
</clipPath>
</defs>
</svg>
